<svg width="105" height="121" viewBox="0 0 105 121" fill="none" xmlns="http://www.w3.org/2000/svg">
<path d="M31.8308 86.2315C33.2716 80.955 30.3287 75.598 27.6519 70.7874C24.6285 65.3514 21.784 59.6833 20.896 53.5769C19.265 42.3584 25.0088 30.5002 34.8848 24.3357C44.7592 18.1713 58.2323 17.9215 68.4435 23.5557C72.3194 25.6943 75.7828 28.6678 77.9279 32.439C80.4597 36.8935 81.0012 42.128 81.1253 47.2046C81.259 52.6357 80.9029 58.3135 78.1099 63.0339C75.815 66.9114 72.097 69.772 68.6981 72.8067C63.5264 77.424 58.9317 82.6376 55.0413 88.3008C54.6932 88.8084 54.3338 89.3338 53.8036 89.6642C53.0171 90.1525 52.0098 90.1187 51.0767 90.0494C44.4401 89.5579 37.8792 88.1541 31.8308 86.2315Z" fill="white"/>
<path d="M30.9544 86.7035C39.3557 88.7148 47.9634 89.9316 56.6113 90.3312C56.0231 97.3369 55.3961 104.497 52.4291 110.92C50.9803 114.056 48.7644 117.139 45.4187 118.327C41.4509 119.735 37.0753 118.135 33.2026 116.499C31.7006 115.866 30.155 115.189 29.0736 114.001C26.8593 111.571 27.2767 107.901 27.8262 104.712C28.8947 98.5086 29.9632 92.3039 30.9544 86.7035Z" fill="#ACD4F7"/>
<g opacity="0.1294">
<path d="M82.7355 51.3496C82.1714 50.568 80.8983 50.5374 80.281 51.2787C79.8024 52.0426 79.9845 51.6639 79.6412 52.8162C79.6009 52.9661 79.5574 53.1176 79.5123 53.2675C79.3382 53.7235 78.7661 55.2369 78.5888 55.5705C78.8692 55.1434 78.8579 55.1627 78.5549 55.6269C76.9079 58.4859 76.5211 59.332 74.6613 61.5673C74.1714 62.22 73.2076 63.7462 71.5847 65.187C69.6218 67.1064 64.5065 70.5005 61.3832 73.6319C60.4726 74.5182 58.4549 76.5392 58.1584 76.8954C58.1503 76.9034 58.1471 76.9066 58.1374 76.9147C56.9883 77.9606 55.8264 79.0098 54.8868 80.2427C53.035 82.7455 53.1704 82.7181 51.9568 84.5441C51.23 85.7786 50.118 87.3306 49.981 88.6811C49.973 88.7891 49.9826 88.889 49.9891 88.9905C49.3799 89.7029 49.0302 90.6457 49.1623 91.7609C49.5701 94.5281 49.0898 97.6014 48.1373 102.439C47.1236 107.458 47.2944 108.425 45.2267 112.793C44.105 114.87 44.8577 113.632 43.4056 115.598C43.0559 116.083 42.5644 116.51 42.4596 117.113C41.541 119.71 45.0608 121.613 46.9818 119.798C49.7054 117.66 51.3299 114.514 52.6112 111.424C53.9843 107.392 54.7385 103.769 56.1761 99.321C56.782 97.3903 56.9738 95.3709 57.1076 93.3661C57.1173 92.0897 57.3268 90.6473 56.579 89.5224C56.5774 89.5191 56.5741 89.5159 56.5741 89.5159C56.3308 89.5127 56.0858 89.5095 55.8425 89.5047C55.4202 89.495 54.998 89.4805 54.5757 89.4595C57.2961 83.9091 59.2478 80.8954 63.1688 77.0775C65.6894 74.8921 68.4227 72.9421 71.0529 70.8824C73.5315 69.05 75.8055 66.9307 77.675 64.5165C78.7629 62.7969 78.6017 62.9533 79.3302 61.6994C79.4478 61.4964 79.277 61.7558 79.1771 61.9122C79.58 61.3014 79.9571 60.6761 80.3277 60.0459C80.9192 59.0806 81.3366 58.0346 81.6815 56.9677C81.6847 56.9645 81.6912 56.95 81.7041 56.9194C82.4406 54.8291 83.5961 52.6679 82.7355 51.3496Z" fill="black"/>
</g>
<g opacity="0.1294">
<path d="M51.7215 84.897C51.8053 84.7713 51.8843 84.6553 51.9568 84.5441C51.9826 84.4989 52.0132 84.4522 52.0374 84.4087C51.9326 84.5699 51.8263 84.7342 51.7215 84.897Z" fill="black"/>
</g>
<path d="M42.3632 119.942C40.0489 119.942 37.9393 119.432 36.7225 119.067C34.2277 118.317 28.2986 116.008 27.098 110.768C26.6644 108.881 26.9578 106.913 27.2172 105.176L30.0488 86.1799C30.0714 86.0252 30.1601 85.8882 30.289 85.8028C30.4195 85.7174 30.5791 85.69 30.7305 85.7303C35.6299 87.0228 52.1521 89.632 56.7291 89.8351C56.8774 89.8415 57.016 89.9076 57.1143 90.0188C57.2126 90.13 57.2626 90.275 57.2513 90.4233C56.7275 97.7272 55.5784 103.479 53.153 110.939C52.3842 113.303 51.4704 115.76 49.5156 117.515C47.4366 119.382 44.7887 119.942 42.3632 119.942ZM31.0448 86.9422L28.3019 105.34C28.0456 107.062 27.7797 108.839 28.1665 110.527C29.2382 115.204 34.7274 117.324 37.0384 118.019C39.3543 118.715 45.1336 119.98 48.7839 116.702C50.5373 115.128 51.3882 112.826 52.1119 110.604C54.4761 103.331 55.5785 97.9318 56.1167 90.9036C51.0402 90.5474 36.3906 88.2347 31.0448 86.9422Z" fill="black"/>
<path d="M54.9964 90.5376C54.94 90.5376 54.8819 90.5295 54.8255 90.5102C54.537 90.4167 54.3807 90.1057 54.4742 89.8188C56.6418 83.1725 62.2229 78.4166 67.6186 73.8187C72.6581 69.5237 77.8684 65.0821 80.1956 59.1514C81.4478 55.9604 82.5985 47.8958 81.0901 40.7193C79.9732 35.4042 77.8458 31.2269 74.7693 28.3066C69.0094 22.8384 58.3872 17.9955 49.2236 19.3219C40.4934 20.587 32.9559 24.2212 27.9986 29.5557C23.4425 34.4598 20.785 41.0142 20.5174 48.0119C20.266 54.5534 22.0775 61.2529 25.7536 67.3867C26.2596 68.2312 26.8092 69.0773 27.341 69.896C28.4547 71.6091 29.6038 73.3819 30.4595 75.2852C31.9954 78.7083 32.5466 82.4714 32.0534 86.1685C32.0131 86.4682 31.7359 86.6778 31.4378 86.6391C31.138 86.5988 30.9269 86.3232 30.9672 86.0234C31.4329 82.5279 30.9124 78.9694 29.4603 75.7333C28.64 73.9073 27.5135 72.1716 26.424 70.4923C25.8874 69.6655 25.3329 68.8114 24.8156 67.9508C21.0283 61.6332 19.1653 54.7243 19.4232 47.97C19.702 40.7096 22.4627 33.9054 27.1976 28.8095C32.3242 23.2913 40.0921 19.5362 49.0688 18.2373C58.5758 16.8593 69.5766 21.8602 75.5267 27.5121C78.7677 30.5903 81.0014 34.9578 82.165 40.4953C83.7186 47.8894 82.5179 56.2392 81.2174 59.5527C78.7903 65.7396 73.4735 70.2715 68.3309 74.6535C63.0496 79.1547 57.5895 83.8075 55.5186 90.1605C55.4428 90.3909 55.2268 90.5376 54.9964 90.5376Z" fill="black"/>
<path d="M48.0616 89.1792C48.0326 89.1792 48.0019 89.1776 47.9713 89.1711C47.6732 89.1212 47.4701 88.8391 47.5201 88.541L47.5378 88.4314C48.5983 81.9334 49.9407 75.1775 51.5314 68.3523C52.2309 65.3514 52.9303 62.6214 54.2067 60.1169C52.2518 59.2998 50.6015 57.7801 49.6329 56.1378C49.4572 55.8397 49.2945 55.5319 49.1462 55.2144C48.7981 55.693 48.4355 56.1652 48.0584 56.6262C46.0439 59.1016 44.0696 60.2523 42.0325 60.1363C41.3556 60.0992 40.7126 59.9139 40.1083 59.6528C40.3903 61.6463 40.5128 63.6206 40.5788 65.4917C40.8335 72.6891 40.3178 79.9366 39.0446 87.0341C38.9914 87.3323 38.7045 87.5305 38.408 87.4773C38.1099 87.4241 37.9116 87.1389 37.9648 86.8407C39.2235 79.8205 39.7343 72.6521 39.4813 65.5319C39.4072 63.4497 39.2622 61.2386 38.8995 59.0259C38.6223 58.8599 38.3564 58.6874 38.1002 58.5182C35.557 56.8389 32.466 54.4859 31.1138 51.1773C30.5256 49.7413 30.6287 48.4746 31.3958 47.7026C32.2403 46.8533 33.6296 46.8968 34.5643 47.3787C35.5023 47.8622 36.1276 48.7051 36.6143 49.4674C38.3758 52.2184 39.3476 55.2756 39.8939 58.3345C40.5917 58.7132 41.3218 59.0001 42.0889 59.0436C43.7505 59.1306 45.425 58.1201 47.2026 55.9364C47.7119 55.3095 48.197 54.6664 48.6547 54.0089C47.9262 51.8799 47.7038 49.3529 47.9794 46.3553C48.1873 44.0829 48.724 40.7969 50.9673 38.4874C51.6458 37.7896 52.3952 37.5495 53.0254 37.8299C53.496 38.0394 53.7344 38.4681 53.8876 38.8178C55.0866 41.5414 54.3018 44.5745 53.6072 46.618C52.6998 49.2869 51.4508 51.8139 49.8811 54.1588C50.0793 54.66 50.3114 55.1338 50.5757 55.5818C51.454 57.071 52.9609 58.4489 54.7304 59.1548C54.7997 59.0355 54.8706 58.9179 54.9448 58.8002C56.6724 56.0057 59.2929 53.6737 62.3211 52.2345C62.8965 51.9605 63.5782 51.7075 64.2712 51.9041C64.8385 52.0653 65.2366 52.4408 65.4252 52.9904C65.7797 54.0234 65.2833 55.3852 64.6741 56.2136C62.8482 58.6939 60.7998 60.1733 58.587 60.6133C57.4476 60.8389 56.3195 60.7664 55.2542 60.4795C53.9875 62.9163 53.2929 65.619 52.5983 68.6021C51.0141 75.4047 49.6748 82.1364 48.6192 88.6103L48.6015 88.7215C48.5579 88.9874 48.3259 89.1792 48.0616 89.1792ZM55.8102 59.49C56.6386 59.6769 57.5041 59.7076 58.3743 59.5351C60.3099 59.1499 62.1326 57.8139 63.7926 55.5609C64.3035 54.8679 64.571 53.8735 64.3889 53.3433C64.318 53.1386 64.1906 53.0194 63.9747 52.9581C63.6346 52.8598 63.2059 53.029 62.795 53.224C59.9553 54.5746 57.4992 56.7583 55.8811 59.3772C55.8569 59.4143 55.8344 59.4513 55.8102 59.49ZM33.1316 48.1265C32.7722 48.1265 32.4225 48.228 32.1775 48.4746C31.5506 49.1047 31.9374 50.2828 32.1324 50.7599C33.3524 53.7414 36.0905 55.8639 38.6288 57.5464C38.0792 54.942 37.1815 52.3731 35.6956 50.054C35.2863 49.4158 34.7738 48.7131 34.0663 48.3489C33.7956 48.2135 33.4587 48.1265 33.1316 48.1265ZM52.4887 38.8114C52.3034 38.8114 52.0278 38.9741 51.7586 39.2497C50.2357 40.8178 49.3831 43.1063 49.0769 46.452C48.8529 48.9049 48.9738 51.0129 49.4476 52.8179C50.7433 50.7599 51.7909 48.5665 52.5741 46.2635C53.5846 43.2916 53.6845 41.066 52.89 39.2594C52.8207 39.1031 52.7143 38.8887 52.5854 38.8307C52.5564 38.8178 52.5242 38.8114 52.4887 38.8114Z" fill="black"/>
<path d="M93.8881 45.1561C93.6061 45.1561 93.3676 44.9402 93.3418 44.6549C93.316 44.36 93.5287 44.0973 93.8236 44.0618L102.742 42.9982C103.605 42.895 103.908 43.2963 104.012 43.5445C104.093 43.7379 104.078 43.9474 103.97 44.1183C103.7 44.5518 103.664 44.6082 93.9204 45.1529C93.9075 45.1545 93.8978 45.1561 93.8881 45.1561Z" fill="black"/>
<path d="M57.8277 10.9093C57.8132 10.9093 57.7972 10.9093 57.7826 10.9077C57.4813 10.8835 57.2556 10.6176 57.2814 10.3162L58.0711 0.636883C58.0953 0.33551 58.3564 0.109889 58.6626 0.135675C58.9639 0.159849 59.1896 0.425761 59.1638 0.727133L58.3741 10.4065C58.3499 10.6917 58.1098 10.9093 57.8277 10.9093Z" fill="black"/>
<path d="M26.399 18.6435C26.2813 18.6435 26.162 18.6048 26.0621 18.5274L19.4609 13.3671C19.2933 13.2349 18.7808 12.8352 18.9146 12.2357C18.9662 12.0101 19.1225 11.836 19.3368 11.7699C19.7816 11.6313 20.1008 11.5298 26.7729 17.6926C26.9888 17.8925 27.0097 18.2261 26.818 18.4501C26.7084 18.5774 26.5537 18.6435 26.399 18.6435Z" fill="black"/>
<path d="M0.547975 45.5946C0.246603 45.5946 0.00164327 45.3512 3.16547e-05 45.0498C-0.00319158 44.7469 0.240147 44.5003 0.543131 44.4971L10.1306 44.4181H10.1355C10.4369 44.4181 10.6818 44.6614 10.6834 44.9628C10.6867 45.2658 10.4417 45.5124 10.1387 45.5156L0.551197 45.5946H0.547975Z" fill="black"/>
<path d="M80.6558 21.3784C80.5124 21.3784 80.3706 21.322 80.2626 21.2124C80.0515 20.9948 80.0563 20.6483 80.2739 20.4372L86.8831 14.0084C87.1006 13.7973 87.4472 13.8022 87.6583 14.0197C87.8694 14.2373 87.8646 14.5838 87.647 14.7949L81.0378 21.2237C80.9314 21.3268 80.7944 21.3784 80.6558 21.3784Z" fill="black"/>
<path d="M88.6076 79.3804C88.4545 79.3804 88.3014 79.316 88.1934 79.1919L82.3255 72.4311C82.1273 72.2023 82.1515 71.8558 82.3803 71.6576C82.6092 71.4593 82.9556 71.4835 83.1539 71.7124L89.0218 78.4731C89.22 78.7019 89.1959 79.0484 88.967 79.2467C88.8639 79.3369 88.7349 79.3804 88.6076 79.3804Z" fill="black"/>
</svg>
