<svg width="433" height="422" viewBox="0 0 433 422" fill="none" xmlns="http://www.w3.org/2000/svg">
<path d="M343.91 114.43C328.06 91.05 314.91 61.81 289.28 47.36C252.83 26.81 217.79 54.75 188.28 74.47C172.78 84.82 156.28 95.6001 137.5 98.6001C110.64 102.9 83.3604 91.01 56.7304 98.29C11.7304 110.59 -0.579622 165.29 14.5504 204.16C35.5504 258.16 82.5504 316.16 91.5504 360.16C100.55 404.16 142.55 435.16 214.55 415.16C286.55 395.16 282.55 349.16 346.55 339.16C410.55 329.16 441.55 283.16 430.55 225.16C425.14 196.61 407.6 175.66 384.79 158.84C368.47 146.84 355.25 131.15 343.91 114.43Z" fill="#0575E6"/>
<g opacity="0.7">
<path d="M343.91 114.43C328.06 91.05 314.91 61.81 289.28 47.36C252.83 26.81 217.79 54.75 188.28 74.47C172.78 84.82 156.28 95.6001 137.5 98.6001C110.64 102.9 83.3604 91.01 56.7304 98.29C11.7304 110.59 -0.579622 165.29 14.5504 204.16C35.5504 258.16 82.5504 316.16 91.5504 360.16C100.55 404.16 142.55 435.16 214.55 415.16C286.55 395.16 282.55 349.16 346.55 339.16C410.55 329.16 441.55 283.16 430.55 225.16C425.14 196.61 407.6 175.66 384.79 158.84C368.47 146.84 355.25 131.15 343.91 114.43Z" fill="white"/>
</g>
<path d="M89.9203 22.92C89.9203 22.92 95.2303 18.73 96.5903 16.04C97.7503 13.75 98.5903 10.51 97.3903 8.03998C97.1265 7.45916 96.7435 6.94031 96.2661 6.51709C95.7888 6.09388 95.2278 5.77576 94.6196 5.58339C94.0114 5.39102 93.3695 5.3287 92.7356 5.40047C92.1018 5.47224 91.4901 5.6765 90.9403 5.99998C87.6703 7.99998 87.3203 15 88.1503 18.3C88.2203 18.59 89.8703 23 89.9203 22.92Z" fill="#0575E6"/>
<path d="M40.85 57.85C41.06 58.05 44.85 60.79 44.85 60.72C44.85 60.65 47 54.3 46.64 51.31C46.34 48.76 45.25 45.59 42.91 44.22C42.3699 43.8775 41.7638 43.6524 41.1311 43.5594C40.4983 43.4663 39.8531 43.5074 39.2373 43.68C38.6214 43.8526 38.0488 44.1528 37.5566 44.5611C37.0643 44.9694 36.6634 45.4767 36.38 46.05C34.78 49.55 38.31 55.52 40.85 57.85Z" fill="#0575E6"/>
<path d="M152.071 29.27C152.071 29.27 132.641 49.33 132.741 74C132.841 98.67 152.461 118.53 152.461 118.53C152.461 118.53 171.891 98.47 171.781 73.83C171.671 49.19 152.071 29.27 152.071 29.27Z" fill="#0575E6"/>
<path d="M124.36 88.73C124.619 88.4519 124.857 88.1543 125.07 87.84C126.48 85.7 127.69 82.58 126.78 80.02C126.587 79.4112 126.268 78.8497 125.844 78.372C125.42 77.8943 124.9 77.511 124.318 77.2471C123.737 76.9831 123.106 76.8443 122.467 76.8396C121.828 76.8349 121.196 76.9646 120.61 77.22C117.97 78.47 116.67 82.7 116.39 86.16C115.39 85.92 114.39 85.73 113.58 85.6C113.23 84.81 112.88 84.02 112.52 83.23C112.16 82.44 111.87 81.58 111.52 80.75C111.05 79.52 110.63 78.23 110.21 76.94C111.75 76.25 116.21 74.16 117.89 72.31C119.57 70.46 121.28 67.51 120.77 64.84C120.673 64.2078 120.443 63.6033 120.096 63.0659C119.749 62.5284 119.293 62.0702 118.757 61.7211C118.221 61.3719 117.617 61.1397 116.986 61.0396C116.354 60.9395 115.708 60.9737 115.09 61.14C111.4 62.23 109.23 68.83 109.16 72.26C109.16 72.37 109.16 73.1 109.29 73.97C108.92 72.69 108.54 71.43 108.21 70.13C107.26 66.44 106.41 62.65 105.54 58.86C105.36 58.07 105.17 57.28 104.98 56.49C106.28 55.92 111.15 53.69 112.9 51.76C114.65 49.83 116.28 46.96 115.77 44.29C115.674 43.6571 115.446 43.0517 115.099 42.5134C114.752 41.9752 114.296 41.5163 113.76 41.1669C113.223 40.8174 112.619 40.5854 111.987 40.486C111.354 40.3866 110.708 40.422 110.09 40.59C106.41 41.68 104.24 48.28 104.16 51.71C104.16 51.84 104.23 52.71 104.32 53.71C103.82 51.65 103.32 49.61 102.71 47.6C101.728 44.1493 100.515 40.7683 99.0803 37.48C99.5403 37.28 105.3 34.79 107.24 32.64C108.96 30.73 110.63 27.83 110.12 25.16C110.021 24.5285 109.791 23.9249 109.443 23.3883C109.096 22.8517 108.64 22.3941 108.104 22.0452C107.569 21.6963 106.966 21.4639 106.334 21.3631C105.703 21.2623 105.058 21.2953 104.44 21.46C100.75 22.56 98.5803 29.15 98.5103 32.59C98.5103 32.83 98.7903 35.97 98.9303 37.09V36.97C97.4402 33.7732 95.6699 30.7146 93.6403 27.83C91.8402 25.248 89.8902 22.7737 87.8003 20.42C85.8903 18.21 84.0003 16.31 82.3103 14.64C81.4003 13.74 80.5403 12.94 79.7303 12.2H79.8103C79.8803 12.2 78.0103 7.91003 77.8703 7.65003C76.1403 4.65003 71.0603 -0.0599682 67.3003 0.760032C66.6776 0.913372 66.0943 1.19633 65.5884 1.59042C65.0825 1.9845 64.6654 2.48087 64.3643 3.0471C64.0633 3.61332 63.8851 4.23668 63.8413 4.87647C63.7975 5.51625 63.8892 6.15808 64.1103 6.76003C64.9503 9.34003 67.8103 11.09 70.2403 11.92C72.6703 12.75 78.1603 12.37 79.5003 12.25C80.3303 13.03 81.2003 13.88 82.1403 14.84C83.7803 16.55 85.6203 18.48 87.4803 20.72C87.9803 21.32 88.4803 21.98 88.9903 22.61C87.9203 21.72 86.4303 20.53 86.2703 20.43C83.3703 18.58 76.6803 16.72 73.7203 19.18C73.2405 19.6027 72.855 20.1216 72.5888 20.7029C72.3226 21.2843 72.1816 21.9151 72.175 22.5544C72.1684 23.1938 72.2963 23.8274 72.5505 24.4141C72.8047 25.0008 73.1794 25.5275 73.6503 25.96C75.5803 27.86 78.9203 28.09 81.4603 27.72C84.0003 27.35 88.8503 24.37 89.8703 23.72C90.9703 25.14 92.0703 26.62 93.1203 28.23C95.0552 31.1186 96.7285 34.1741 98.1203 37.36C98.2003 37.55 98.2603 37.75 98.3303 37.93C97.8803 37.4 95.1803 34.67 94.9603 34.5C92.2803 32.35 85.8403 29.77 82.6303 31.89C82.1055 32.256 81.6638 32.7286 81.334 33.2768C81.0042 33.8251 80.7938 34.4367 80.7164 35.0718C80.639 35.7069 80.6965 36.3512 80.8849 36.9626C81.0734 37.574 81.3887 38.1388 81.8103 38.62C83.5203 40.72 86.8103 41.32 89.3803 41.22C92.3803 41.12 98.1603 38.22 98.3803 38.07C99.6918 41.2845 100.791 44.5816 101.67 47.94C102.33 50.42 102.9 52.94 103.45 55.52C102.85 54.84 100.33 52.31 100.13 52.14C97.4503 49.99 91.0103 47.41 87.7903 49.53C87.2668 49.897 86.8263 50.37 86.4975 50.9182C86.1686 51.4665 85.9587 52.0778 85.8813 52.7124C85.804 53.347 85.861 53.9908 86.0486 54.602C86.2362 55.2132 86.5502 55.7781 86.9703 56.26C88.6903 58.36 91.9703 58.96 94.5503 58.86C97.4303 58.76 103.03 55.97 103.55 55.73C103.8 56.89 104.05 58.05 104.29 59.22C105.08 63.02 105.85 66.84 106.72 70.58C107.03 71.88 107.37 73.15 107.72 74.42C106.78 73.42 105.03 71.67 104.87 71.54C102.19 69.38 95.7403 66.8 92.5303 68.92C92.0055 69.286 91.5638 69.7585 91.234 70.3068C90.9042 70.8551 90.6938 71.4667 90.6164 72.1018C90.539 72.7369 90.5965 73.3812 90.7849 73.9926C90.9734 74.604 91.2887 75.1687 91.7103 75.65C93.4203 77.76 96.7103 78.35 99.2803 78.26C101.85 78.17 106.61 75.92 107.94 75.26C108.53 77.37 109.15 79.45 109.87 81.47C110.2 82.33 110.47 83.23 110.87 84.04L111.42 85.33L110.67 85.26C110.67 85.26 110.67 86.47 110.74 88.42C107.91 86.42 103.83 84.67 101.18 85.89C100.607 86.1735 100.1 86.5743 99.6914 87.0666C99.2831 87.5588 98.9829 88.1315 98.8103 88.7473C98.6377 89.3631 98.5966 90.0084 98.6896 90.6411C98.7827 91.2738 99.0078 91.8799 99.3503 92.42C99.5206 92.7083 99.7182 92.9795 99.9403 93.23C100.443 96.215 101.703 99.021 103.6 101.38C103.74 101.54 105.66 103.32 106.67 104.2C105.67 103.68 104.73 103.2 103.73 102.59C102.29 101.79 100.79 100.9 99.3303 100.04L97.0003 98.55C96.2303 98.08 95.5503 97.55 94.8103 97.03C93.7403 96.26 92.6803 95.42 91.6203 94.57C92.5203 93.15 95.1003 88.94 95.4803 86.48C95.8603 84.02 95.6503 80.6 93.7503 78.66C93.3227 78.1847 92.7999 77.8046 92.2159 77.5445C91.6319 77.2843 90.9996 77.1499 90.3603 77.1499C89.7209 77.1499 89.0887 77.2843 88.5047 77.5445C87.9207 77.8046 87.3979 78.1847 86.9703 78.66C84.5003 81.66 86.3303 88.31 88.1603 91.22C88.2203 91.31 88.6703 91.89 89.1603 92.56C88.1603 91.71 87.1603 90.86 86.1603 89.96C83.3403 87.4 80.5403 84.71 77.7203 82.03L76.0003 80.4C76.7703 79.21 79.6003 74.67 80.0003 72.1C80.4003 69.53 80.1703 66.22 78.2803 64.27C77.8527 63.7947 77.3299 63.4147 76.7459 63.1545C76.1619 62.8943 75.5296 62.7599 74.8903 62.7599C74.2509 62.7599 73.6187 62.8943 73.0347 63.1545C72.4507 63.4147 71.9279 63.7947 71.5003 64.27C69.0303 67.27 70.8603 73.91 72.6903 76.82C72.7503 76.93 73.2903 77.61 73.9003 78.37C72.3503 76.94 70.7903 75.52 69.1903 74.17C66.4673 71.8335 63.5909 69.682 60.5803 67.73C60.8503 67.31 64.2803 62.05 64.7203 59.19C65.1003 56.65 64.8903 53.31 62.9903 51.37C62.5636 50.895 62.0417 50.515 61.4585 50.255C60.8753 49.9949 60.2439 49.8605 59.6053 49.8605C58.9667 49.8605 58.3353 49.9949 57.7521 50.255C57.1689 50.515 56.647 50.895 56.2203 51.37C53.7403 54.37 55.5703 61.02 57.4003 63.93C57.5303 64.13 59.5103 66.6 60.2403 67.45L60.1303 67.38C57.1274 65.5308 53.9647 63.9544 50.6803 62.67C47.7407 61.4972 44.7357 60.4955 41.6803 59.67C38.8603 58.88 36.2403 58.34 33.9203 57.87C32.6503 57.63 31.5003 57.44 30.4103 57.26H30.4803C30.5303 57.26 26.6103 54.67 26.3403 54.54C23.2703 53.01 16.4203 51.87 13.7303 54.62C13.2974 55.0906 12.9684 55.647 12.7645 56.253C12.5606 56.859 12.4864 57.5011 12.5467 58.1376C12.6071 58.7741 12.8006 59.3908 13.1148 59.9477C13.4289 60.5046 13.8567 60.9892 14.3703 61.37C16.5003 63.06 19.8403 62.94 22.3703 62.3C24.9003 61.66 29.2203 58.3 30.2703 57.46C31.3903 57.66 32.5903 57.89 33.9103 58.17C36.2203 58.68 38.8203 59.28 41.6003 60.17C42.3503 60.4 43.1403 60.67 43.9103 60.91C42.5203 60.77 40.6203 60.59 40.4303 60.59C37.0003 60.66 30.4303 62.79 29.2803 66.48C29.1106 67.0962 29.0729 67.7413 29.1697 68.3731C29.2666 69.0049 29.4957 69.6091 29.8421 70.1462C30.1885 70.6833 30.6445 71.1413 31.1801 71.49C31.7157 71.8388 32.3189 72.0705 32.9503 72.17C35.6203 72.69 38.5303 71.04 40.4403 69.33C42.3503 67.62 44.7503 62.46 45.2503 61.33C46.9503 61.9 48.6803 62.53 50.4403 63.33C53.6542 64.6708 56.743 66.2938 59.6703 68.18C59.8403 68.29 60.0003 68.43 60.1703 68.54C59.5003 68.35 55.7403 67.54 55.4703 67.54C52.0503 67.22 45.2503 68.62 43.7403 72.16C43.5034 72.7524 43.394 73.3881 43.4193 74.0256C43.4446 74.6632 43.604 75.2882 43.887 75.86C44.1701 76.4318 44.5705 76.9375 45.0621 77.3441C45.5537 77.7508 46.1256 78.0492 46.7403 78.22C49.3403 79.03 52.4103 77.71 54.5003 76.22C56.9103 74.5 60.1403 68.83 60.2603 68.62C63.1271 70.5795 65.8629 72.7241 68.4503 75.04C70.3703 76.75 72.2503 78.55 74.1203 80.38C73.2403 80.15 69.7503 79.38 69.4903 79.38C66.0703 79.06 59.2703 80.46 57.7603 84C57.525 84.5933 57.4168 85.2293 57.4427 85.867C57.4687 86.5046 57.6282 87.1298 57.911 87.7019C58.1938 88.274 58.5935 88.7805 59.0843 89.1884C59.5751 89.5963 60.1461 89.8967 60.7603 90.07C63.3603 90.88 66.4303 89.56 68.5203 88.07C70.8703 86.39 73.9903 80.98 74.2603 80.52L76.8003 83.02C79.5503 85.76 82.3003 88.52 85.1003 91.16C86.1003 92.07 87.1003 92.94 88.0403 93.81C86.7103 93.51 84.2803 93 84.0403 92.98C80.6103 92.67 73.8203 94.07 72.3003 97.61C72.065 98.2026 71.9569 98.8379 71.9829 99.475C72.009 100.112 72.1686 100.736 72.4515 101.308C72.7343 101.879 73.1341 102.385 73.6249 102.792C74.1156 103.199 74.6864 103.498 75.3003 103.67C77.8903 104.48 80.9703 103.16 83.0603 101.67C85.1503 100.18 87.8803 95.67 88.6303 94.4C90.2803 95.83 91.9503 97.22 93.6303 98.51C94.3803 99.05 95.1103 99.65 95.8603 100.13L98.0703 101.61C99.6103 102.61 101.07 103.46 102.51 104.31C103.24 104.75 103.94 105.14 104.66 105.56C103.36 105.05 101.29 104.28 101.09 104.23C97.7603 103.4 90.8203 103.75 88.7903 107.02C88.468 107.572 88.2658 108.186 88.1968 108.822C88.1278 109.458 88.1936 110.101 88.3898 110.71C88.5861 111.318 88.9084 111.879 89.3358 112.354C89.7632 112.83 90.2861 113.21 90.8703 113.47C93.3103 114.67 96.5503 113.83 98.8703 112.67C101.39 111.39 105.19 106.67 105.65 106.11C107.42 107.11 109.15 108.11 110.78 108.95C115.14 111.29 118.95 113.15 121.9 114.53C131.5 122.83 145.01 123.75 145.01 123.75C145.01 123.75 145.72 107.57 136.2 96.92C132.897 93.3606 128.856 90.5655 124.36 88.73ZM107.23 104.5C107.53 103.84 109.83 98.7 109.99 95.8C110.52 95.7 111.06 95.59 111.58 95.47C112.565 100.586 114.609 105.44 117.58 109.72C115.83 108.89 113.94 107.97 111.94 106.95C110.4 106.19 108.83 105.37 107.23 104.5Z" fill="#0575E6"/>
<path d="M195.151 85.63C195.151 85.63 178.961 86.13 169.051 96.42C159.141 106.71 159.271 122.91 159.271 122.91C159.271 122.91 175.461 122.41 185.361 112.12C195.261 101.83 195.151 85.63 195.151 85.63Z" fill="#0575E6"/>
<g opacity="0.5">
<path d="M89.9203 22.92C89.9203 22.92 95.2303 18.73 96.5903 16.04C97.7503 13.75 98.5903 10.51 97.3903 8.03998C97.1265 7.45916 96.7435 6.94031 96.2661 6.51709C95.7888 6.09388 95.2278 5.77576 94.6196 5.58339C94.0114 5.39102 93.3695 5.3287 92.7356 5.40047C92.1018 5.47224 91.4901 5.6765 90.9403 5.99998C87.6703 7.99998 87.3203 15 88.1503 18.3C88.2203 18.59 89.8703 23 89.9203 22.92Z" fill="white"/>
<path d="M40.85 57.85C41.06 58.05 44.85 60.79 44.85 60.72C44.85 60.65 47 54.3 46.64 51.31C46.34 48.76 45.25 45.59 42.91 44.22C42.3699 43.8775 41.7638 43.6524 41.1311 43.5594C40.4983 43.4663 39.8531 43.5074 39.2373 43.68C38.6214 43.8526 38.0488 44.1528 37.5566 44.5611C37.0643 44.9694 36.6634 45.4767 36.38 46.05C34.78 49.55 38.31 55.52 40.85 57.85Z" fill="white"/>
<path d="M152.071 29.27C152.071 29.27 132.641 49.33 132.741 74C132.841 98.67 152.461 118.53 152.461 118.53C152.461 118.53 171.891 98.47 171.781 73.83C171.671 49.19 152.071 29.27 152.071 29.27Z" fill="white"/>
<path d="M124.36 88.73C124.619 88.4519 124.857 88.1543 125.07 87.84C126.48 85.7 127.69 82.58 126.78 80.02C126.587 79.4112 126.268 78.8497 125.844 78.372C125.42 77.8943 124.9 77.511 124.318 77.2471C123.737 76.9831 123.106 76.8443 122.467 76.8396C121.828 76.8349 121.196 76.9646 120.61 77.22C117.97 78.47 116.67 82.7 116.39 86.16C115.39 85.92 114.39 85.73 113.58 85.6C113.23 84.81 112.88 84.02 112.52 83.23C112.16 82.44 111.87 81.58 111.52 80.75C111.05 79.52 110.63 78.23 110.21 76.94C111.75 76.25 116.21 74.16 117.89 72.31C119.57 70.46 121.28 67.51 120.77 64.84C120.673 64.2078 120.443 63.6033 120.096 63.0659C119.749 62.5284 119.293 62.0702 118.757 61.7211C118.221 61.3719 117.617 61.1397 116.986 61.0396C116.354 60.9395 115.708 60.9737 115.09 61.14C111.4 62.23 109.23 68.83 109.16 72.26C109.16 72.37 109.16 73.1 109.29 73.97C108.92 72.69 108.54 71.43 108.21 70.13C107.26 66.44 106.41 62.65 105.54 58.86C105.36 58.07 105.17 57.28 104.98 56.49C106.28 55.92 111.15 53.69 112.9 51.76C114.65 49.83 116.28 46.96 115.77 44.29C115.674 43.6571 115.446 43.0517 115.099 42.5134C114.752 41.9752 114.296 41.5163 113.76 41.1669C113.223 40.8174 112.619 40.5854 111.987 40.486C111.354 40.3866 110.708 40.422 110.09 40.59C106.41 41.68 104.24 48.28 104.16 51.71C104.16 51.84 104.23 52.71 104.32 53.71C103.82 51.65 103.32 49.61 102.71 47.6C101.728 44.1493 100.515 40.7683 99.0803 37.48C99.5403 37.28 105.3 34.79 107.24 32.64C108.96 30.73 110.63 27.83 110.12 25.16C110.021 24.5285 109.791 23.9249 109.443 23.3883C109.096 22.8517 108.64 22.3941 108.104 22.0452C107.569 21.6963 106.966 21.4639 106.334 21.3631C105.703 21.2623 105.058 21.2953 104.44 21.46C100.75 22.56 98.5803 29.15 98.5103 32.59C98.5103 32.83 98.7903 35.97 98.9303 37.09V36.97C97.4402 33.7732 95.6699 30.7146 93.6403 27.83C91.8402 25.248 89.8902 22.7737 87.8003 20.42C85.8903 18.21 84.0003 16.31 82.3103 14.64C81.4003 13.74 80.5403 12.94 79.7303 12.2H79.8103C79.8803 12.2 78.0103 7.91003 77.8703 7.65003C76.1403 4.65003 71.0603 -0.0599682 67.3003 0.760032C66.6776 0.913372 66.0943 1.19633 65.5884 1.59042C65.0825 1.9845 64.6654 2.48087 64.3643 3.0471C64.0633 3.61332 63.8851 4.23668 63.8413 4.87647C63.7975 5.51625 63.8892 6.15808 64.1103 6.76003C64.9503 9.34003 67.8103 11.09 70.2403 11.92C72.6703 12.75 78.1603 12.37 79.5003 12.25C80.3303 13.03 81.2003 13.88 82.1403 14.84C83.7803 16.55 85.6203 18.48 87.4803 20.72C87.9803 21.32 88.4803 21.98 88.9903 22.61C87.9203 21.72 86.4303 20.53 86.2703 20.43C83.3703 18.58 76.6803 16.72 73.7203 19.18C73.2405 19.6027 72.855 20.1216 72.5888 20.7029C72.3226 21.2843 72.1816 21.9151 72.175 22.5544C72.1684 23.1938 72.2963 23.8274 72.5505 24.4141C72.8047 25.0008 73.1794 25.5275 73.6503 25.96C75.5803 27.86 78.9203 28.09 81.4603 27.72C84.0003 27.35 88.8503 24.37 89.8703 23.72C90.9703 25.14 92.0703 26.62 93.1203 28.23C95.0552 31.1186 96.7285 34.1741 98.1203 37.36C98.2003 37.55 98.2603 37.75 98.3303 37.93C97.8803 37.4 95.1803 34.67 94.9603 34.5C92.2803 32.35 85.8403 29.77 82.6303 31.89C82.1055 32.256 81.6638 32.7286 81.334 33.2768C81.0042 33.8251 80.7938 34.4367 80.7164 35.0718C80.639 35.7069 80.6965 36.3512 80.8849 36.9626C81.0734 37.574 81.3887 38.1388 81.8103 38.62C83.5203 40.72 86.8103 41.32 89.3803 41.22C92.3803 41.12 98.1603 38.22 98.3803 38.07C99.6918 41.2845 100.791 44.5816 101.67 47.94C102.33 50.42 102.9 52.94 103.45 55.52C102.85 54.84 100.33 52.31 100.13 52.14C97.4503 49.99 91.0103 47.41 87.7903 49.53C87.2668 49.897 86.8263 50.37 86.4975 50.9182C86.1686 51.4665 85.9587 52.0778 85.8813 52.7124C85.804 53.347 85.861 53.9908 86.0486 54.602C86.2362 55.2132 86.5502 55.7781 86.9703 56.26C88.6903 58.36 91.9703 58.96 94.5503 58.86C97.4303 58.76 103.03 55.97 103.55 55.73C103.8 56.89 104.05 58.05 104.29 59.22C105.08 63.02 105.85 66.84 106.72 70.58C107.03 71.88 107.37 73.15 107.72 74.42C106.78 73.42 105.03 71.67 104.87 71.54C102.19 69.38 95.7403 66.8 92.5303 68.92C92.0055 69.286 91.5638 69.7585 91.234 70.3068C90.9042 70.8551 90.6938 71.4667 90.6164 72.1018C90.539 72.7369 90.5965 73.3812 90.7849 73.9926C90.9734 74.604 91.2887 75.1687 91.7103 75.65C93.4203 77.76 96.7103 78.35 99.2803 78.26C101.85 78.17 106.61 75.92 107.94 75.26C108.53 77.37 109.15 79.45 109.87 81.47C110.2 82.33 110.47 83.23 110.87 84.04L111.42 85.33L110.67 85.26C110.67 85.26 110.67 86.47 110.74 88.42C107.91 86.42 103.83 84.67 101.18 85.89C100.607 86.1735 100.1 86.5743 99.6914 87.0666C99.2831 87.5588 98.9829 88.1315 98.8103 88.7473C98.6377 89.3631 98.5966 90.0084 98.6896 90.6411C98.7827 91.2738 99.0078 91.8799 99.3503 92.42C99.5206 92.7083 99.7182 92.9795 99.9403 93.23C100.443 96.215 101.703 99.021 103.6 101.38C103.74 101.54 105.66 103.32 106.67 104.2C105.67 103.68 104.73 103.2 103.73 102.59C102.29 101.79 100.79 100.9 99.3303 100.04L97.0003 98.55C96.2303 98.08 95.5503 97.55 94.8103 97.03C93.7403 96.26 92.6803 95.42 91.6203 94.57C92.5203 93.15 95.1003 88.94 95.4803 86.48C95.8603 84.02 95.6503 80.6 93.7503 78.66C93.3227 78.1847 92.7999 77.8046 92.2159 77.5445C91.6319 77.2843 90.9996 77.1499 90.3603 77.1499C89.7209 77.1499 89.0887 77.2843 88.5047 77.5445C87.9207 77.8046 87.3979 78.1847 86.9703 78.66C84.5003 81.66 86.3303 88.31 88.1603 91.22C88.2203 91.31 88.6703 91.89 89.1603 92.56C88.1603 91.71 87.1603 90.86 86.1603 89.96C83.3403 87.4 80.5403 84.71 77.7203 82.03L76.0003 80.4C76.7703 79.21 79.6003 74.67 80.0003 72.1C80.4003 69.53 80.1703 66.22 78.2803 64.27C77.8527 63.7947 77.3299 63.4147 76.7459 63.1545C76.1619 62.8943 75.5296 62.7599 74.8903 62.7599C74.2509 62.7599 73.6187 62.8943 73.0347 63.1545C72.4507 63.4147 71.9279 63.7947 71.5003 64.27C69.0303 67.27 70.8603 73.91 72.6903 76.82C72.7503 76.93 73.2903 77.61 73.9003 78.37C72.3503 76.94 70.7903 75.52 69.1903 74.17C66.4673 71.8335 63.5909 69.682 60.5803 67.73C60.8503 67.31 64.2803 62.05 64.7203 59.19C65.1003 56.65 64.8903 53.31 62.9903 51.37C62.5636 50.895 62.0417 50.515 61.4585 50.255C60.8753 49.9949 60.2439 49.8605 59.6053 49.8605C58.9667 49.8605 58.3353 49.9949 57.7521 50.255C57.1689 50.515 56.647 50.895 56.2203 51.37C53.7403 54.37 55.5703 61.02 57.4003 63.93C57.5303 64.13 59.5103 66.6 60.2403 67.45L60.1303 67.38C57.1274 65.5308 53.9647 63.9544 50.6803 62.67C47.7407 61.4972 44.7357 60.4955 41.6803 59.67C38.8603 58.88 36.2403 58.34 33.9203 57.87C32.6503 57.63 31.5003 57.44 30.4103 57.26H30.4803C30.5303 57.26 26.6103 54.67 26.3403 54.54C23.2703 53.01 16.4203 51.87 13.7303 54.62C13.2974 55.0906 12.9684 55.647 12.7645 56.253C12.5606 56.859 12.4864 57.5011 12.5467 58.1376C12.6071 58.7741 12.8006 59.3908 13.1148 59.9477C13.4289 60.5046 13.8567 60.9892 14.3703 61.37C16.5003 63.06 19.8403 62.94 22.3703 62.3C24.9003 61.66 29.2203 58.3 30.2703 57.46C31.3903 57.66 32.5903 57.89 33.9103 58.17C36.2203 58.68 38.8203 59.28 41.6003 60.17C42.3503 60.4 43.1403 60.67 43.9103 60.91C42.5203 60.77 40.6203 60.59 40.4303 60.59C37.0003 60.66 30.4303 62.79 29.2803 66.48C29.1106 67.0962 29.0729 67.7413 29.1697 68.3731C29.2666 69.0049 29.4957 69.6091 29.8421 70.1462C30.1885 70.6833 30.6445 71.1413 31.1801 71.49C31.7157 71.8388 32.3189 72.0705 32.9503 72.17C35.6203 72.69 38.5303 71.04 40.4403 69.33C42.3503 67.62 44.7503 62.46 45.2503 61.33C46.9503 61.9 48.6803 62.53 50.4403 63.33C53.6542 64.6708 56.743 66.2938 59.6703 68.18C59.8403 68.29 60.0003 68.43 60.1703 68.54C59.5003 68.35 55.7403 67.54 55.4703 67.54C52.0503 67.22 45.2503 68.62 43.7403 72.16C43.5034 72.7524 43.394 73.3881 43.4193 74.0256C43.4446 74.6632 43.604 75.2882 43.887 75.86C44.1701 76.4318 44.5705 76.9375 45.0621 77.3441C45.5537 77.7508 46.1256 78.0492 46.7403 78.22C49.3403 79.03 52.4103 77.71 54.5003 76.22C56.9103 74.5 60.1403 68.83 60.2603 68.62C63.1271 70.5795 65.8629 72.7241 68.4503 75.04C70.3703 76.75 72.2503 78.55 74.1203 80.38C73.2403 80.15 69.7503 79.38 69.4903 79.38C66.0703 79.06 59.2703 80.46 57.7603 84C57.525 84.5933 57.4168 85.2293 57.4427 85.867C57.4687 86.5046 57.6282 87.1298 57.911 87.7019C58.1938 88.274 58.5935 88.7805 59.0843 89.1884C59.5751 89.5963 60.1461 89.8967 60.7603 90.07C63.3603 90.88 66.4303 89.56 68.5203 88.07C70.8703 86.39 73.9903 80.98 74.2603 80.52L76.8003 83.02C79.5503 85.76 82.3003 88.52 85.1003 91.16C86.1003 92.07 87.1003 92.94 88.0403 93.81C86.7103 93.51 84.2803 93 84.0403 92.98C80.6103 92.67 73.8203 94.07 72.3003 97.61C72.065 98.2026 71.9569 98.8379 71.9829 99.475C72.009 100.112 72.1686 100.736 72.4515 101.308C72.7343 101.879 73.1341 102.385 73.6249 102.792C74.1156 103.199 74.6864 103.498 75.3003 103.67C77.8903 104.48 80.9703 103.16 83.0603 101.67C85.1503 100.18 87.8803 95.67 88.6303 94.4C90.2803 95.83 91.9503 97.22 93.6303 98.51C94.3803 99.05 95.1103 99.65 95.8603 100.13L98.0703 101.61C99.6103 102.61 101.07 103.46 102.51 104.31C103.24 104.75 103.94 105.14 104.66 105.56C103.36 105.05 101.29 104.28 101.09 104.23C97.7603 103.4 90.8203 103.75 88.7903 107.02C88.468 107.572 88.2658 108.186 88.1968 108.822C88.1278 109.458 88.1936 110.101 88.3898 110.71C88.5861 111.318 88.9084 111.879 89.3358 112.354C89.7632 112.83 90.2861 113.21 90.8703 113.47C93.3103 114.67 96.5503 113.83 98.8703 112.67C101.39 111.39 105.19 106.67 105.65 106.11C107.42 107.11 109.15 108.11 110.78 108.95C115.14 111.29 118.95 113.15 121.9 114.53C131.5 122.83 145.01 123.75 145.01 123.75C145.01 123.75 145.72 107.57 136.2 96.92C132.897 93.3606 128.856 90.5655 124.36 88.73ZM107.23 104.5C107.53 103.84 109.83 98.7 109.99 95.8C110.52 95.7 111.06 95.59 111.58 95.47C112.565 100.586 114.609 105.44 117.58 109.72C115.83 108.89 113.94 107.97 111.94 106.95C110.4 106.19 108.83 105.37 107.23 104.5Z" fill="white"/>
<path d="M195.151 85.63C195.151 85.63 178.961 86.13 169.051 96.42C159.141 106.71 159.271 122.91 159.271 122.91C159.271 122.91 175.461 122.41 185.361 112.12C195.261 101.83 195.151 85.63 195.151 85.63Z" fill="white"/>
</g>
<path d="M152.87 96.06L168.77 81.77L168.09 81.01L152.86 94.7L152.78 75.96L152.87 76.02L166.31 56.36L165.47 55.78L152.78 74.34L152.58 29.27H151.56L151.69 59.87L141.57 51.11L140.91 51.88L151.7 61.22L151.79 83.1L136.45 69.52L135.78 70.29L151.8 84.46L151.88 104.38L140.35 95.33L139.73 96.14L151.89 105.68L151.95 118.5H152.97L152.87 96.06Z" fill="white"/>
<path d="M138.22 101.58L137.21 101.46L135.93 112.78L129.1 105.15H129.12L127.38 91.45L126.37 91.58L127.92 103.83L110.95 84.86L110.19 85.54L121.71 98.41L114.42 98.5L114.43 99.52L122.61 99.42L130.68 108.45L119.28 108.46V109.48L131.59 109.47L138.93 117.67L130.89 118.16L130.96 119.17L139.8 118.64L144.69 124.11L145.45 123.43L136.84 113.8L138.22 101.58Z" fill="white"/>
<path d="M176.64 105.61L190.18 102.87L189.97 101.87L177.87 104.32L195.51 85.99L194.78 85.28L182.81 97.72L182.17 90.46L181.16 90.55L181.87 98.7L173.47 107.42L172.61 96.05L171.59 96.13L172.52 108.41L164.89 116.34L163.81 108.36L162.79 108.49L163.99 117.28L158.9 122.56L159.63 123.26L168.59 113.96L180.88 114.43L180.92 113.41L169.54 112.98L176.64 105.6V105.61Z" fill="white"/>
<path d="M201.9 394.74L82.8 177.31L0.51001 205.16L27.2 257.06L25.51 254.16L20.51 255.82C20.0122 255.987 19.5563 256.259 19.1736 256.618C18.7909 256.978 18.4905 257.416 18.2929 257.902C18.0953 258.388 18.0053 258.912 18.0289 259.436C18.0526 259.96 18.1894 260.473 18.43 260.94L31.59 286.53C32.4288 288.166 33.7668 289.493 35.41 290.318C37.0533 291.144 38.9166 291.424 40.73 291.12L44.38 290.51L108.48 415.16L201.9 394.74Z" fill="#2E353A"/>
<path d="M278.84 83.4301C277.56 84.1295 276.055 84.2928 274.654 83.8841C273.254 83.4755 272.073 82.5282 271.37 81.2501L268.32 75.6801L82.8 177.31L201.9 394.74L387.43 293.12L322.59 174.75C321.891 173.471 321.728 171.968 322.137 170.569C322.545 169.17 323.493 167.991 324.77 167.29C325.404 166.943 325.963 166.474 326.416 165.911C326.868 165.348 327.206 164.701 327.408 164.007C327.611 163.313 327.674 162.586 327.596 161.868C327.517 161.149 327.298 160.454 326.95 159.82L286.3 85.6101C285.599 84.3326 284.42 83.3855 283.021 82.9768C281.622 82.568 280.119 82.7311 278.84 83.4301Z" fill="#0575E6" stroke="#2E353A" stroke-linecap="round" stroke-linejoin="round"/>
<path d="M288.069 91.4524L137.396 145.164L209.337 346.975L360.009 293.263L288.069 91.4524Z" fill="white" stroke="#2E353A" stroke-linecap="round" stroke-linejoin="round"/>
<path d="M288.077 91.4598L137.405 145.171L163.908 219.519L314.58 165.807L288.077 91.4598Z" fill="white" stroke="#2E353A" stroke-linecap="round" stroke-linejoin="round"/>
<path d="M276.414 167.841C287.665 160.699 290.996 145.788 283.853 134.537C276.71 123.286 261.799 119.956 250.548 127.099C239.298 134.241 235.967 149.152 243.11 160.403C250.253 171.654 265.164 174.984 276.414 167.841Z" fill="#2E353A" stroke="#2E353A" stroke-linecap="round" stroke-linejoin="round"/>
<path d="M271.58 170.23C274.925 169.041 277.966 167.128 280.485 164.626C283.004 162.124 284.939 159.097 286.15 155.76C281.96 146.38 271.72 141.49 262.5 144.76C253.28 148.03 248.45 158.32 251.14 168.23C254.189 170.049 257.603 171.172 261.137 171.517C264.67 171.863 268.236 171.424 271.58 170.23Z" fill="white" stroke="#2E353A" stroke-linecap="round" stroke-linejoin="round"/>
<path d="M269.964 152.154C275.026 147.682 275.504 139.953 271.032 134.891C266.56 129.83 258.831 129.351 253.769 133.823C248.707 138.296 248.229 146.024 252.701 151.086C257.173 156.148 264.902 156.626 269.964 152.154Z" fill="white" stroke="#2E353A" stroke-linecap="round" stroke-linejoin="round"/>
<path d="M212.816 148.113L160.086 166.91L162.245 172.967L214.975 154.17L212.816 148.113Z" fill="white" stroke="#2E353A" stroke-linecap="round" stroke-linejoin="round"/>
<path d="M218.01 162.666L165.281 181.463L167.44 187.519L220.169 168.722L218.01 162.666Z" fill="white" stroke="#2E353A" stroke-linecap="round" stroke-linejoin="round"/>
<path d="M222.321 174.778L169.591 193.575L170.672 196.608L223.402 177.811L222.321 174.778Z" fill="#2E353A"/>
<path d="M224.915 182.055L172.185 200.852L173.266 203.885L225.996 185.088L224.915 182.055Z" fill="#2E353A"/>
<path d="M238.094 219.027L185.364 237.824L186.446 240.857L239.175 222.06L238.094 219.027Z" fill="#2E353A"/>
<path d="M240.465 225.7L187.736 244.497L188.817 247.53L241.547 228.733L240.465 225.7Z" fill="#2E353A"/>
<path d="M242.847 232.364L190.117 251.161L191.199 254.194L243.928 235.397L242.847 232.364Z" fill="#2E353A"/>
<path d="M309.612 193.528L256.882 212.325L257.963 215.358L310.693 196.561L309.612 193.528Z" fill="#2E353A"/>
<path d="M311.994 200.202L259.264 218.999L260.345 222.032L313.075 203.235L311.994 200.202Z" fill="#2E353A"/>
<path d="M314.366 206.869L261.636 225.666L262.717 228.699L315.447 209.902L314.366 206.869Z" fill="#2E353A"/>
<path d="M181.98 232.22L309.27 186.86" stroke="#2E353A" stroke-linecap="round" stroke-linejoin="round"/>
<path d="M250.41 253.574L197.68 272.371L198.761 275.404L251.491 256.607L250.41 253.574Z" fill="#2E353A"/>
<path d="M252.782 260.251L200.052 279.048L201.133 282.081L253.863 263.284L252.782 260.251Z" fill="#2E353A"/>
<path d="M255.164 266.914L202.434 285.711L203.515 288.744L256.245 269.947L255.164 266.914Z" fill="#2E353A"/>
<path d="M321.928 228.079L269.198 246.876L270.28 249.909L323.009 231.112L321.928 228.079Z" fill="#2E353A"/>
<path d="M324.31 234.752L271.58 253.549L272.662 256.582L325.391 237.785L324.31 234.752Z" fill="#2E353A"/>
<path d="M326.682 241.419L273.952 260.216L275.034 263.249L327.763 244.452L326.682 241.419Z" fill="#2E353A"/>
<path d="M194.29 266.77L321.58 221.41" stroke="#2E353A" stroke-linecap="round" stroke-linejoin="round"/>
<path d="M331.433 254.742L206.57 299.253L217.372 329.556L342.235 285.045L331.433 254.742Z" fill="#2E353A" stroke="#2E353A" stroke-linecap="round" stroke-linejoin="round"/>
<path d="M268.347 103.943L121.333 166.984L205.77 363.894L352.784 300.853L268.347 103.943Z" fill="white" stroke="#2E353A" stroke-linecap="round" stroke-linejoin="round"/>
<path d="M268.354 103.946L121.34 166.987L152.447 239.529L299.461 176.488L268.354 103.946Z" fill="white" stroke="#2E353A" stroke-linecap="round" stroke-linejoin="round"/>
<path d="M267.711 174.293C274.824 163.023 271.455 148.121 260.185 141.008C248.916 133.895 234.014 137.264 226.9 148.533C219.787 159.803 223.156 174.705 234.426 181.818C245.695 188.931 260.598 185.562 267.711 174.293Z" fill="#2E353A" stroke="#2E353A" stroke-linecap="round" stroke-linejoin="round"/>
<path d="M256.82 183.6C260.084 182.203 262.998 180.101 265.355 177.446C267.711 174.79 269.451 171.647 270.45 168.24C265.69 159.15 255.16 154.9 246.17 158.76C237.18 162.62 233 173.17 236.3 182.89C239.457 184.512 242.934 185.417 246.481 185.54C250.028 185.662 253.559 185 256.82 183.6Z" fill="white" stroke="#2E353A" stroke-linecap="round" stroke-linejoin="round"/>
<path d="M253.756 165.938C258.695 161.331 258.964 153.592 254.357 148.653C249.749 143.714 242.01 143.445 237.071 148.052C232.132 152.66 231.863 160.399 236.471 165.338C241.078 170.277 248.817 170.546 253.756 165.938Z" fill="white" stroke="#2E353A" stroke-linecap="round" stroke-linejoin="round"/>
<path d="M196.785 165.212L145.336 187.274L147.87 193.184L199.319 171.122L196.785 165.212Z" fill="white" stroke="#2E353A" stroke-linecap="round" stroke-linejoin="round"/>
<path d="M202.874 179.404L151.425 201.466L153.959 207.375L205.408 185.313L202.874 179.404Z" fill="white" stroke="#2E353A" stroke-linecap="round" stroke-linejoin="round"/>
<path d="M207.949 191.226L156.499 213.288L157.768 216.247L209.218 194.185L207.949 191.226Z" fill="#2E353A"/>
<path d="M210.991 198.323L159.541 220.385L160.81 223.345L212.26 201.283L210.991 198.323Z" fill="#2E353A"/>
<path d="M226.464 234.397L175.015 256.459L176.284 259.418L227.733 237.357L226.464 234.397Z" fill="#2E353A"/>
<path d="M229.254 240.901L177.805 262.963L179.074 265.922L230.523 243.86L229.254 240.901Z" fill="#2E353A"/>
<path d="M232.035 247.418L180.585 269.48L181.854 272.44L233.304 250.378L232.035 247.418Z" fill="#2E353A"/>
<path d="M296.239 204.487L244.789 226.549L246.058 229.509L297.508 207.447L296.239 204.487Z" fill="#2E353A"/>
<path d="M299.025 210.982L247.576 233.044L248.845 236.003L300.294 213.941L299.025 210.982Z" fill="#2E353A"/>
<path d="M301.825 217.496L250.375 239.557L251.644 242.517L303.094 220.455L301.825 217.496Z" fill="#2E353A"/>
<path d="M171.28 251.08L295.48 197.83" stroke="#2E353A" stroke-linecap="round" stroke-linejoin="round"/>
<path d="M240.913 268.113L189.464 290.175L190.733 293.135L242.182 271.073L240.913 268.113Z" fill="#2E353A"/>
<path d="M243.709 274.608L192.26 296.67L193.529 299.629L244.978 277.567L243.709 274.608Z" fill="#2E353A"/>
<path d="M246.5 281.121L195.05 303.183L196.319 306.143L247.769 284.081L246.5 281.121Z" fill="#2E353A"/>
<path d="M310.704 238.191L259.254 260.252L260.523 263.212L311.973 241.15L310.704 238.191Z" fill="#2E353A"/>
<path d="M313.49 244.685L262.04 266.747L263.309 269.706L314.759 247.644L313.49 244.685Z" fill="#2E353A"/>
<path d="M316.271 251.202L264.822 273.264L266.091 276.224L317.54 254.162L316.271 251.202Z" fill="#2E353A"/>
<path d="M185.73 284.79L309.93 231.54" stroke="#2E353A" stroke-linecap="round" stroke-linejoin="round"/>
<path d="M321.855 264.203L200.024 316.445L212.702 346.011L334.533 293.769L321.855 264.203Z" fill="#2E353A" stroke="#2E353A" stroke-linecap="round" stroke-linejoin="round"/>
<path d="M234.729 102.64L100.56 189.737L217.217 369.443L351.386 282.346L234.729 102.64Z" fill="white" stroke="#2E353A" stroke-linecap="round" stroke-linejoin="round"/>
<path d="M234.734 102.649L100.565 189.746L143.541 255.95L277.71 168.853L234.734 102.649Z" fill="white" stroke="#2E353A" stroke-linecap="round" stroke-linejoin="round"/>
<path d="M227.614 186.644C240.768 184.506 249.699 172.11 247.561 158.956C245.424 145.802 233.028 136.871 219.873 139.009C206.719 141.146 197.789 153.543 199.926 166.697C202.064 179.851 214.46 188.781 227.614 186.644Z" fill="#2E353A" stroke="#2E353A" stroke-linecap="round" stroke-linejoin="round"/>
<path d="M236.9 183C239.879 181.069 242.395 178.504 244.267 175.487C246.14 172.47 247.322 169.077 247.73 165.55C241.49 157.39 230.39 155.01 222.19 160.33C213.99 165.65 211.65 176.77 216.56 185.79C219.946 186.854 223.526 187.156 227.042 186.673C230.559 186.191 233.925 184.937 236.9 183Z" fill="#0575E6" stroke="#2E353A" stroke-linecap="round" stroke-linejoin="round"/>
<path d="M229.069 168.081C234.21 163.7 234.827 155.981 230.447 150.84C226.067 145.699 218.348 145.082 213.206 149.462C208.065 153.842 207.448 161.561 211.828 166.703C216.208 171.844 223.927 172.461 229.069 168.081Z" fill="white" stroke="#2E353A" stroke-linecap="round" stroke-linejoin="round"/>
<path d="M174.609 175.173L127.655 205.654L131.156 211.047L178.11 180.567L174.609 175.173Z" fill="white" stroke="#2E353A" stroke-linecap="round" stroke-linejoin="round"/>
<path d="M183.014 188.126L136.06 218.607L139.561 224L186.515 193.519L183.014 188.126Z" fill="white" stroke="#2E353A" stroke-linecap="round" stroke-linejoin="round"/>
<path d="M189.181 200.249L142.157 230.478L143.896 233.183L190.919 202.953L189.181 200.249Z" fill="#2E353A"/>
<path d="M194.232 205.39L147.278 235.871L149.031 238.571L195.985 208.091L194.232 205.39Z" fill="#2E353A"/>
<path d="M215.61 238.311L168.656 268.792L170.409 271.492L217.363 241.012L215.61 238.311Z" fill="#2E353A"/>
<path d="M219.463 244.257L172.509 274.737L174.262 277.438L221.216 246.957L219.463 244.257Z" fill="#2E353A"/>
<path d="M223.317 250.203L176.363 280.683L178.116 283.384L225.07 252.903L223.317 250.203Z" fill="#2E353A"/>
<path d="M279.297 196.965L232.343 227.445L234.096 230.146L281.05 199.665L279.297 196.965Z" fill="#2E353A"/>
<path d="M283.159 202.905L236.205 233.386L237.959 236.087L284.913 205.606L283.159 202.905Z" fill="#2E353A"/>
<path d="M287.013 208.851L240.059 239.332L241.812 242.032L288.766 211.552L287.013 208.851Z" fill="#2E353A"/>
<path d="M164.08 264.08L277.42 190.49" stroke="#2E353A" stroke-linecap="round" stroke-linejoin="round"/>
<path d="M235.584 269.086L188.629 299.567L190.383 302.267L237.337 271.787L235.584 269.086Z" fill="#2E353A"/>
<path d="M239.432 275.024L192.478 305.504L194.231 308.205L241.185 277.725L239.432 275.024Z" fill="#2E353A"/>
<path d="M243.293 280.954L196.339 311.435L198.092 314.136L245.046 283.655L243.293 280.954Z" fill="#2E353A"/>
<path d="M299.272 227.74L252.318 258.22L254.071 260.921L301.025 230.441L299.272 227.74Z" fill="#2E353A"/>
<path d="M303.128 233.672L256.174 264.153L257.927 266.853L304.881 236.373L303.128 233.672Z" fill="#2E353A"/>
<path d="M306.971 239.618L260.017 270.099L261.77 272.799L308.724 242.319L306.971 239.618Z" fill="#2E353A"/>
<path d="M184.05 294.84L297.39 221.26" stroke="#2E353A" stroke-linecap="round" stroke-linejoin="round"/>
<path d="M314.697 251.489L203.51 323.667L221.026 350.65L332.213 278.472L314.697 251.489Z" fill="#2E353A" stroke="#2E353A" stroke-linecap="round" stroke-linejoin="round"/>
<path d="M82.8001 177.31L11.6801 122.25L54.0001 201.64C55.0001 203.56 52.3501 203.92 49.6501 202.22C46.9201 200.51 44.2301 200.89 45.3001 202.83L67.2501 242.73C67.5988 243.299 68.0578 243.792 68.6001 244.18L79.3201 252.26C79.8776 252.653 80.3447 253.161 80.6901 253.75L125.1 338.1L201.91 394.74L82.8001 177.31Z" fill="#0575E6" stroke="#2E353A" stroke-linecap="round" stroke-linejoin="round"/>
<path opacity="0.25" d="M82.8001 177.31L11.6801 122.25L54.0001 201.64C55.0001 203.56 52.3501 203.92 49.6501 202.22C46.9201 200.51 44.2301 200.89 45.3001 202.83L67.2501 242.73C67.5988 243.299 68.0578 243.792 68.6001 244.18L79.3201 252.26C79.8776 252.653 80.3447 253.161 80.6901 253.75L125.1 338.1L201.91 394.74L82.8001 177.31Z" fill="#2E353A" stroke="#2E353A" stroke-linecap="round" stroke-linejoin="round"/>
<path d="M385.73 298.52C385.715 298.484 385.686 298.455 385.65 298.44C384.48 297.93 374.65 298.02 374.39 298.6C374.39 298.67 374.44 298.76 374.59 298.86C374.8 298.992 375.021 299.106 375.25 299.2C375.53 299.32 375.87 299.45 376.25 299.58C376.63 299.71 376.99 299.84 377.38 299.96L379.05 300.48L379.93 300.74L380.51 300.9L370.33 310.75C368.209 312.686 365.983 314.502 363.66 316.19L363.2 315.73C362.535 315.087 361.83 314.486 361.09 313.93V313.67C360.228 314.219 359.329 314.706 358.4 315.13C354.92 316.88 345.16 321.26 341.68 328.28C339.936 331.842 337.999 335.307 335.88 338.66V339.12H335.6C332.23 338.83 325.81 341.07 321.09 343.4C317.059 345.629 313.178 348.118 309.47 350.85L305.81 352.14C304.48 352.33 302.04 352.64 301.7 353.05C301.36 353.46 298.99 353.05 297.94 353.31C296.89 353.57 297.19 354.31 297.19 354.31L299.19 354.5L286 359.09L296.61 367.51L311 362.17L311.77 362.36C313.304 362.832 314.963 362.684 316.39 361.95C316.898 361.76 317.395 361.543 317.88 361.3C320.54 360.95 328.63 359.17 331.44 358.55C333.55 361.41 339.57 366.22 340.6 368.3C340.649 368.41 340.689 368.524 340.72 368.64C340.72 368.64 340.72 368.69 340.72 368.72C340.741 368.805 340.741 368.895 340.72 368.98C340.244 370.144 339.622 371.242 338.87 372.25C337.5 371.684 336.085 371.233 334.64 370.9C329.17 369.64 326.18 375.32 325.23 375.6C324.28 375.88 323.12 376.72 324.23 377.52C325.34 378.32 323.66 379.06 322.98 380.14C322.557 380.994 322.271 381.908 322.13 382.85C318.52 383.16 315.43 384.65 314.63 386.85C313.63 389.66 322.74 391.72 322.74 391.72C322.74 391.72 335.35 396.65 344.97 393.56C354.59 390.47 354.22 385.32 354.97 382.56C355.72 379.8 363.57 373.01 372.38 368.28C381.19 363.55 385.02 359.28 376.64 352.87C371.14 348.66 366.3 346.64 362.31 346.48C362.41 346.24 362.52 346 362.63 345.77L362.83 345.33C362.95 345.08 363.09 344.84 363.22 344.59L363.42 344.23C363.63 343.87 363.85 343.52 364.09 343.17C364.508 342.577 364.872 341.947 365.18 341.29C366.152 339.258 366.409 336.957 365.91 334.76C365.739 334.127 365.645 333.476 365.63 332.82C365.83 331.51 368.01 326.36 368.57 324.07C368.591 323.911 368.591 323.749 368.57 323.59C368.49 322.944 368.286 322.319 367.97 321.75C370.22 320.41 374.75 317.97 376.83 315.66C378.91 313.35 383.46 305.12 385.16 300.9C385.23 300.73 385.29 300.56 385.35 300.4C385.41 300.25 385.46 300.09 385.51 299.95C385.55 299.81 385.59 299.68 385.63 299.56V299.51C385.63 299.41 385.69 299.3 385.71 299.21C385.705 299.194 385.705 299.176 385.71 299.16C385.71 299.07 385.71 298.99 385.71 298.92V298.85C385.715 298.797 385.715 298.743 385.71 298.69V298.61C385.71 298.61 385.74 298.55 385.73 298.52ZM332.6 354.81C329.51 355.67 322.39 357.92 318.6 359.18L311.6 352.77C313.3 351.89 317.07 350.25 321.35 348.41C325.319 346.924 329.436 345.868 333.63 345.26C333.978 345.903 334.205 346.605 334.3 347.33C334.7 348.569 335.201 349.774 335.8 350.93C334.996 352.419 333.909 353.737 332.6 354.81Z" fill="#2E353A"/>
<path d="M373.75 250.38C375.845 256.755 377.597 263.238 379 269.8C380.41 277.53 383.36 293.62 383.36 293.62C383.36 293.62 375.94 294.04 375.81 295.25C375.68 296.46 385.6 301.25 387.08 300.78C388.56 300.31 389.41 270.12 388.52 263.26C387.63 256.4 382.89 247.26 382.52 245.2C382.15 243.14 381.34 239.13 381.34 239.13L373.75 250.38Z" fill="white" stroke="#2E353A" stroke-linecap="round" stroke-linejoin="round"/>
<path d="M387.08 300.78C387.45 300.67 387.78 298.78 388.08 295.78C385.17 297.92 383.08 295.78 383.08 295.78L383.35 293.64C383.35 293.64 375.93 294.06 375.8 295.27C375.67 296.48 385.6 301.24 387.08 300.78Z" fill="#0575E6" stroke="#2E353A" stroke-linecap="round" stroke-linejoin="round"/>
<path d="M369.34 159.93C369.34 159.93 357.56 147.79 355.81 146.93C354.06 146.07 353.45 147.93 353.95 148.98C354.45 150.03 366.43 165.91 368.46 167.98C370.49 170.05 369.34 159.93 369.34 159.93Z" fill="white" stroke="#2E353A" stroke-linecap="round" stroke-linejoin="round"/>
<path d="M338.78 125.54L322.99 136.92L341.67 163.87L356.11 151.72L338.78 125.54Z" fill="#2E353A" stroke="#2E353A" stroke-linecap="round" stroke-linejoin="round"/>
<path d="M338.89 128.47L325.53 138.1L341.34 160.91L353.56 150.63L338.89 128.47Z" fill="#0575E6" stroke="#2E353A" stroke-linecap="round" stroke-linejoin="round"/>
<path d="M357.22 149.08C356.708 147.817 356.078 146.605 355.34 145.46C354.04 143.46 353.21 142.39 350.92 142.52C349.219 142.57 347.516 142.446 345.84 142.15C344.53 142.01 344.51 143.9 345.2 144.55C345.89 145.2 349.7 145.04 349.7 145.04C349.31 144.53 349.6 145.36 352.12 148.83C352.83 149.83 355.32 150 355.88 150.06" fill="white"/>
<path d="M357.22 149.08C356.708 147.817 356.078 146.605 355.34 145.46C354.04 143.46 353.21 142.39 350.92 142.52C349.219 142.57 347.516 142.446 345.84 142.15C344.53 142.01 344.51 143.9 345.2 144.55C345.89 145.2 349.7 145.04 349.7 145.04C349.31 144.53 349.6 145.36 352.12 148.83C352.83 149.83 355.32 150 355.88 150.06" stroke="#2E353A" stroke-linecap="round" stroke-linejoin="round"/>
<path d="M374.12 105.75C373.522 108.22 373.13 110.735 372.95 113.27C372.95 115.67 374.25 117.91 372.63 118.93C371.01 119.95 371.69 122.13 372.48 123.11C373.27 124.09 372.86 136.5 379.15 136.59C385.44 136.68 391.49 133.44 392.77 129.98C394.05 126.52 397.22 116.67 393.23 112.03C389.24 107.39 377.8 99.55 374.12 105.75Z" fill="white" stroke="#2E353A" stroke-linecap="round" stroke-linejoin="round"/>
<path d="M374.36 117.24L375.35 119.06L374.15 119.1" stroke="#2E353A" stroke-linecap="round" stroke-linejoin="round"/>
<path d="M374.16 114.32C374.16 114.32 376.04 114.32 376.16 117.44" stroke="#2E353A" stroke-linecap="round" stroke-linejoin="round"/>
<path d="M384.15 134.73C384.389 137.525 384.389 140.335 384.15 143.13C384.075 143.586 383.893 144.017 383.62 144.39C386.744 142.245 390.098 140.457 393.62 139.06L394.62 138.68C394.108 134.436 393.855 130.165 393.86 125.89L384.15 134.73Z" fill="white" stroke="#2E353A" stroke-linecap="round" stroke-linejoin="round"/>
<path d="M357.32 254.43C357.32 254.43 356.78 267.98 357.92 272.61C359.06 277.24 363.27 315.54 363.09 319C362.91 322.46 362.77 323.88 362.77 323.88C362.77 323.88 352.36 325.4 351.3 325.7C350.24 326 349.89 327.39 355.65 329.04C361.41 330.69 365.84 333.22 367.07 331.31C368.3 329.4 369.97 322.31 370.46 317.14C371.61 305.14 373.58 291.66 372.4 285.6C371.22 279.54 368.15 272 368.57 270C368.99 268 375.49 246 375.49 246L357.32 254.43Z" fill="white" stroke="#2E353A" stroke-linecap="round" stroke-linejoin="round"/>
<path d="M367.07 331.31C367.705 329.992 368.14 328.586 368.36 327.14C365.31 328.75 361.56 326.47 361.56 326.47L362.77 323.88C362.77 323.88 352.36 325.4 351.3 325.7C350.24 326 349.89 327.39 355.65 329.04C361.41 330.69 365.84 333.22 367.07 331.31Z" fill="#0575E6" stroke="#2E353A" stroke-linecap="round" stroke-linejoin="round"/>
<path d="M384.15 134.73C384.389 137.525 384.389 140.335 384.15 143.13C383.73 146.98 366.3 158.27 366.74 162.52C367.18 166.77 369.23 172.69 368.08 177.66C366.93 182.63 360.55 199.93 359.28 206.09C358.01 212.25 353.18 259.09 355.36 261.15C357.54 263.21 366.36 262.34 370.8 259.83C375.24 257.32 384.41 247.83 385.22 243.12C386.03 238.41 386.94 227.41 387.53 224.77C388.12 222.13 392.71 215.77 392.2 203.99C391.69 192.21 395.94 177.99 396.94 168.82C397.94 159.65 396.94 147.22 395.35 142.25C393.76 137.28 393.84 125.89 393.84 125.89L384.15 134.73Z" fill="#0575E6" stroke="#2E353A" stroke-linecap="round" stroke-linejoin="round"/>
<path d="M385.201 243.12C386.021 238.41 386.921 227.41 387.511 224.77C388.101 222.13 392.69 215.77 392.18 203.99C391.89 197.53 393.051 190.33 394.321 183.62C390.991 186.78 382.321 194.14 373.071 195C366.381 195.63 364.201 193.68 363.571 191.86C361.721 197.44 359.881 203.09 359.261 206.09C357.981 212.25 353.16 259.09 355.34 261.15C357.52 263.21 366.34 262.34 370.78 259.83C375.22 257.32 384.391 247.83 385.201 243.12Z" fill="#2E353A" stroke="#2E353A" stroke-linecap="round" stroke-linejoin="round"/>
<path d="M383.31 229.46L369.81 252.98" stroke="white" stroke-width="0.5" stroke-linecap="round" stroke-linejoin="round"/>
<path d="M377.14 244.5L370.97 256.84" stroke="white" stroke-width="0.5" stroke-linecap="round" stroke-linejoin="round"/>
<path d="M427.65 151.41C425.04 140.1 417.65 136.19 411.13 132.28C408.13 130.49 407.13 127.43 406.99 124.63L406.66 127.63C406.495 126.211 406.495 124.779 406.66 123.36C406.77 122.7 406.91 121.99 407.07 121.22C406.928 122.337 406.894 123.466 406.97 124.59L407.64 118.33V118.4C408.64 112.79 409.09 105.32 403.21 97.49C395.36 87.03 379.66 90.72 379.66 90.72C379.66 90.72 369.19 90.47 368.54 96.4C367.89 102.33 371.79 107.85 377.06 109.03C377.06 109.03 378.13 111.31 379.35 114.72C378.796 115.24 378.369 115.88 378.1 116.59C378.1 116.59 379.84 117.46 380.71 123.11C381.58 128.76 372.88 139.2 373.71 146.11C374.54 153.02 381.97 153.11 381.53 156.98C381.09 160.85 375.88 159.98 376.32 164.8C376.63 168.23 382.54 172.56 386.32 175.7C386.086 179.029 386.063 182.368 386.25 185.7C383.918 189.483 382.727 193.857 382.82 198.3C383.08 204.74 389.03 207.03 394.68 205.52C396.233 205.096 397.746 204.534 399.2 203.84C404.52 205.98 417.46 204.33 423.68 193.96C430.2 183.09 424.11 179.61 423.68 171.79C423.25 163.97 430.26 162.71 427.65 151.41Z" fill="#2E353A" stroke="#2E353A" stroke-linecap="round" stroke-linejoin="round"/>
<path d="M376.29 100.21C379.449 104.418 383.293 108.065 387.66 111C395.92 116.22 390.27 131.87 383.75 138.82C377.23 145.77 378.53 152.3 385.92 155.77C393.31 159.24 406.35 163.16 398.92 175.77C391.49 188.38 390.66 198.37 401.53 201.42" stroke="white" stroke-width="0.5" stroke-linecap="round" stroke-linejoin="round"/>
<path d="M373.75 96.64C373.75 96.64 374.35 97.64 375.45 99.09" stroke="white" stroke-width="0.5" stroke-linecap="round" stroke-linejoin="round"/>
<path d="M410.82 199.93C411.537 200.101 412.281 200.126 413.007 200.004C413.734 199.882 414.429 199.616 415.05 199.22" stroke="white" stroke-width="0.5" stroke-linecap="round" stroke-linejoin="round"/>
<path d="M402.84 152.22C409.58 154.64 416.84 156.68 417.65 163.58C418.96 174.88 403.74 180.1 403.74 189.22C403.74 193.51 405.37 196.55 407.5 198.3" stroke="white" stroke-width="0.5" stroke-linecap="round" stroke-linejoin="round"/>
<path d="M387.66 111C387.66 111 398.09 114.91 400.66 121.43C403.23 127.95 387.19 137.52 392.4 145.78C394.01 148.32 396.89 149.91 400.16 151.23" stroke="white" stroke-width="0.5" stroke-linecap="round" stroke-linejoin="round"/>
<path d="M402.2 101.82C402.2 101.82 411.2 111.01 407.09 121.26C402.98 131.51 401.09 136.14 404.09 138.84C407.09 141.54 423 142.7 426.88 155" stroke="white" stroke-width="0.5" stroke-linecap="round" stroke-linejoin="round"/>
<path d="M365.64 188.19C365.64 188.19 356.54 181.47 352.24 174.03C347.94 166.59 344.32 160.27 344.41 159.46C344.5 158.65 344.94 154.6 343.68 153.03C342.42 151.46 338.12 149.55 337.56 149.08C337 148.61 335.83 149.92 337.13 151.08C338.43 152.24 339.72 153.62 339.72 153.62L331.36 151.48C331.153 151.83 331.057 152.234 331.086 152.64C331.115 153.046 331.266 153.433 331.52 153.75C332.44 154.67 335.07 154.95 335.16 155.99C335.25 157.03 337.91 158.99 339.04 159.89C339.521 160.367 340.117 160.712 340.77 160.89C340.77 160.89 345.56 176.98 348.93 183.7C352.3 190.42 357.43 197.7 361 198.7C364.57 199.7 368.95 193.42 368.95 193.42L365.64 188.19Z" fill="white" stroke="#2E353A" stroke-linecap="round" stroke-linejoin="round"/>
<path d="M381.45 155.93C381.45 155.93 376.58 159.29 375.06 163.83C373.54 168.37 365.78 179.4 364.66 182.15C364.151 183.521 363.458 184.816 362.6 186C362.6 186 363.6 192 367.74 195.16C371.88 198.32 373.16 198.01 373.16 198.01C373.16 198.01 388.16 173.63 390.58 167.96C393 162.29 387.9 153.15 381.45 155.93Z" fill="#0575E6" stroke="#2E353A" stroke-linecap="round" stroke-linejoin="round"/>
</svg>
