<svg width="34" height="38" viewBox="0 0 34 38" fill="none" xmlns="http://www.w3.org/2000/svg">
<path fill-rule="evenodd" clip-rule="evenodd" d="M17.6042 0.825879V6.75803C17.6042 12.132 21.9606 16.4884 27.3345 16.4884H33.2667C33.4074 17.0927 33.48 17.7156 33.48 18.3461V29.2915C33.48 33.8169 29.8114 37.4855 25.286 37.4855H8.89808C4.37267 37.4855 0.704102 33.8169 0.704102 29.2915V8.80653C0.704102 4.28112 4.37267 0.612549 8.89808 0.612549H15.7465C16.3769 0.612549 16.9999 0.685205 17.6042 0.825879ZM20.6769 2.26186V6.75803C20.6769 10.4349 23.6576 13.4156 27.3345 13.4156H31.8307C31.6022 13.1124 31.3517 12.8237 31.0801 12.5521L21.5405 3.01251C21.2689 2.74091 20.9802 2.49034 20.6769 2.26186ZM7.36171 19.049C7.36171 18.2005 8.04957 17.5126 8.89808 17.5126H17.0921C17.9406 17.5126 18.6284 18.2005 18.6284 19.049C18.6284 19.8975 17.9406 20.5854 17.0921 20.5854H8.89808C8.04957 20.5854 7.36171 19.8975 7.36171 19.049ZM8.89808 25.7066C8.04957 25.7066 7.36171 26.3945 7.36171 27.243C7.36171 28.0915 8.04957 28.7794 8.89808 28.7794H25.286C26.1346 28.7794 26.8224 28.0915 26.8224 27.243C26.8224 26.3945 26.1346 25.7066 25.286 25.7066H8.89808Z" fill="white"/>
</svg>
