<svg width="678" height="432" viewBox="0 0 678 432" fill="none" xmlns="http://www.w3.org/2000/svg">
<path d="M206.293 75.1834H166.19V62.487C166.19 51.8874 175.167 43.2949 186.241 43.2949C197.315 43.2949 206.292 51.8874 206.292 62.487V75.1834H206.293Z" fill="white" stroke="#263238" stroke-miterlimit="10" stroke-linecap="round" stroke-linejoin="round"/>
<path d="M186.242 43.295V22.0354" stroke="#263238" stroke-miterlimit="10" stroke-linecap="round" stroke-linejoin="round"/>
<path d="M496.881 75.1836H456.778V62.4871C456.778 51.8875 465.755 43.295 476.829 43.295C487.903 43.295 496.88 51.8875 496.88 62.4871L496.881 75.1836Z" fill="white" stroke="#263238" stroke-miterlimit="10" stroke-linecap="round" stroke-linejoin="round"/>
<path d="M476.83 43.295V22.0354" stroke="#263238" stroke-miterlimit="10" stroke-linecap="round" stroke-linejoin="round"/>
<path d="M624.574 71.375H512.803V202.133H624.574V71.375Z" fill="white" stroke="#263238" stroke-miterlimit="10" stroke-linecap="round" stroke-linejoin="round"/>
<path d="M624.574 71.3785H512.806V202.136H624.574V71.3785Z" fill="white" stroke="#263238" stroke-miterlimit="10" stroke-linecap="round" stroke-linejoin="round"/>
<path d="M624.573 71.3784V121.957C618.228 127.97 610.411 133.604 601.149 137.189C572.156 148.413 534.514 136.006 556.106 96.4431C561.576 86.4293 565.503 78.1522 568.319 71.3784H624.573Z" fill="white" stroke="#263238" stroke-miterlimit="10" stroke-linecap="round" stroke-linejoin="round"/>
<path d="M624.574 154.063V202.136H615.186C601.754 197.721 587.068 190.835 585.109 181.478C582.437 168.673 609.418 158.642 624.574 154.063Z" fill="white" stroke="#263238" stroke-miterlimit="10" stroke-linecap="round" stroke-linejoin="round"/>
<path d="M559.031 202.136H512.805V181.901C532.258 163.835 561.712 139.902 566.595 155.497C572.192 173.339 560.538 191.509 559.031 202.136Z" fill="white" stroke="#263238" stroke-miterlimit="10" stroke-linecap="round" stroke-linejoin="round"/>
<path d="M543.153 118.881C543.153 126.795 526.607 131.893 512.805 134.779V88.1573C524.251 95.6309 543.153 109.412 543.153 118.881Z" fill="white" stroke="#263238" stroke-miterlimit="10" stroke-linecap="round" stroke-linejoin="round"/>
<path d="M582.948 125.378C591.637 125.378 598.681 119.165 598.681 111.501C598.681 103.836 591.637 97.6233 582.948 97.6233C574.259 97.6233 567.216 103.836 567.216 111.501C567.216 119.165 574.259 125.378 582.948 125.378Z" fill="white" stroke="#263238" stroke-miterlimit="10" stroke-linecap="round" stroke-linejoin="round"/>
<path d="M541.92 146.047C541.92 148.656 539.434 150.771 536.368 150.771C533.301 150.771 530.815 148.656 530.815 146.047C530.815 143.438 533.301 141.323 536.368 141.323C539.434 141.323 541.92 143.439 541.92 146.047Z" fill="white" stroke="#263238" stroke-miterlimit="10" stroke-linecap="round" stroke-linejoin="round"/>
<path d="M590.659 160.22C590.659 163.807 587.621 166.716 583.873 166.716C580.125 166.716 577.087 163.807 577.087 160.22C577.087 156.633 580.125 153.725 583.873 153.725C587.621 153.725 590.659 156.633 590.659 160.22Z" fill="white" stroke="#263238" stroke-miterlimit="10" stroke-linecap="round" stroke-linejoin="round"/>
<path d="M604.85 178.526C604.85 179.831 603.745 180.889 602.382 180.889C601.019 180.889 599.914 179.831 599.914 178.526C599.914 177.222 601.019 176.164 602.382 176.164C603.745 176.164 604.85 177.222 604.85 178.526Z" fill="white" stroke="#263238" stroke-miterlimit="10" stroke-linecap="round" stroke-linejoin="round"/>
<path d="M561.31 97.2929C565.888 92.9113 565.888 85.8073 561.31 81.4257C556.732 77.0441 549.311 77.0441 544.733 81.4257C540.155 85.8073 540.155 92.9112 544.733 97.2928C549.311 101.674 556.732 101.674 561.31 97.2929Z" fill="white" stroke="#263238" stroke-miterlimit="10" stroke-linecap="round" stroke-linejoin="round"/>
<path d="M588.115 273.612C593.173 273.612 597.274 263.318 597.274 250.62C597.274 237.921 593.173 227.627 588.115 227.627C583.057 227.627 578.957 237.921 578.957 250.62C578.957 263.318 583.057 273.612 588.115 273.612Z" fill="#0575E6" stroke="#263238" stroke-miterlimit="10"/>
<path d="M559.66 236.441C562.523 245.066 568.023 251.091 571.945 249.898C575.867 248.706 576.726 240.747 573.863 232.122C570.999 223.497 565.499 217.472 561.577 218.665C557.655 219.856 556.797 227.815 559.66 236.441Z" fill="#0575E6" stroke="#263238" stroke-miterlimit="10"/>
<path d="M626.86 288.448C636.181 286.937 643.182 282.563 642.494 278.68C641.807 274.796 633.692 272.874 624.37 274.386C615.048 275.897 608.048 280.27 608.736 284.154C609.424 288.037 617.538 289.959 626.86 288.448Z" fill="#0575E6" stroke="#263238" stroke-miterlimit="10"/>
<path d="M551.038 267.191C558.824 274.582 568.023 277.787 571.585 274.349C575.147 270.912 571.722 262.133 563.936 254.743C556.149 247.351 546.95 244.147 543.388 247.584C539.827 251.021 543.251 259.8 551.038 267.191Z" fill="#0575E6" stroke="#263238" stroke-miterlimit="10"/>
<path d="M604.69 246.917C597.161 257.374 594.918 268.396 599.679 271.537C604.441 274.679 614.404 268.749 621.933 258.293C629.463 247.837 631.706 236.815 626.944 233.673C622.183 230.533 612.219 236.462 604.69 246.917Z" fill="#0575E6" stroke="#263238" stroke-miterlimit="10"/>
<path d="M587.473 272.466L586.764 342.413" stroke="#263238" stroke-miterlimit="10" stroke-linecap="round"/>
<path d="M588.327 242.07L587.473 272.466" stroke="#263238" stroke-miterlimit="10" stroke-linecap="round"/>
<path d="M588.266 237.112L588.327 239.44" stroke="#263238" stroke-miterlimit="10" stroke-linecap="round"/>
<path d="M599.713 270.044C595.122 279.272 591.39 290.482 590.668 303.216V346.479" stroke="#263238" stroke-miterlimit="10" stroke-linecap="round"/>
<path d="M615.444 247.007C611.175 251.725 604.897 259.622 599.713 270.045" stroke="#263238" stroke-miterlimit="10" stroke-linecap="round"/>
<path d="M620.395 241.998C620.395 241.998 619.445 242.828 617.885 244.416" stroke="#263238" stroke-miterlimit="10" stroke-linecap="round"/>
<path d="M571.016 273.29C576.358 280.359 581.725 289.611 585.863 301.493" stroke="#263238" stroke-miterlimit="10" stroke-linecap="round"/>
<path d="M560.479 261.701C563.713 264.637 567.359 268.453 571.015 273.29" stroke="#263238" stroke-miterlimit="10" stroke-linecap="round"/>
<path d="M549.229 253.494C549.229 253.494 552.496 255.097 557.252 258.936" stroke="#263238" stroke-miterlimit="10" stroke-linecap="round"/>
<path d="M571.402 247.761C576.475 263.043 583.287 285.626 586.464 305.229" stroke="#263238" stroke-miterlimit="10" stroke-linecap="round"/>
<path d="M568.31 238.695C569.213 241.272 570.264 244.332 571.401 247.76" stroke="#263238" stroke-miterlimit="10" stroke-linecap="round"/>
<path d="M565.143 229.926C565.143 229.926 566.031 232.265 567.457 236.278" stroke="#263238" stroke-miterlimit="10" stroke-linecap="round"/>
<path d="M609.205 282.036C602.867 284.336 594.199 290.754 591.191 299.16" stroke="#263238" stroke-miterlimit="10" stroke-linecap="round"/>
<path d="M620.915 279.757C617.503 279.949 613.323 280.542 609.206 282.036" stroke="#263238" stroke-miterlimit="10" stroke-linecap="round"/>
<path d="M628.503 279.936C628.503 279.936 627.375 279.781 625.513 279.712" stroke="#263238" stroke-miterlimit="10" stroke-linecap="round"/>
<path d="M608.574 322.069C617.141 325.898 625.497 326.109 627.238 322.54C628.979 318.971 623.446 312.974 614.879 309.145C606.312 305.317 597.956 305.106 596.214 308.674C594.473 312.244 600.006 318.241 608.574 322.069Z" fill="#0575E6" stroke="#263238" stroke-miterlimit="10"/>
<path d="M608.845 311.685C605.924 309.986 602.133 308.199 597.858 307.188C597.858 307.188 594.994 305.359 591.962 307.294C590.803 308.033 591.189 313.578 591.189 313.578V342.414" stroke="#263238" stroke-miterlimit="10" stroke-linecap="round"/>
<path d="M614.981 315.96C614.981 315.96 614.144 315.22 612.655 314.15" stroke="#263238" stroke-miterlimit="10" stroke-linecap="round"/>
<path d="M547.084 288.448C537.762 286.937 530.762 282.563 531.45 278.68C532.137 274.796 540.252 272.874 549.573 274.386C558.895 275.897 565.896 280.27 565.208 284.154C564.52 288.037 556.406 289.959 547.084 288.448Z" fill="#0575E6" stroke="#263238" stroke-miterlimit="10"/>
<path d="M564.537 281.964C565.654 282.361 566.767 282.824 567.859 283.363C575.562 287.16 580.272 294.894 580.272 303.188V341.304" stroke="#263238" stroke-miterlimit="10" stroke-linecap="round"/>
<path d="M552.048 279.711C555.567 279.839 560.081 280.378 564.537 281.964" stroke="#263238" stroke-miterlimit="10" stroke-linecap="round"/>
<path d="M545.441 279.936C545.441 279.936 546.185 279.834 547.46 279.759" stroke="#263238" stroke-miterlimit="10" stroke-linecap="round"/>
<path d="M556.443 314.557C548.251 319.077 539.945 319.974 537.89 316.561C535.836 313.148 540.811 306.718 549.002 302.2C557.194 297.681 565.5 296.783 567.555 300.196C569.609 303.609 564.635 310.039 556.443 314.557Z" fill="#0575E6" stroke="#263238" stroke-miterlimit="10"/>
<path d="M554.454 304.797C557.252 302.749 561.09 300.412 565.58 298.916C565.58 298.916 575.741 297.312 578.059 303.597" stroke="#263238" stroke-miterlimit="10" stroke-linecap="round"/>
<path d="M549.511 308.998C549.511 308.998 550.017 308.467 550.949 307.631" stroke="#263238" stroke-miterlimit="10" stroke-linecap="round"/>
<path d="M576.514 303.966C576.514 303.966 588.487 301.749 588.487 309.512C588.487 317.275 579.99 323.559 576.514 332.432C573.038 341.304 566.472 341.674 562.996 332.802C559.52 323.929 564.541 307.663 576.514 303.966Z" fill="#0575E6" stroke="#263238" stroke-miterlimit="10"/>
<path d="M584.625 304.336C584.625 304.336 574.197 308.403 571.107 321.341L584.625 304.336Z" fill="#0575E6"/>
<path d="M584.625 304.336C584.625 304.336 574.197 308.403 571.107 321.341" stroke="#263238" stroke-miterlimit="10"/>
<path d="M583.852 321.342V342.413" stroke="#263238" stroke-miterlimit="10" stroke-linecap="round"/>
<path d="M564.671 383.448C561.935 375.284 560.34 365.86 560.34 356.475C560.34 350.661 560.957 345.105 562.072 339.983H610.855C611.969 345.105 612.587 350.662 612.587 356.475C612.587 365.86 610.99 375.285 608.255 383.448H564.671Z" fill="#263238"/>
<path d="M612.107 347.693C612.247 348.96 612.354 350.247 612.433 351.549H560.495C560.574 350.247 560.682 348.96 560.822 347.693H612.107Z" fill="#7A7A7A"/>
<path d="M561.047 367.398C560.885 366.12 560.743 364.835 560.636 363.543H612.292C612.184 364.835 612.043 366.12 611.88 367.398H561.047Z" fill="#7A7A7A"/>
<path d="M606.282 356.689C606.282 357.763 607.223 358.632 608.384 358.632C609.545 358.632 610.487 357.763 610.487 356.689C610.487 355.616 609.546 354.747 608.384 354.747C607.223 354.746 606.282 355.616 606.282 356.689Z" fill="#8C8C8C"/>
<path d="M595.772 356.689C595.772 357.763 596.714 358.632 597.875 358.632C599.035 358.632 599.977 357.763 599.977 356.689C599.977 355.616 599.035 354.747 597.875 354.747C596.714 354.746 595.772 355.616 595.772 356.689Z" fill="#8C8C8C"/>
<path d="M585.262 356.689C585.262 357.763 586.204 358.632 587.364 358.632C588.525 358.632 589.467 357.763 589.467 356.689C589.467 355.616 588.525 354.747 587.364 354.747C586.204 354.746 585.262 355.616 585.262 356.689Z" fill="#8C8C8C"/>
<path d="M574.752 356.689C574.752 357.763 575.694 358.632 576.855 358.632C578.016 358.632 578.957 357.763 578.957 356.689C578.957 355.616 578.016 354.747 576.855 354.747C575.694 354.746 574.752 355.616 574.752 356.689Z" fill="#8C8C8C"/>
<path d="M564.243 356.689C564.243 357.763 565.183 358.632 566.345 358.632C567.506 358.632 568.447 357.763 568.447 356.689C568.447 355.616 567.507 354.747 566.345 354.747C565.184 354.746 564.243 355.616 564.243 356.689Z" fill="#8C8C8C"/>
<path d="M479.996 190.877L478.381 185.552C478.381 185.552 477.843 181.086 476.946 180.055C476.048 179.024 472.639 177.307 471.383 176.105C470.126 174.903 469.05 174.902 468.87 175.933C468.691 176.964 469.05 178.509 469.588 178.853C470.126 179.197 471.921 180.743 471.921 180.743C471.921 180.743 467.92 178.345 466.843 177.486C465.766 176.628 461.871 174.731 461.333 175.418C460.795 176.105 461.513 177.651 461.513 177.651C461.513 177.651 459.182 177.162 459.182 178.708C459.182 180.254 460.263 180.777 460.263 180.777C460.263 180.777 458.725 181.266 459.084 182.469C459.443 183.672 461.539 184.632 461.539 184.632C461.539 184.632 459.48 184.95 460.557 186.324C461.634 187.698 466.178 190.534 468.511 191.564C470.844 192.595 473.715 193.454 473.715 193.454L479.458 197.404L479.996 190.877Z" fill="white" stroke="#263238" stroke-miterlimit="10" stroke-linecap="round" stroke-linejoin="round"/>
<path d="M461.512 177.651C461.512 177.651 464.921 180.056 465.639 180.743C466.356 181.43 468.316 182.469 468.316 182.469" stroke="#263238" stroke-miterlimit="10" stroke-linecap="round" stroke-linejoin="round"/>
<path d="M460.371 180.928L466.114 184.191L466.942 184.726" stroke="#263238" stroke-miterlimit="10" stroke-linecap="round" stroke-linejoin="round"/>
<path d="M471.92 180.743L472.638 183.663" stroke="#263238" stroke-miterlimit="10" stroke-linecap="round" stroke-linejoin="round"/>
<path d="M495.428 198.95L479.995 190.877L477.304 197.919L493.275 211.832L495.428 198.95Z" fill="#0575E6" stroke="#263238" stroke-miterlimit="10" stroke-linecap="round" stroke-linejoin="round"/>
<path d="M507.156 163.662C507.156 163.662 493.536 177.042 492.281 184.59C491.026 192.138 490.31 230.905 490.31 230.905C490.31 230.905 499.808 232.449 500.704 232.449C501.599 232.449 506.438 232.449 506.438 232.449C506.438 232.449 504.109 197.97 505.722 186.134C507.335 174.298 513.249 163.662 513.249 163.662C513.249 163.662 510.74 162.633 507.156 163.662Z" fill="#0575E6" stroke="#263238" stroke-miterlimit="10" stroke-linecap="round" stroke-linejoin="round"/>
<path d="M497.209 228.547L498.114 251.635C498.114 251.635 492.687 268.085 496.606 285.978C500.526 303.871 500.827 318.59 500.827 318.59C500.827 318.59 502.636 331.288 502.636 337.348C502.636 343.408 500.526 367.651 500.526 367.651C500.526 367.651 498.415 370.537 496.003 373.423C493.591 376.308 487.561 378.04 486.656 380.349C485.752 382.658 490.274 381.792 493.893 381.792C497.511 381.792 503.843 380.349 505.652 379.484C507.461 378.618 511.38 379.195 512.285 378.618C513.19 378.041 514.396 374.578 514.094 371.98C513.793 369.383 516.506 346.583 518.315 337.637C520.124 328.69 517.411 311.374 517.411 311.374C517.411 311.374 522.839 264.622 523.139 261.736C523.441 258.85 526.757 245.575 526.154 240.668C525.551 235.762 524.948 227.97 524.948 226.816C524.949 225.661 497.209 228.547 497.209 228.547Z" fill="#263238" stroke="#263238" stroke-miterlimit="10" stroke-linecap="round" stroke-linejoin="round"/>
<path d="M510.778 255.098C510.778 255.098 507.763 284.824 508.969 298.676C510.175 312.529 512.285 328.113 513.792 331.865C515.3 335.616 517.109 355.241 517.109 360.724C517.109 366.207 517.41 375.443 517.41 375.443C517.41 375.443 511.983 380.637 508.063 382.369C504.144 384.101 502.636 385.544 504.747 386.409C506.857 387.275 510.777 388.141 517.41 387.275C524.044 386.409 529.772 386.409 530.677 384.101C531.581 381.792 531.28 375.731 531.28 375.731C531.28 375.731 532.787 348.026 532.787 334.751C532.787 321.475 528.566 306.18 528.566 306.18L532.184 281.361C532.184 281.361 539.421 268.085 539.722 255.676C540.024 243.266 532.788 228.836 532.184 227.971C531.581 227.105 506.254 229.702 506.254 229.702" fill="#263238"/>
<path d="M510.778 255.098C510.778 255.098 507.763 284.824 508.969 298.676C510.175 312.529 512.285 328.113 513.792 331.865C515.3 335.616 517.109 355.241 517.109 360.724C517.109 366.207 517.41 375.443 517.41 375.443C517.41 375.443 511.983 380.637 508.063 382.369C504.144 384.101 502.636 385.544 504.747 386.409C506.857 387.275 510.777 388.141 517.41 387.275C524.044 386.409 529.772 386.409 530.677 384.101C531.581 381.792 531.28 375.731 531.28 375.731C531.28 375.731 532.787 348.026 532.787 334.751C532.787 321.475 528.566 306.18 528.566 306.18L532.184 281.361C532.184 281.361 539.421 268.085 539.722 255.676C540.024 243.266 532.788 228.836 532.184 227.971C531.581 227.105 506.254 229.702 506.254 229.702" stroke="#263238" stroke-miterlimit="10" stroke-linecap="round" stroke-linejoin="round"/>
<path d="M502.336 254.232C502.336 254.232 503.24 257.695 507.461 259.715" stroke="white" stroke-miterlimit="10" stroke-linecap="round" stroke-linejoin="round"/>
<path d="M514.094 371.98C514.087 371.922 514.084 371.842 514.08 371.764C507.711 374.691 501.43 372.557 501.43 372.557C501.43 372.557 501.43 372.557 501.43 371.403C501.43 370.248 500.526 367.651 500.526 367.651C500.526 367.651 498.415 370.537 496.003 373.423C493.591 376.308 487.561 378.04 486.656 380.349C485.752 382.658 490.274 381.792 493.893 381.792C497.512 381.792 503.843 380.349 505.652 379.484C507.461 378.618 511.38 379.195 512.285 378.618C513.19 378.041 514.396 374.577 514.094 371.98Z" fill="white" stroke="#263238" stroke-miterlimit="10" stroke-linecap="round" stroke-linejoin="round"/>
<path d="M530.678 384.101C531.375 382.322 531.356 378.324 531.311 376.58C526.945 377.777 521.332 378.329 521.332 378.329C521.332 378.329 521.332 378.329 520.427 376.309C519.523 374.289 517.412 375.444 517.412 375.444C517.412 375.444 511.985 380.638 508.065 382.37C504.146 384.102 502.638 385.545 504.749 386.41C506.859 387.276 510.778 388.142 517.412 387.276C524.045 386.409 529.773 386.409 530.678 384.101Z" fill="white" stroke="#263238" stroke-miterlimit="10" stroke-linecap="round" stroke-linejoin="round"/>
<path d="M506.798 167.436C506.798 167.436 493.715 182.703 493.357 186.305C492.999 189.907 496.225 230.219 496.762 230.562C497.299 230.905 503.931 232.449 506.439 232.449C508.948 232.449 511.995 232.106 511.995 232.106C511.995 232.106 510.562 192.309 511.637 183.904C512.712 175.499 519.881 167.951 521.314 164.349C522.748 160.747 517.013 160.575 515.4 161.09C513.787 161.604 506.798 167.436 506.798 167.436Z" fill="white" stroke="#263238" stroke-miterlimit="10" stroke-linecap="round" stroke-linejoin="round"/>
<path d="M499.987 122.494C499.987 122.494 494.073 130.385 494.432 132.615C494.79 134.844 495.148 136.56 494.432 137.761C493.715 138.961 489.772 140.162 490.13 142.049C490.489 143.936 493.715 145.479 493.715 145.479C493.715 145.479 495.507 155.085 497.478 156.114C499.449 157.143 504.647 155.771 504.647 155.771L505.902 164.691C505.902 164.691 500.884 172.067 504.289 172.239C507.694 172.411 522.747 160.746 522.747 160.746L521.314 155.6C521.314 155.6 524.54 148.739 524.719 141.877C524.898 135.016 518.088 123.695 512.711 121.293C507.335 118.891 503.213 120.263 499.987 122.494Z" fill="white" stroke="#263238" stroke-miterlimit="10" stroke-linecap="round" stroke-linejoin="round"/>
<path d="M504.647 155.771L509.486 154.742L505.543 160.746L504.647 155.771Z" fill="#263238" stroke="#263238" stroke-miterlimit="10" stroke-linecap="round" stroke-linejoin="round"/>
<path d="M496.762 145.651C496.762 145.651 499.808 146.68 502.318 143.421" stroke="#263238" stroke-miterlimit="10" stroke-linecap="round" stroke-linejoin="round"/>
<path d="M500.704 136.56C500.704 137.506 500.262 138.275 499.718 138.275C499.174 138.275 498.732 137.506 498.732 136.56C498.732 135.613 499.174 134.844 499.718 134.844C500.262 134.844 500.704 135.612 500.704 136.56Z" fill="#263238"/>
<path d="M497.479 132.443C497.479 132.443 500.525 130.041 502.138 132.958" stroke="#263238" stroke-miterlimit="10" stroke-linecap="round" stroke-linejoin="round"/>
<path d="M501.421 122.665C501.421 122.665 506.081 129.526 509.486 133.815C512.89 138.103 516.475 143.936 515.4 147.023C514.325 150.111 510.561 148.91 511.637 150.968C512.712 153.027 518.984 156.114 522.927 155.771C526.87 155.428 530.813 150.969 533.859 146.68C536.906 142.391 541.387 134.501 536.01 124.895C530.634 115.289 522.928 110.829 515.222 110.486C507.516 110.143 494.612 112.716 493.358 117.862C492.103 123.008 497.121 126.782 497.121 126.782L501.421 122.665Z" fill="#263238" stroke="#263238" stroke-miterlimit="10" stroke-linecap="round" stroke-linejoin="round"/>
<path d="M514.145 165.892C514.145 165.892 499.808 185.619 499.092 190.937C498.375 196.255 502.496 233.479 502.496 233.479C502.496 233.479 511.816 234.68 520.776 233.479C529.737 232.278 538.518 228.161 538.518 228.161C538.518 228.161 533.5 208.091 533.5 205.003C533.5 201.915 534.755 180.816 531.529 174.126C528.303 167.436 522.748 160.746 522.748 160.746C522.748 160.746 521.673 160.574 521.135 160.574C520.598 160.574 517.193 162.804 514.145 165.892Z" fill="#0575E6" stroke="#263238" stroke-miterlimit="10" stroke-linecap="round" stroke-linejoin="round"/>
<path d="M481.35 195.911L476.69 193.51C476.69 193.51 475.077 188.878 474.182 187.506C473.285 186.134 470.777 186.477 469.701 186.648C468.626 186.82 465.4 185.962 463.428 185.104C461.457 184.246 460.56 185.276 461.278 186.305C461.995 187.334 463.608 188.535 463.608 188.535C463.608 188.535 455.364 188.878 454.827 188.878C454.29 188.878 451.063 188.02 451.78 190.25C452.497 192.48 458.59 196.425 461.637 196.94C464.684 197.455 472.569 197.112 472.569 197.112L477.229 200.543L481.35 195.911Z" fill="white" stroke="#263238" stroke-miterlimit="10" stroke-linecap="round" stroke-linejoin="round"/>
<path d="M463.606 188.535L468.087 189.907L470.417 190.593" stroke="#263238" stroke-miterlimit="10" stroke-linecap="round" stroke-linejoin="round"/>
<path d="M452.094 189.172C452.094 189.172 455.91 191.52 456.727 191.912C457.545 192.303 463.678 192.694 463.678 192.694" stroke="#263238" stroke-miterlimit="10" stroke-linecap="round" stroke-linejoin="round"/>
<path d="M453.456 192.433C453.456 192.433 459.725 194.781 460.407 194.781C461.088 194.781 464.087 194.65 464.087 194.65" stroke="#263238" stroke-miterlimit="10" stroke-linecap="round" stroke-linejoin="round"/>
<path d="M515.4 177.042L503.213 206.375L481.349 195.911L475.076 203.459C475.076 203.459 500.883 222.5 502.854 223.358C504.825 224.216 508.41 224.559 509.127 224.044C509.843 223.529 529.557 191.966 529.557 191.966" fill="#0575E6"/>
<path d="M515.4 177.042L503.213 206.375L481.349 195.911L475.076 203.459C475.076 203.459 500.883 222.5 502.854 223.358C504.825 224.216 508.41 224.559 509.127 224.044C509.843 223.529 529.557 191.966 529.557 191.966" stroke="#263238" stroke-miterlimit="10" stroke-linecap="round" stroke-linejoin="round"/>
<path d="M510.278 260.879C510.278 260.879 508.427 293.795 510.278 306.456C512.13 319.116 515.304 338.107 515.304 338.107" stroke="white" stroke-miterlimit="10" stroke-linecap="round" stroke-linejoin="round"/>
<path d="M387.751 232.074C387.751 232.074 385.576 268.967 385.166 275.862C384.757 282.759 385.583 318.261 388.039 321.838C390.495 325.414 393.486 360.406 393.486 360.406C393.486 360.406 391.306 361.172 391.23 362.449C391.155 363.726 391.209 367.302 391.209 367.302C391.209 367.302 383.937 372.921 379.843 374.453C375.75 375.986 375.91 377.774 378.282 378.284C380.653 378.795 387.248 380.072 392.112 379.051C396.976 378.029 401.916 375.73 404.082 375.22C406.247 374.709 409.152 375.22 410.577 373.687C412.003 372.154 411.224 367.301 411.224 367.301C411.224 367.301 412.1 366.024 411.306 361.427C410.511 356.83 409.581 354.53 409.657 353.253C409.732 351.976 409.507 310.854 409.507 310.854L409.584 264.624C409.584 264.624 413.57 309.833 414.501 312.131C415.432 314.43 422.381 350.188 422.808 351.976C423.235 353.764 423.329 361.171 423.329 361.171C423.329 361.171 421.295 363.981 421.249 364.747C421.203 365.514 422.204 371.133 422.204 371.133C422.204 371.133 415.641 378.284 412.066 380.073C408.49 381.86 412.608 384.414 416.062 384.67C419.516 384.926 423.503 385.181 428.413 383.393C433.323 381.606 439.839 375.22 441.264 373.688C442.69 372.155 441.759 369.857 441.3 368.579C440.843 367.302 440.103 366.281 440.43 365.259C440.758 364.237 442.547 356.575 442.76 352.999C442.972 349.422 443.17 346.102 443.17 346.102C443.17 346.102 443.599 325.414 442.246 316.73C440.894 308.045 437.832 292.209 437.832 292.209C437.832 292.209 435.336 253.386 435.708 251.598C436.081 249.81 437.581 243.713 437.031 238.316C436.482 232.92 435.663 229.887 435.663 229.887L387.751 232.074Z" fill="#263238" stroke="#263238" stroke-miterlimit="10" stroke-linecap="round" stroke-linejoin="round"/>
<path d="M408.454 160.684C408.454 160.684 387.267 167.282 387.231 168.804C387.196 170.326 382.016 202.807 382.016 202.807L356.127 219.739C356.127 219.739 359.783 222.108 360.439 224.307C361.094 226.505 361.094 226.505 361.094 226.505L388.195 218.201C388.195 218.201 386.834 231.058 387.517 232.072C388.201 233.087 392.242 234.103 392.242 234.103C392.242 234.103 416.423 235.456 424.385 235.118C432.346 234.779 435.716 234.272 436.277 232.919C436.839 231.566 437.181 232.073 437.229 230.043C437.277 228.013 451.789 166.773 451.813 165.758C451.837 164.743 451.166 163.221 449.768 162.544C448.37 161.868 429.581 156.623 429.581 156.623L408.454 160.684Z" fill="white" stroke="#263238" stroke-miterlimit="10" stroke-linecap="round" stroke-linejoin="round"/>
<path d="M405.102 167.959L407.012 177.009L397.875 220.652L401.067 232.858L410.653 219.542L410.498 176.639L418.074 166.653L414.727 160.885L405.102 167.959Z" fill="#0575E6" stroke="#263238" stroke-miterlimit="10" stroke-linecap="round" stroke-linejoin="round"/>
<path d="M398.6 217.192L408.061 223.143L410.653 219.543L410.646 217.532L399.939 210.797L398.6 217.192Z" fill="#263238"/>
<path d="M404.004 191.375L402.561 198.27L410.601 205.2L410.572 197.036L404.004 191.375Z" fill="#263238"/>
<path d="M405.807 171.298L407.012 177.009L406.401 179.929L410.523 183.464L410.499 176.639L411.104 175.841L405.807 171.298Z" fill="#263238"/>
<path d="M391.833 183.752L392.276 179.801" stroke="#263238" stroke-miterlimit="10" stroke-linecap="round" stroke-linejoin="round"/>
<path d="M388.255 215.665L391.34 188.151" stroke="#263238" stroke-miterlimit="10" stroke-linecap="round" stroke-linejoin="round"/>
<path d="M407.651 172.738L401.918 160.516L409.448 155.948L407.651 172.738Z" fill="white" stroke="#263238" stroke-miterlimit="10" stroke-linecap="round" stroke-linejoin="round"/>
<path d="M401.918 160.516L399.74 170.497L405.102 167.959L401.918 160.516Z" fill="white" stroke="#263238" stroke-miterlimit="10" stroke-linecap="round" stroke-linejoin="round"/>
<path d="M408.283 114.639C408.283 114.639 402.242 134.16 401.809 142.294C401.375 150.428 403.964 153.914 406.133 154.611L408.06 155.308L407.652 172.738L414.171 163.907L414.727 160.886L427.387 149.033L430.237 141.364C430.237 141.364 435.071 142.294 436.626 138.11C438.181 133.927 436.293 131.604 436.293 131.604C436.293 131.604 442.758 125.097 440.515 117.196C438.272 109.294 432.387 101.393 421.219 101.393C410.05 101.393 402.372 107.9 408.283 114.639Z" fill="white" stroke="#263238" stroke-miterlimit="10" stroke-linecap="round" stroke-linejoin="round"/>
<path d="M440.516 117.196C438.273 109.294 432.388 101.393 421.219 101.393C410.051 101.393 402.372 107.9 408.284 114.639C408.284 114.639 412.098 117.66 414.78 117.196C417.462 116.731 419.205 114.871 423.763 117.196C428.322 119.52 428.764 121.378 427.237 124.4C425.709 127.421 425.92 128.815 426.62 129.977C426.698 130.105 426.777 130.255 426.858 130.417L422.48 140.899C422.48 140.899 421.088 138.11 415.315 135.787C409.543 133.463 402.662 136.949 402.662 136.949C398.144 155.734 408.059 155.308 408.059 155.308C408.059 155.308 419.763 153.217 423.232 150.196C426.702 147.175 427.237 145.084 427.556 141.83C427.746 139.898 427.734 135.588 427.693 132.407C428.004 133.241 428.227 133.929 428.227 133.929C428.227 133.929 429.247 131.837 431.691 131.14C434.136 130.442 436.294 131.605 436.294 131.605C436.294 131.605 442.758 125.097 440.516 117.196Z" fill="#263238" stroke="#263238" stroke-miterlimit="10" stroke-linecap="round" stroke-linejoin="round"/>
<path d="M412.906 124.632L410.828 130.442C410.828 130.442 403.937 134.393 405.383 134.857C406.829 135.321 411.717 133.927 411.717 133.927" stroke="#263238" stroke-miterlimit="10" stroke-linecap="round" stroke-linejoin="round"/>
<path d="M405.251 140.435C405.251 140.435 408.099 143.224 413.522 139.737" stroke="white" stroke-miterlimit="10" stroke-linecap="round" stroke-linejoin="round"/>
<path d="M417.575 129.779C417.413 130.588 416.836 131.171 416.286 131.081C415.735 130.991 415.421 130.263 415.582 129.454C415.745 128.645 416.322 128.062 416.872 128.152C417.423 128.242 417.738 128.97 417.575 129.779Z" fill="#263238"/>
<path d="M409.008 128.637C408.846 129.445 408.269 130.029 407.718 129.939C407.168 129.849 406.854 129.121 407.015 128.312C407.178 127.503 407.754 126.92 408.305 127.01C408.856 127.1 409.171 127.827 409.008 128.637Z" fill="#263238"/>
<path d="M407.048 123.79C407.048 123.79 408.862 122.762 411.463 123.79" stroke="#263238" stroke-miterlimit="10" stroke-linecap="round" stroke-linejoin="round"/>
<path d="M416.225 124.361C416.225 124.361 419.097 124.018 421.189 126.417" stroke="#263238" stroke-miterlimit="10" stroke-linecap="round" stroke-linejoin="round"/>
<path d="M414.172 163.906L416.346 170.835L432.084 155.441L427.388 149.033L414.728 160.886L414.172 163.906Z" fill="white" stroke="#263238" stroke-miterlimit="10" stroke-linecap="round" stroke-linejoin="round"/>
<path d="M369.481 232.445C369.481 232.445 366.092 230.743 367.622 230.5C369.152 230.257 371.797 231.229 371.797 231.229C371.797 231.229 368.548 228.919 370.196 229.04C371.845 229.162 374.467 231.107 374.467 231.107C374.467 231.107 373.626 229.04 375.263 229.648C376.9 230.256 377.766 231.228 377.766 231.228C377.766 231.228 375.939 233.295 374.41 233.538C372.88 233.781 373.255 234.025 372.248 233.66C371.24 233.296 369.481 232.445 369.481 232.445Z" fill="white" stroke="#263238" stroke-miterlimit="10" stroke-linecap="round" stroke-linejoin="round"/>
<path d="M392.711 221.586C392.711 221.586 384.032 221.588 382.76 222.585C381.487 223.581 379.761 226.171 379.127 226.57C378.494 226.969 371.619 227.168 371.794 228.563C371.969 229.958 376.129 230.157 376.129 230.157L373.143 233.146C373.143 233.146 366.741 230.954 366.297 232.15C365.853 233.346 373.078 235.936 374.744 235.936C376.409 235.936 379.764 234.94 380.403 234.342C381.041 233.744 387.892 227.788 387.892 227.788C388.191 228.447 393.17 227.336 393.384 226.64C393.571 226.031 392.711 221.586 392.711 221.586Z" fill="white" stroke="#263238" stroke-miterlimit="10" stroke-linecap="round" stroke-linejoin="round"/>
<path d="M376.129 230.157C376.129 230.157 379.942 230.5 381.472 230.257C383.002 230.014 384.829 227.947 384.829 227.947" stroke="#263238" stroke-miterlimit="10" stroke-linecap="round" stroke-linejoin="round"/>
<path d="M434.982 175.064L426.621 207.544L392.712 221.585L393.606 228.69C393.606 228.69 422.741 225.508 429.85 223.817C436.96 222.125 445.731 217.388 446.878 213.666C448.026 209.944 453.831 170.158 453.726 167.112C453.62 164.068 453.275 163.729 451.881 162.883C450.487 162.037 440.103 160.176 440.103 160.176" fill="white"/>
<path d="M434.982 175.064L426.621 207.544L392.712 221.585L393.606 228.69C393.606 228.69 422.741 225.508 429.85 223.817C436.96 222.125 445.731 217.388 446.878 213.666C448.026 209.944 453.831 170.158 453.726 167.112C453.62 164.068 453.275 163.729 451.881 162.883C450.487 162.037 440.103 160.176 440.103 160.176" stroke="#263238" stroke-miterlimit="10" stroke-linecap="round" stroke-linejoin="round"/>
<path d="M397.882 219.725L399.125 226.999" stroke="#263238" stroke-miterlimit="10" stroke-linecap="round" stroke-linejoin="round"/>
<path d="M359.534 217.711C359.534 217.711 365.17 218.557 364.505 224.308" stroke="#263238" stroke-miterlimit="10" stroke-linecap="round" stroke-linejoin="round"/>
<path d="M356.128 219.74L351.356 221.946C351.356 221.946 348.252 221.149 347.419 221.149C346.586 221.149 345.522 222.145 343.048 221.149C340.573 220.152 338.523 218.757 338.481 220.551C338.439 222.344 339.655 223.739 340.896 224.137C342.136 224.536 343.578 225.133 343.578 225.133L335.698 232.706C335.698 232.706 331.654 236.492 332.681 237.089C333.707 237.687 342.914 235.694 344.381 235.296C345.848 234.898 354.25 231.709 355.536 230.115C356.822 228.521 357.47 227.525 357.47 227.525L361.096 226.506C361.096 226.506 360.183 221.52 356.128 219.74Z" stroke="#263238" stroke-miterlimit="10" stroke-linecap="round" stroke-linejoin="round"/>
<path d="M352.673 227.924C352.673 227.924 348.523 227.326 346.839 228.124C345.154 228.921 342.78 232.508 342.78 232.508C342.78 232.508 337.33 234.102 336.053 235.298" stroke="#263238" stroke-miterlimit="10" stroke-linecap="round" stroke-linejoin="round"/>
<path d="M650.239 377.44H16.7119" stroke="#263238" stroke-miterlimit="10" stroke-linecap="round" stroke-linejoin="round"/>
<path d="M151.956 254.545C151.956 254.545 152.743 259.738 153.455 261.326C154.166 262.914 154.876 265.182 153.929 266.77C152.981 268.358 145.365 271.606 145.365 271.606L145.16 251.345L151.585 250.369L151.956 254.545Z" fill="white" stroke="#263238" stroke-miterlimit="10" stroke-linecap="round" stroke-linejoin="round"/>
<path d="M150.099 259.343C150.099 259.343 149.9 261.552 149.425 264.047C148.95 266.542 148.858 269.432 146.014 269.206" fill="white"/>
<path d="M150.099 259.343C150.099 259.343 149.9 261.552 149.425 264.047C148.95 266.542 148.858 269.432 146.014 269.206" stroke="#263238" stroke-miterlimit="10" stroke-linecap="round" stroke-linejoin="round"/>
<path d="M143.975 164.919L148.715 214.597L152.032 252.252L144.216 252.475L140.183 218.906L143.975 164.919Z" fill="white" stroke="#263238" stroke-miterlimit="10" stroke-linecap="round" stroke-linejoin="round"/>
<path d="M93.3745 223.391C93.3745 223.391 91.0772 242.755 91.5457 245.245C92.0142 247.735 93.6019 303.615 93.6019 303.615C93.6019 303.615 90.1366 323.256 90.2675 326.852C90.3984 330.448 91.5484 370.007 91.5484 370.007C91.5484 370.007 89.1969 377.476 88.835 379.136C88.473 380.796 88.9415 383.286 90.0734 383.839C91.2054 384.392 98.6831 385.222 101.887 384.669C105.09 384.116 108.871 383.562 109.62 379.69C110.368 375.818 108.01 370.284 108.372 368.625C108.734 366.965 109.158 363.922 109.242 361.986C109.327 360.05 109.4 358.39 109.4 358.39C109.4 358.39 115.342 321.874 115.391 320.768C115.439 319.662 118.983 285.082 118.983 285.082C118.983 285.082 118.575 333.769 118.235 341.515C117.895 349.261 116.65 357.837 116.601 358.943C116.552 360.049 115.378 373.605 115.618 374.711C115.858 375.818 117.845 376.647 119.567 376.923C121.289 377.2 125.926 376.923 126.792 376.923C127.66 376.923 133.957 378.307 138.003 378.307C142.05 378.307 146.698 377.754 145.94 375.264C145.183 372.774 138.645 370.284 136.671 369.178C134.697 368.071 132.098 361.432 132.098 361.432C132.098 361.432 134.063 356.176 134.185 353.41C134.307 350.643 143.032 309.978 144.398 298.636C145.763 287.295 144.571 235.564 144.571 235.564L145.638 223.671C145.641 223.671 111.592 229.753 93.3745 223.391Z" fill="#263238" stroke="#263238" stroke-miterlimit="10" stroke-linecap="round" stroke-linejoin="round"/>
<path d="M102.264 150.174C102.264 150.174 90.889 159.021 85.6752 161.743C80.4614 164.465 74.5363 168.095 74.5363 168.095C74.5363 168.095 67.6634 223.671 68.3747 225.712C69.086 227.754 71.9294 257.016 71.9294 257.016L82.357 256.562L84.9639 220.948L90.4151 203.709L91.1264 224.124C91.1264 224.124 90.6525 227.073 93.2594 228.207C95.8663 229.342 118.617 231.383 129.993 230.703C141.369 230.022 144.924 225.939 145.397 223.671C145.871 221.403 146.58 181.571 146.816 177.262C147.054 172.952 144.715 161.692 139.088 155.404C137.546 153.681 120.276 150.629 120.276 150.629C120.276 150.629 108.426 146.998 102.264 150.174Z" fill="white" stroke="#263238" stroke-miterlimit="10" stroke-linecap="round" stroke-linejoin="round"/>
<path d="M117.093 160.78L123.52 169.102L121.251 219.759C121.251 219.759 126.165 225.91 126.922 226.996C127.678 228.082 133.726 218.312 133.726 218.312L126.543 169.825L129.567 161.141L127.852 156.061L119.36 153.543L117.093 160.78Z" fill="#0575E6" stroke="#263238" stroke-miterlimit="10" stroke-linecap="round" stroke-linejoin="round"/>
<path d="M122.589 189.878L128.934 185.97L127.843 178.601L122.959 181.608L122.589 189.878Z" fill="#263238"/>
<path d="M123.518 169.102L123.383 172.132L126.581 170.082L126.543 169.826L129.567 161.142L129.258 160.226L120.835 165.626L123.518 169.102Z" fill="#263238"/>
<path d="M133.726 218.312L132.86 212.469L121.337 217.829L121.25 219.759C121.25 219.759 122.955 221.893 124.511 223.87L132.576 220.118C133.262 219.061 133.726 218.312 133.726 218.312Z" fill="#263238"/>
<path d="M122.117 200.389L121.743 208.754L131.397 202.594L130.297 195.17L122.117 200.389Z" fill="#263238"/>
<path d="M90.4148 203.709L99.1833 185.108" stroke="#263238" stroke-miterlimit="10" stroke-linecap="round" stroke-linejoin="round"/>
<path d="M125.057 163.828L129.815 150.166L123.471 147.13L125.057 163.828Z" fill="white" stroke="#263238" stroke-miterlimit="10" stroke-linecap="round" stroke-linejoin="round"/>
<path d="M129.815 150.166L136.159 157.566L127.852 156.061L129.815 150.166Z" fill="white" stroke="#263238" stroke-miterlimit="10" stroke-linecap="round" stroke-linejoin="round"/>
<path d="M122.48 107.281C122.48 107.281 124.661 116.01 127.039 121.134C129.419 126.257 130.013 129.483 129.22 134.606C128.427 139.73 128.427 142.006 127.238 142.576C126.048 143.145 122.876 143.714 122.876 143.714L125.057 163.828L120.101 157.187L104.042 142.576L95.3196 120.374C95.3196 120.374 90.7603 115.061 96.707 108.42C102.656 101.778 118.515 102.537 122.48 107.281Z" fill="white" stroke="#263238" stroke-miterlimit="10" stroke-linecap="round" stroke-linejoin="round"/>
<path d="M97.5014 127.016L100.277 125.877C100.277 125.877 97.8977 123.98 98.6912 121.133C99.4846 118.287 107.612 116.579 106.621 114.302C105.63 112.025 96.3117 111.645 102.458 108.989C108.603 106.332 119.508 109.938 123.076 110.317C126.644 110.697 123.274 103.296 123.274 103.296C123.274 103.296 129.618 102.158 124.662 97.7936C119.705 93.4295 99.286 96.0854 93.5369 101.968C87.7878 107.851 88.9776 112.595 90.7612 115.821C92.5458 119.047 95.7178 126.637 95.7178 126.637L97.5014 127.016Z" fill="#263238" stroke="#263238" stroke-miterlimit="10" stroke-linecap="round" stroke-linejoin="round"/>
<path d="M100.277 128.155C100.277 128.155 96.3111 124.17 94.1312 126.067C91.9503 127.964 95.1223 132.709 97.6994 134.416C100.277 136.124 102.656 134.037 102.656 134.037" fill="white"/>
<path d="M100.277 128.155C100.277 128.155 96.3111 124.17 94.1312 126.067C91.9503 127.964 95.1223 132.709 97.6994 134.416C100.277 136.124 102.656 134.037 102.656 134.037" stroke="#263238" stroke-miterlimit="10" stroke-linecap="round" stroke-linejoin="round"/>
<path d="M122.48 114.492C122.48 114.492 120.498 112.974 119.507 115.061C118.516 117.149 119.111 119.425 119.111 119.425L125.455 128.534L119.309 129.862" stroke="#263238" stroke-miterlimit="10" stroke-linecap="round" stroke-linejoin="round"/>
<path d="M121.489 133.467C121.489 133.467 117.326 135.175 113.163 131.949" stroke="#263238" stroke-miterlimit="10" stroke-linecap="round" stroke-linejoin="round"/>
<path d="M114.154 116.199C114.154 116.199 109 114.302 106.423 118.856" stroke="#263238" stroke-miterlimit="10" stroke-linecap="round" stroke-linejoin="round"/>
<path d="M113.658 124.169C114.37 124.169 114.947 123.319 114.947 122.271C114.947 121.224 114.37 120.374 113.658 120.374C112.946 120.374 112.369 121.224 112.369 122.271C112.369 123.319 112.946 124.169 113.658 124.169Z" fill="#263238"/>
<path d="M124.86 119.805C124.86 120.853 124.283 121.702 123.57 121.702C122.859 121.702 122.281 120.853 122.281 119.805C122.281 118.757 122.858 117.907 123.57 117.907C124.283 117.907 124.86 118.757 124.86 119.805Z" fill="#263238"/>
<path d="M122.877 143.714L113.758 142.955L123.869 155.479L122.877 143.714Z" fill="#263238" stroke="#263238" stroke-miterlimit="10"/>
<path d="M104.043 142.576L99.8799 149.596L112.964 167.623L120.101 157.187L104.043 142.576Z" fill="white" stroke="#263238" stroke-miterlimit="10" stroke-linecap="round" stroke-linejoin="round"/>
<path d="M89.7097 279.046H68.4844V270.425C68.4844 268.374 70.222 266.711 72.3649 266.711H85.83C87.9729 266.711 89.7106 268.373 89.7106 270.425L89.7097 279.046Z" stroke="#263238" stroke-width="4" stroke-miterlimit="10" stroke-linecap="round" stroke-linejoin="round"/>
<path d="M105.519 317.331H52.0933C49.2436 317.331 46.9346 315.12 46.9346 312.393V281.512C46.9346 278.785 49.2445 276.574 52.0933 276.574H105.519C108.369 276.574 110.678 278.785 110.678 281.512V312.393C110.678 315.12 108.369 317.331 105.519 317.331Z" fill="#636363" stroke="#263238" stroke-miterlimit="10" stroke-linecap="round" stroke-linejoin="round"/>
<path d="M82.357 256.562C82.357 256.562 84.0161 259.057 85.6752 261.325C87.3343 263.593 90.4151 264.728 90.1777 265.862C89.9412 266.997 88.5186 267.677 87.5708 267.45C86.623 267.223 82.8309 264.274 82.8309 264.274L83.5422 270.172C83.5422 270.172 84.49 272.214 82.8309 272.894C81.1718 273.575 78.8023 273.575 78.3284 272.894C77.8545 272.214 77.3806 271.08 77.3806 271.08C77.3806 271.08 73.352 271.08 72.1668 270.399C70.9816 269.718 69.5599 268.585 69.7964 265.636C70.0338 262.687 71.9294 257.016 71.9294 257.016L82.357 256.562Z" fill="white" stroke="#263238" stroke-miterlimit="10" stroke-linecap="round" stroke-linejoin="round"/>
<path d="M253.017 242.927H229.503V251.367H253.017V242.927Z" fill="white" stroke="#263238" stroke-miterlimit="10" stroke-linecap="round" stroke-linejoin="round"/>
<path d="M286.766 246.865H195.754C193.694 246.865 192.023 245.266 192.023 243.294V182.334C192.023 180.363 193.693 178.763 195.754 178.763H286.766C288.826 178.763 290.497 180.362 290.497 182.334V243.294C290.496 245.266 288.826 246.865 286.766 246.865Z" fill="#263238" stroke="#263238" stroke-miterlimit="10" stroke-linecap="round" stroke-linejoin="round"/>
<path d="M192.023 235.894V243.295C192.023 245.266 193.693 246.865 195.754 246.865H286.766C288.826 246.865 290.497 245.267 290.497 243.295V235.894H192.023Z" fill="white" stroke="#263238" stroke-miterlimit="10" stroke-linecap="round" stroke-linejoin="round"/>
<path d="M353.804 179.095L323.591 179.334C323.591 179.334 321.594 179.095 321.094 180.529C321.094 180.529 315.851 193.196 315.601 197.738C315.351 202.279 316.6 201.562 314.602 207.537C312.604 213.512 306.861 227.613 303.614 239.086C299.252 254.505 298.114 270.869 297.838 286.784C297.794 289.338 296.199 311.312 300.352 311.312C303.798 311.312 335.587 315.344 335.97 309.479C337.497 286.1 333.086 263.256 341.57 240.518C344.864 231.688 348.643 222.361 351.439 213.123C354.245 203.847 354.723 194.284 356.551 184.831C357.8 178.378 353.804 179.095 353.804 179.095Z" fill="#263238" stroke="#263238" stroke-miterlimit="10"/>
<path d="M356.763 181.958C356.466 178.621 353.804 179.095 353.804 179.095L323.591 179.334C323.591 179.334 321.594 179.095 321.095 180.529C321.095 180.529 315.851 193.196 315.601 197.738C315.504 199.493 315.632 200.463 315.708 201.337L316.35 202.279C316.35 202.279 317.348 210.644 329.334 211.122C341.32 211.6 348.062 206.342 350.558 201.323C353.055 196.304 354.055 188.178 356.052 183.398C356.253 182.917 356.5 182.437 356.763 181.958Z" fill="#BABABA" stroke="#263238" stroke-miterlimit="10" stroke-linecap="round" stroke-linejoin="round"/>
<path d="M349.759 191.294C347.733 198.276 348.949 200.216 346.922 212.24C344.896 224.264 337.601 237.841 334.764 250.253C331.927 262.665 333.143 306.497 333.548 308.437C333.703 309.175 333.739 310.364 333.725 311.553C335.085 311.067 335.91 310.394 335.969 309.479C337.496 286.1 333.084 263.256 341.568 240.517C344.863 231.687 348.643 222.36 351.437 213.122C354.244 203.846 354.721 194.283 356.55 184.83C357.317 180.865 356.105 179.611 355.056 179.231L355.026 179.269C355.026 179.269 351.785 184.311 349.759 191.294Z" fill="#BABABA" stroke="#263238" stroke-miterlimit="10" stroke-linecap="round" stroke-linejoin="round"/>
<path d="M291.403 367.783L291.201 367.628V340.63H295.254V323.563H280.259V340.63H284.311V368.092L248.446 379.032V381.747C248.446 383.461 249.898 384.851 251.689 384.851C253.479 384.851 254.931 383.461 254.931 381.747V381.359L284.919 378.022V382.135C284.919 383.635 286.189 384.851 287.756 384.851C289.323 384.851 290.593 383.635 290.593 382.135V377.887L321.797 381.36V381.748C321.797 383.462 323.248 384.852 325.038 384.852C326.829 384.852 328.281 383.462 328.281 381.748V379.033L291.403 367.783Z" fill="#263238" stroke="#263238" stroke-miterlimit="10"/>
<path d="M334.657 326.708H244.599C242.605 326.708 240.988 325.16 240.988 323.252V310.368C240.988 308.459 242.605 306.912 244.599 306.912H334.657C336.651 306.912 338.268 308.459 338.268 310.368V323.252C338.268 325.161 336.652 326.708 334.657 326.708Z" fill="#263238" stroke="#263238" stroke-miterlimit="10"/>
<path d="M201.485 383.455H197.446L194.817 270.712H205.018L201.485 383.455Z" fill="#263238" stroke="#263238" stroke-miterlimit="10"/>
<path d="M401.232 383.455H397.193L394.564 270.712H404.764L401.232 383.455Z" fill="#263238" stroke="#263238" stroke-miterlimit="10"/>
<path d="M174.03 253.273L177.505 387.443H181.688L185.163 276.193H421.09L424.116 387.443H430.446L431.803 253.273H174.03Z" fill="white" stroke="#263238" stroke-miterlimit="10" stroke-linecap="round" stroke-linejoin="round"/>
<path d="M431.611 256.494H174.146V260.206H431.611V256.494Z" fill="#757575" stroke="#263238" stroke-miterlimit="10"/>
<path d="M433.613 251.073H168.599V256.939H433.613V251.073Z" fill="white" stroke="#263238" stroke-miterlimit="10" stroke-linecap="round" stroke-linejoin="round"/>
<path d="M200.14 41.5733C200.119 41.4202 200.128 41.2591 200.169 41.1005C200.338 40.4623 200.991 40.0787 201.629 40.2474C201.973 40.3373 202.313 40.4312 202.65 40.529C203.284 40.7127 203.652 41.3745 203.472 42.0107C203.289 42.6474 202.627 43.0146 201.993 42.8309C201.67 42.7381 201.349 42.6487 201.024 42.5668C200.54 42.4365 200.206 42.0363 200.14 41.5733ZM212.155 46.4453C212.119 46.1947 212.16 45.9332 212.294 45.6977C212.617 45.1193 213.345 44.9132 213.923 45.2326C217.743 47.3551 221.534 50.0285 225.189 53.1866C225.687 53.6202 225.745 54.3756 225.311 54.8738C224.877 55.372 224.121 55.4293 223.622 54.9957C220.094 51.9477 216.44 49.3649 212.76 47.3256C212.42 47.1358 212.206 46.8039 212.155 46.4453ZM231.706 62.6934C231.652 62.3105 231.786 61.9044 232.095 61.6298C232.591 61.1903 233.347 61.2359 233.787 61.7312C236.613 64.9141 239.472 68.5222 242.288 72.463C242.674 73.0014 242.549 73.7471 242.01 74.1323C241.471 74.5176 240.725 74.3924 240.339 73.854C237.572 69.9844 234.765 66.44 231.998 63.3198C231.833 63.1336 231.738 62.9162 231.706 62.6934ZM246.761 83.2857C246.697 82.8331 246.897 82.3645 247.308 82.1039C247.865 81.7515 248.607 81.9199 248.96 82.4772C250.68 85.2059 252.396 88.0062 254.061 90.718L256.095 94.0308C256.442 94.5961 256.266 95.3313 255.704 95.6772C255.142 96.0231 254.402 95.8473 254.056 95.2855L252.017 91.9662C250.361 89.2639 248.645 86.4671 246.934 83.7513C246.842 83.6045 246.784 83.4458 246.761 83.2857ZM260.296 104.935C260.233 104.493 260.423 104.029 260.823 103.766C261.375 103.404 262.118 103.555 262.481 104.107C265.239 108.283 267.805 111.862 270.325 115.042C270.736 115.559 270.648 116.314 270.126 116.721C269.609 117.132 268.854 117.043 268.445 116.522C265.885 113.284 263.28 109.654 260.482 105.42C260.38 105.274 260.32 105.105 260.296 104.935ZM276.136 124.901C276.085 124.542 276.198 124.164 276.471 123.887C276.938 123.42 277.695 123.416 278.166 123.882C279.511 125.218 280.894 126.5 282.275 127.689C284.21 129.354 286.276 130.937 288.418 132.384C288.965 132.754 289.109 133.497 288.74 134.047C288.37 134.593 287.626 134.737 287.076 134.368C284.855 132.867 282.714 131.232 280.709 129.502C279.284 128.273 277.86 126.954 276.474 125.581C276.284 125.391 276.171 125.152 276.136 124.901ZM296.999 139.376C296.968 139.157 296.996 138.929 297.094 138.716C297.367 138.113 298.076 137.849 298.679 138.122C302.679 139.935 306.916 141.413 311.273 142.515C311.914 142.676 312.302 143.328 312.14 143.969C311.979 144.609 311.327 144.996 310.685 144.835C306.189 143.7 301.817 142.174 297.688 140.301C297.304 140.125 297.055 139.769 296.999 139.376ZM321.583 145.898C321.57 145.804 321.567 145.709 321.578 145.612C321.641 144.953 322.23 144.475 322.886 144.539C327.305 144.975 331.797 145.049 336.243 144.753C336.905 144.709 337.474 145.211 337.518 145.869C337.562 146.53 337.063 147.098 336.402 147.142C331.828 147.445 327.201 147.369 322.652 146.919C322.09 146.864 321.659 146.431 321.583 145.898ZM346.98 144.458C346.893 143.842 347.296 143.256 347.913 143.122C352.299 142.174 356.59 140.856 360.665 139.196C361.276 138.946 361.975 139.242 362.225 139.852C362.476 140.463 362.181 141.162 361.569 141.412C357.366 143.122 352.94 144.484 348.419 145.458C347.774 145.595 347.137 145.185 346.996 144.541C346.992 144.513 346.984 144.486 346.98 144.458ZM370.607 135.09C370.542 134.63 370.749 134.157 371.167 133.902C374.989 131.561 378.56 128.857 381.775 125.873C382.259 125.425 383.016 125.452 383.469 125.935C383.918 126.419 383.89 127.175 383.407 127.627C380.076 130.72 376.38 133.519 372.421 135.944C371.858 136.29 371.119 136.114 370.772 135.549C370.684 135.402 370.63 135.246 370.607 135.09Z" fill="black"/>
</svg>
