<svg width="1440" height="4680" viewBox="0 0 1440 4680" fill="none" xmlns="http://www.w3.org/2000/svg">
<g clip-path="url(#clip0_210_2782)">
<rect width="1440" height="4680" fill="white"/>
<g opacity="0.09">
<mask id="mask0_210_2782" style="mask-type:alpha" maskUnits="userSpaceOnUse" x="-73" y="0" width="1546" height="1823">
<rect x="-72.5" y="0.5" width="1545" height="1822" rx="23.5" fill="#D1D1D1" stroke="#F7F7F7"/>
</mask>
<g mask="url(#mask0_210_2782)">
<path d="M536.477 55.9556C671.256 101.859 454.245 504.055 1107.31 504.055C1452.18 504.055 1377.86 832.661 1585.97 855.977" stroke="black"/>
<path d="M801.084 -131.151C935.864 -85.2482 718.852 316.948 1371.91 316.948C1716.79 316.948 1642.46 645.555 1850.58 668.871" stroke="black"/>
<path d="M-271 257.351C-52.251 228.219 395.611 228.178 305.777 399.943C157.123 684.172 507.121 963.41 1441.49 1018.61" stroke="black"/>
<path d="M-572.477 363.29C-302.079 327.338 251.529 327.287 140.483 539.265C-43.2692 890.035 389.368 1234.65 1544.35 1302.77" stroke="black"/>
<path d="M-851.946 540.532C-545.849 499.819 80.847 499.761 -44.859 739.809C-252.871 1137.03 236.884 1527.28 1544.35 1604.41" stroke="black"/>
</g>
</g>
<g filter="url(#filter0_f_210_2782)">
<circle cx="-471.736" cy="1734.46" r="291.949" fill="#0575E6"/>
</g>
<g opacity="0.09">
<mask id="mask1_210_2782" style="mask-type:alpha" maskUnits="userSpaceOnUse" x="-53" y="-400" width="1546" height="1823">
<rect x="-52.5" y="-399.5" width="1545" height="1822" rx="23.5" fill="#D1D1D1" stroke="#F7F7F7"/>
</mask>
<g mask="url(#mask1_210_2782)">
<path d="M556.477 -344.044C691.256 -298.141 474.245 104.055 1127.31 104.055C1472.18 104.055 1397.86 432.661 1605.97 455.977" stroke="#F7F7F7"/>
<path d="M821.084 -531.151C955.864 -485.248 738.852 -83.0516 1391.91 -83.0516C1736.79 -83.0516 1662.46 245.555 1870.58 268.87" stroke="#F7F7F7"/>
<path d="M-251 -142.649C-32.251 -171.781 415.611 -171.822 325.777 -0.0571689C177.123 284.172 527.121 563.41 1461.49 618.607" stroke="#F7F7F7"/>
<path d="M-552.477 -36.7098C-282.079 -72.6616 271.529 -72.7132 160.483 139.265C-23.2692 490.035 409.368 834.648 1564.35 902.767" stroke="#F7F7F7"/>
<path d="M-831.946 140.532C-525.849 99.8195 100.847 99.761 -24.859 339.809C-232.871 737.029 256.884 1127.28 1564.35 1204.41" stroke="#F7F7F7"/>
</g>
</g>
<g opacity="0.3" filter="url(#filter1_f_210_2782)">
<circle cx="1383.74" cy="67" r="291.949" fill="#0575E6"/>
</g>
</g>
<defs>
<filter id="filter0_f_210_2782" x="-1427.68" y="778.516" width="1911.9" height="1911.9" filterUnits="userSpaceOnUse" color-interpolation-filters="sRGB">
<feFlood flood-opacity="0" result="BackgroundImageFix"/>
<feBlend mode="normal" in="SourceGraphic" in2="BackgroundImageFix" result="shape"/>
<feGaussianBlur stdDeviation="332" result="effect1_foregroundBlur_210_2782"/>
</filter>
<filter id="filter1_f_210_2782" x="427.791" y="-888.949" width="1911.9" height="1911.9" filterUnits="userSpaceOnUse" color-interpolation-filters="sRGB">
<feFlood flood-opacity="0" result="BackgroundImageFix"/>
<feBlend mode="normal" in="SourceGraphic" in2="BackgroundImageFix" result="shape"/>
<feGaussianBlur stdDeviation="332" result="effect1_foregroundBlur_210_2782"/>
</filter>
<clipPath id="clip0_210_2782">
<rect width="1440" height="4680" fill="white"/>
</clipPath>
</defs>
</svg>
