<svg width="42" height="42" viewBox="0 0 42 42" fill="none" xmlns="http://www.w3.org/2000/svg">
<path d="M34.8903 28.5672L38.4065 18.0188C41.4781 8.80386 43.0139 4.1964 40.5818 1.76429C38.1497 -0.667825 33.5423 0.867993 24.3273 3.93963L13.779 7.45576C6.34162 9.93487 2.62296 11.1744 1.56622 12.9921C0.560934 14.7214 0.560934 16.8571 1.56622 18.5863C2.62296 20.404 6.34162 21.6436 13.779 24.1227C14.7007 24.4299 15.7376 24.2105 16.4278 23.5267L27.7061 12.353C28.3406 11.7243 29.3645 11.7291 29.9932 12.3636C30.6218 12.9981 30.617 14.0221 29.9825 14.6507L18.8864 25.644C18.1256 26.3977 17.8848 27.5513 18.2235 28.5672C20.7025 36.0045 21.9421 39.7232 23.7598 40.7799C25.489 41.7852 27.6247 41.7852 29.354 40.7799C31.1717 39.7232 32.4113 36.0045 34.8903 28.5672Z" fill="white"/>
</svg>
