<svg width="547" height="546" viewBox="0 0 547 546" fill="none" xmlns="http://www.w3.org/2000/svg">
<path d="M396.028 134.988C395.809 136.95 395.919 139.457 397.778 140.002C399.31 140.438 400.732 139.13 401.826 137.931C413.204 125.069 423.269 111.008 431.802 96.0753C423.925 92.4783 408.171 84.1943 403.248 94.5493C397.888 105.776 397.56 122.78 396.028 134.988Z" fill="white"/>
<path d="M414.626 154.826C433.771 150.139 452.369 143.381 469.982 134.661C474.905 132.263 480.157 129.211 482.235 124.197C484.97 117.548 481.141 106.43 474.905 102.506C467.357 97.7103 459.48 107.302 454.01 111.989C439.241 124.633 426.004 139.021 414.626 154.826Z" fill="white"/>
<path d="M425.457 177.389C432.786 182.185 441.648 184.365 450.4 184.91C457.511 185.346 473.811 186.981 477.75 181.095C481.469 175.536 479.938 165.726 473.921 162.674C461.121 156.352 436.287 171.612 425.457 177.389Z" fill="white"/>
<path d="M49.3394 390.484C49.4488 399.204 51.418 407.924 55.3564 415.772C56.6692 418.388 58.4196 421.113 61.1546 421.876C64.3272 422.857 67.4998 421.004 70.3442 419.26C82.9252 411.412 97.366 403.564 108.197 393.536C105.899 387.868 86.6448 389.176 81.0654 388.958C70.4536 388.631 59.8418 389.176 49.3394 390.484Z" fill="#111111"/>
<path d="M92.9901 429.615C89.8175 431.468 86.3167 433.866 85.7697 437.463C85.2227 441.496 88.5047 444.875 91.4585 447.6C93.7559 449.671 96.4909 451.851 99.5541 451.197C101.961 450.652 103.492 448.472 104.805 446.401C107.868 441.605 122.419 422.203 120.668 416.753C119.355 412.72 97.2567 427.108 92.9901 429.615Z" fill="#111111"/>
<path d="M102.508 503.408C109.728 508.313 118.261 510.711 127.013 510.275C129.42 510.275 131.827 509.621 133.796 508.313C136.859 505.915 137.406 501.555 137.516 497.74C137.844 491.091 138.391 445.42 127.67 450.434C122.309 452.941 116.62 470.054 114.104 475.395C109.838 484.551 105.899 493.816 102.508 503.408Z" fill="#111111"/>
<path d="M82.3782 118.311C76.58 121.363 34.1328 130.301 31.8354 136.405C29.9756 141.31 36.649 151.992 37.8524 157.006C67.7186 282.029 160.709 383.072 202.281 504.607C280.72 495.015 355.003 454.903 405.874 394.626C413.532 385.579 420.752 375.66 422.94 364.106C426.441 344.813 415.282 326.392 405.218 309.497C365.177 241.808 339.249 166.816 328.856 88.9903C326.778 73.7303 324.262 56.2903 311.352 47.6793C300.631 40.4853 286.3 42.1203 273.938 45.9353C215.299 64.0293 242.977 51.9303 186.636 77.2183C170.117 84.6303 98.46 109.809 82.3782 118.311Z" fill="#111111"/>
<path d="M134.781 281.375C167.163 349.282 204.031 416.535 217.706 490.437C309.383 474.414 393.949 430.923 460.246 365.959C445.148 306.445 414.845 252.054 391.652 195.156C368.459 138.258 352.268 75.4743 366.818 15.7423C315.4 -2.67871 203.265 21.1923 144.08 51.4943C133.796 56.8353 123.075 61.5223 112.135 65.2283C103.602 68.0623 88.395 67.7353 79.643 69.0433C74.0636 69.8063 77.455 84.7393 77.8926 93.0233C78.4396 105.558 79.8618 118.093 81.9404 130.41C86.0976 155.153 92.9898 179.351 101.523 202.895C111.041 229.818 122.637 255.76 134.781 281.375Z" fill="white"/>
<path d="M217.815 491.309C217.378 491.309 217.049 490.982 217.049 490.655C205.453 428.307 177.009 369.883 149.44 313.421C144.408 303.066 139.157 292.275 134.124 281.702C119.465 250.855 109.072 226.657 100.757 203.222C91.4582 177.28 85.0036 153.518 81.1746 130.628C79.096 118.202 77.6738 105.667 77.1268 93.1323C77.0174 91.1703 76.7986 88.8813 76.4704 86.4833C75.4858 77.8723 74.5012 69.0433 79.5336 68.2803C82.7062 67.8443 86.5352 67.6263 90.6924 67.2993C98.1316 66.8633 106.446 66.3183 111.916 64.4653C122.856 60.6503 133.577 56.0723 143.751 50.7313C173.399 35.5803 216.174 22.0643 258.184 14.5433C304.569 6.25928 343.297 6.47728 367.146 14.9793C367.584 15.0883 367.803 15.5243 367.693 15.9603C355.331 66.2093 363.317 123.107 392.527 194.829C399.966 213.032 408.281 231.344 416.267 249.002C433.224 286.498 450.837 325.193 461.23 365.741C461.34 366.068 461.23 366.286 461.011 366.504C394.496 431.577 309.821 475.068 218.034 491.2L217.815 491.309ZM320.104 10.1833C301.944 10.1833 281.158 12.2543 258.403 16.2873C216.612 23.6993 173.946 37.1063 144.517 52.2573C134.234 57.7073 123.403 62.2853 112.463 66.1003C106.774 67.9533 98.3504 68.4983 90.9112 69.0433C86.754 69.2613 82.925 69.5883 79.8618 70.0243C76.361 70.5693 77.3456 79.2893 78.1114 86.3743C78.3302 88.8813 78.6584 91.1703 78.7678 93.1323C79.3148 105.667 80.737 118.093 82.8156 130.41C86.6446 153.191 93.0992 176.844 102.289 202.786C110.603 226.112 120.887 250.201 135.546 281.048C140.579 291.621 145.83 302.303 150.862 312.658C178.322 369.011 206.656 427.217 218.472 489.456C309.492 473.324 393.512 430.16 459.589 365.632C449.306 325.411 431.802 286.934 414.845 249.656C406.858 231.998 398.544 213.686 391.105 195.483C361.895 123.761 353.909 66.7543 366.052 16.2873C354.018 12.2543 338.483 10.1833 320.104 10.1833Z" fill="#111111"/>
<path d="M287.941 425.8L308.399 336.638L291.004 331.624L276.673 404.981L244.618 390.484C242.321 389.394 236.742 400.948 237.398 403.128C238.82 408.033 247.9 409.777 252.058 411.412L287.941 425.8Z" fill="#0575E6"/>
<path d="M306.757 381.873C307.414 383.181 307.961 384.489 308.508 385.906C315.947 406.289 305.445 428.852 284.987 436.264C264.529 443.676 241.883 433.212 234.444 412.829C227.005 392.446 237.507 369.883 257.965 362.471C263.544 360.4 269.561 359.637 275.578 360.291C276.454 356.803 277.329 353.315 278.313 349.827L278.751 348.192C250.416 344.268 224.16 363.888 220.222 392.228C216.284 420.568 235.976 446.619 264.42 450.543C292.864 454.467 319.01 434.847 322.949 406.507C324.808 392.882 321.198 379.039 312.884 368.139C310.696 372.608 308.727 377.295 306.757 381.873Z" fill="#0575E6"/>
<path d="M136.531 136.187L209.063 111.553C215.955 109.264 223.395 112.861 225.692 119.728L253.042 199.843C255.339 206.71 251.729 214.122 244.837 216.411L172.305 241.045C165.413 243.334 157.973 239.737 155.676 232.87L128.326 152.755C125.919 145.997 129.639 138.585 136.531 136.187Z" fill="#0575E6"/>
<path d="M157.755 174.119C158.739 177.716 159.943 181.749 163.334 183.275C165.741 184.256 168.476 184.038 170.773 182.621C172.961 181.313 174.821 179.46 176.353 177.389C182.588 168.996 186.855 159.186 188.496 148.94C190.246 138.694 190.356 128.121 188.824 117.766C188.277 113.842 187.402 109.482 184.229 107.084C181.057 104.686 176.571 105.013 172.633 105.885C166.069 107.302 159.724 109.591 153.816 112.861C151.191 114.169 148.893 115.913 146.924 117.984C144.189 121.254 144.08 123.87 145.611 127.467C147.58 132.154 148.456 137.495 149.659 142.4L157.755 174.119Z" fill="white"/>
<path d="M166.288 184.692C165.194 184.692 163.991 184.474 163.006 184.038C159.287 182.294 157.974 178.152 156.989 174.337L148.784 142.836C148.456 141.419 148.128 140.002 147.8 138.476C147.034 134.879 146.049 131.391 144.736 128.012C143.314 124.524 142.986 121.472 146.268 117.657C148.237 115.477 150.644 113.624 153.379 112.316C159.396 109.046 165.741 106.648 172.415 105.34C175.915 104.577 181.057 103.923 184.667 106.648C188.059 109.155 189.043 113.733 189.59 117.875C191.122 128.339 191.013 138.912 189.262 149.267C187.512 159.731 183.245 169.541 176.9 178.043C175.368 180.223 173.399 182.076 171.102 183.493C169.68 184.256 168.039 184.692 166.288 184.692ZM177.885 106.212C176.134 106.212 174.493 106.43 172.852 106.866C166.398 108.283 160.052 110.572 154.254 113.733C151.738 114.932 149.55 116.676 147.581 118.747C145.174 121.581 144.846 123.761 146.377 127.467C147.69 130.955 148.675 134.552 149.441 138.149C149.769 139.566 150.097 141.092 150.425 142.509L158.521 174.01C159.396 177.389 160.599 181.204 163.663 182.621C165.851 183.493 168.367 183.275 170.336 182.076C172.415 180.768 174.274 179.024 175.697 177.062C181.932 168.778 185.98 159.077 187.731 148.94C189.481 138.694 189.59 128.339 188.059 118.093C187.512 114.169 186.637 110.136 183.792 108.065C182.042 106.757 179.963 106.103 177.885 106.212Z" fill="#111111"/>
<path d="M129.967 102.07C127.998 104.577 127.56 107.956 128.545 110.899C124.716 111.662 122.2 115.368 122.965 119.074C123.403 121.472 125.153 123.543 127.56 124.306C125.044 126.704 124.825 130.737 127.341 133.353C128.982 135.097 131.499 135.751 133.796 135.097C136.64 138.258 142.548 137.386 144.408 133.68C146.377 135.86 149.659 136.187 151.956 134.225C152.832 133.462 153.379 132.481 153.707 131.391C157.645 132.263 161.474 129.756 162.349 125.832C162.568 124.851 162.568 123.87 162.349 122.889C165.631 124.088 169.242 122.453 170.445 119.292C170.554 118.965 170.664 118.638 170.664 118.42C172.961 120.382 176.243 120.491 178.65 118.747C178.431 121.799 180.729 124.524 183.792 124.742C183.901 124.742 184.011 124.742 184.229 124.742C182.698 126.813 183.245 129.756 185.323 131.173C186.308 131.936 187.621 132.154 188.824 131.936C186.636 135.86 186.636 140.547 188.824 144.471C187.183 145.779 186.199 147.741 186.089 149.812C186.089 151.883 187.293 153.845 189.152 154.826C191.231 155.807 193.747 155.044 195.935 154.281C198.889 153.518 201.624 152.21 204.14 150.466C207.532 147.632 209.173 143.381 208.516 139.021C213.986 135.533 215.627 128.339 212.126 122.889C211.689 122.235 211.251 121.69 210.814 121.145C213.986 115.477 210.923 107.302 204.797 105.013C207.094 100.217 204.906 94.4403 200.092 92.1513C197.795 91.0613 195.06 90.9523 192.653 91.8243C191.45 88.0093 187.293 85.9383 183.464 87.2463C182.041 87.6823 180.838 88.5543 179.963 89.7533C179.744 85.7203 176.243 82.5593 172.195 82.7773C171.101 82.8863 170.117 83.1043 169.132 83.6493C166.507 81.1423 162.678 80.0523 159.067 80.7063C155.348 81.4693 152.722 83.9763 150.972 87.2463C144.08 82.8863 132.046 90.6253 138.063 98.3643C134.89 98.3643 131.936 99.6723 129.967 102.07Z" fill="#111111"/>
<path d="M167.71 171.939C170.226 169.977 172.086 167.47 173.399 164.527C175.587 165.726 176.353 168.451 175.149 170.631C173.946 172.811 171.211 173.574 169.023 172.375C168.913 172.266 168.804 172.266 168.695 172.157" fill="#111111"/>
<path d="M167.272 142.945C166.507 142.182 165.96 140.874 166.616 140.111C167.163 139.566 168.148 139.457 168.804 139.893C169.461 140.329 170.008 140.874 170.445 141.637C170.773 142.073 170.992 142.509 171.211 142.945C171.539 143.599 171.211 144.362 170.554 144.689C170.117 144.907 169.679 144.798 169.242 144.58C168.695 144.253 168.257 143.817 167.819 143.381" fill="#111111"/>
<path d="M154.582 145.343C153.926 144.907 153.707 144.035 154.145 143.381C154.254 143.272 154.363 143.054 154.473 142.945C155.129 142.618 155.895 142.727 156.551 143.163C157.098 143.599 157.536 144.253 157.864 144.907C158.192 145.343 158.411 145.888 158.411 146.542C158.521 147.087 158.083 147.632 157.536 147.85C156.88 147.85 156.333 147.523 156.004 146.978C155.567 146.542 155.239 145.888 154.692 145.779" fill="#111111"/>
<path d="M151.629 151.011H150.425C149.222 151.011 148.128 150.357 147.471 149.267C147.143 148.722 146.924 148.177 146.706 147.523C146.268 146.324 146.377 145.016 146.924 143.926C147.581 143.163 148.565 142.618 149.55 142.509C149.988 142.4 150.644 142.182 151.41 141.964C153.707 141.201 156.88 140.22 158.411 141.31C160.271 142.727 161.146 147.305 159.834 149.049C159.068 149.921 158.083 150.357 156.989 150.466C155.239 150.902 153.488 151.011 151.629 151.011ZM156.442 141.528C154.801 141.637 153.16 142.073 151.629 142.618C150.863 142.836 150.206 143.054 149.769 143.163C148.894 143.272 148.128 143.599 147.581 144.253C147.143 145.234 147.034 146.324 147.471 147.305C147.69 147.85 147.909 148.395 148.237 148.94C148.675 149.703 149.55 150.248 150.535 150.248C152.723 150.357 154.801 150.139 156.989 149.812C157.864 149.812 158.74 149.376 159.396 148.722C160.49 147.196 159.724 143.163 158.083 141.964C157.536 141.637 156.989 141.528 156.442 141.528Z" fill="#111111"/>
<path d="M167.163 147.196H165.96C164.756 147.196 163.662 146.542 163.006 145.452C162.678 144.907 162.459 144.362 162.24 143.708C161.802 142.509 161.802 141.201 162.459 140.111C163.115 139.348 164.1 138.803 165.084 138.694C165.741 138.585 166.288 138.367 166.944 138.149C169.242 137.386 172.414 136.296 173.946 137.495C175.806 138.912 176.681 143.49 175.368 145.234C174.602 146.106 173.618 146.542 172.524 146.651C170.773 147.087 168.913 147.196 167.163 147.196ZM171.977 137.713C170.336 137.822 168.695 138.258 167.163 138.803C166.397 139.021 165.741 139.239 165.303 139.348C164.428 139.457 163.662 139.784 163.115 140.438C162.678 141.419 162.568 142.509 163.006 143.381C163.225 143.926 163.443 144.471 163.772 145.016C164.209 145.779 165.084 146.324 166.069 146.324C168.257 146.433 170.336 146.324 172.524 145.888C173.399 145.779 174.274 145.452 174.93 144.689C176.024 143.163 175.259 139.13 173.618 137.931C173.071 137.822 172.524 137.713 171.977 137.713Z" fill="#111111"/>
<path d="M159.834 144.798C159.724 144.798 159.505 144.689 159.505 144.58C159.505 144.362 159.615 144.253 159.834 144.144L162.459 143.272C162.678 143.163 162.897 143.272 162.897 143.49C163.006 143.708 162.897 143.926 162.678 143.926L160.052 144.798H159.834Z" fill="#111111"/>
<path d="M175.478 140.983C175.259 140.983 175.149 140.765 175.149 140.547C175.149 140.438 175.259 140.22 175.368 140.22C179.307 139.13 183.464 138.476 187.512 138.149C187.73 138.149 187.84 138.258 187.84 138.476C187.84 138.694 187.73 138.803 187.512 138.803C183.573 139.239 179.525 139.893 175.478 140.983Z" fill="#111111"/>
<path d="M185.871 140.22C187.074 138.585 189.153 137.822 191.122 138.367C193.091 138.912 194.732 140.002 195.936 141.637C197.248 143.272 198.342 145.561 197.467 147.523C196.811 149.158 195.06 150.03 193.419 150.684C190.684 151.665 187.293 151.992 185.214 149.921" fill="white"/>
<path d="M189.371 152.101C187.621 152.21 185.98 151.556 184.667 150.357C184.339 150.03 184.339 149.485 184.667 149.158C184.995 148.831 185.542 148.831 185.761 149.158C187.949 151.338 191.887 150.139 193.091 149.703C195.06 149.049 196.154 148.177 196.701 147.087C197.576 145.016 195.826 142.727 195.279 142.073C194.185 140.656 192.653 139.566 190.903 139.13C189.262 138.694 187.511 139.348 186.417 140.656C186.199 140.983 185.652 141.092 185.323 140.874C184.995 140.656 184.886 140.111 185.105 139.784C186.527 137.931 188.934 137.059 191.231 137.604C193.31 138.149 195.169 139.348 196.592 141.092C198.451 143.381 199.108 145.888 198.233 147.85C197.576 149.376 196.154 150.575 193.747 151.338C192.434 151.883 190.903 152.101 189.371 152.101Z" fill="#111111"/>
<path d="M192.216 147.741C191.997 147.741 191.888 147.523 191.888 147.414C191.888 147.305 191.997 147.087 192.107 147.087C193.091 146.651 193.857 145.67 193.857 144.58C193.857 143.49 193.529 142.4 192.654 141.528L192.435 141.31C191.997 140.874 191.669 140.547 191.231 140.438C190.356 140.438 189.59 140.765 188.934 141.201C188.496 141.419 188.059 141.637 187.621 141.746C187.402 141.855 187.184 141.746 187.184 141.528C187.074 141.31 187.184 141.092 187.402 141.092C187.84 140.983 188.168 140.765 188.606 140.547C189.372 140.002 190.356 139.784 191.341 139.784C191.997 139.893 192.654 140.329 193.091 140.874L193.31 141.092C194.295 142.073 194.732 143.381 194.732 144.689C194.623 146.106 193.748 147.305 192.435 147.741C192.325 147.85 192.216 147.85 192.216 147.741Z" fill="#111111"/>
<path d="M188.605 227.638L226.677 214.667C223.176 209.871 219.784 205.075 216.612 200.061C211.032 191.123 205.344 180.659 195.935 175.1C192.325 173.029 188.715 172.593 185.542 175.645C181.385 179.569 182.588 185.128 183.682 190.033C186.417 202.459 188.058 214.994 188.605 227.638Z" fill="#111111"/>
<path d="M198.561 223.387C198.342 223.387 198.233 223.278 198.233 223.06L198.014 221.752C195.17 205.62 193.091 193.957 184.777 179.351C184.667 179.133 184.777 178.915 184.886 178.806C185.105 178.697 185.324 178.806 185.324 178.915C193.638 193.63 195.717 205.402 198.671 221.534L198.889 222.842C198.889 223.169 198.78 223.278 198.561 223.387Z" fill="white"/>
<path d="M189.699 168.015C191.012 173.574 191.34 179.242 190.793 185.019C188.824 183.493 187.074 181.64 185.433 179.678C185.87 182.621 186.089 185.564 186.089 188.507C183.573 185.782 179.088 181.858 180.51 177.825C181.166 175.863 182.917 173.901 184.339 172.484C184.667 172.048 189.699 168.124 189.699 168.015Z" fill="#111111"/>
<path d="M186.09 189.052C185.98 189.052 185.761 188.943 185.652 188.834L184.667 187.744C182.151 185.019 178.65 181.422 179.963 177.607C180.62 175.536 182.479 173.574 183.902 172.048C184.23 171.721 185.871 170.304 187.949 168.778L189.372 167.579C189.481 167.47 189.59 167.47 189.59 167.47C189.919 167.361 190.137 167.579 190.247 167.906V168.015C191.56 173.574 191.888 179.351 191.341 185.019C191.341 185.237 191.231 185.346 191.013 185.455C190.794 185.564 190.575 185.455 190.466 185.346C188.934 184.147 187.512 182.73 186.199 181.313C186.418 183.711 186.637 186 186.637 188.398C186.637 188.616 186.527 188.834 186.308 188.943C186.199 189.052 186.09 189.052 186.09 189.052ZM189.372 168.996L188.606 169.65C187.293 170.74 184.996 172.593 184.667 172.811C183.355 174.228 181.604 176.081 180.948 177.934C179.854 181.095 182.917 184.365 185.433 186.981C185.324 184.474 185.214 182.076 184.777 179.678C184.777 179.351 184.996 179.133 185.214 179.024C185.433 179.024 185.543 179.024 185.761 179.242C187.074 180.877 188.606 182.403 190.247 183.82C190.684 178.915 190.356 173.901 189.372 168.996Z" fill="#111111"/>
<path d="M235.429 113.515C233.35 113.515 231.6 111.771 231.6 109.7C231.6 108.392 232.365 107.084 233.459 106.43C262.669 89.4263 294.505 77.4363 327.653 71.1143C329.731 70.6783 331.81 71.9863 332.248 74.0573C332.685 76.1283 331.372 78.1993 329.294 78.6353C329.184 78.6353 329.184 78.6353 329.075 78.6353C296.693 84.8483 265.732 96.5113 237.288 113.079C236.851 113.297 236.194 113.515 235.429 113.515Z" fill="#111111"/>
<path d="M246.807 134.879C244.728 134.879 242.978 133.135 242.978 131.064C242.978 129.538 243.853 128.23 245.166 127.576C272.406 115.041 300.413 104.141 328.966 94.8763C330.935 94.2223 333.123 95.3123 333.78 97.2743C334.436 99.2363 333.342 101.416 331.373 102.07C303.148 111.226 275.36 122.017 248.448 134.443C247.901 134.77 247.354 134.879 246.807 134.879Z" fill="#111111"/>
<path d="M258.731 161.693C256.652 161.693 254.902 160.058 254.902 157.878C254.902 156.461 255.668 155.262 256.762 154.608C281.814 140.002 308.289 127.794 335.639 117.875C337.608 117.221 339.796 118.202 340.562 120.164C341.218 121.908 340.453 123.87 338.812 124.851L336.624 126.05C335.967 126.377 335.311 126.486 334.545 126.486C308.945 135.86 284.33 147.523 260.809 161.148C260.153 161.475 259.387 161.693 258.731 161.693Z" fill="#111111"/>
<path d="M269.124 187.962C267.045 187.962 265.295 186.327 265.295 184.147C265.295 182.73 266.061 181.422 267.264 180.768C290.238 167.797 314.306 157.006 339.14 148.395C341.109 147.741 343.297 148.94 343.954 150.902C344.501 152.864 343.516 154.826 341.656 155.589C317.151 163.982 293.52 174.664 270.984 187.308C270.437 187.744 269.78 187.962 269.124 187.962Z" fill="#111111"/>
<path d="M174.055 276.034C172.852 276.034 171.867 275.053 171.867 273.854C171.867 272.982 172.414 272.219 173.18 271.892C234.553 246.386 295.817 218.373 355.222 188.616C356.316 187.962 357.628 188.398 358.175 189.379C358.832 190.469 358.394 191.777 357.41 192.322C357.3 192.322 357.3 192.431 357.191 192.431C297.677 222.297 236.304 250.31 174.821 275.816C174.602 275.925 174.383 276.034 174.055 276.034Z" fill="#111111"/>
<path d="M180.182 298.488C178.978 298.488 177.994 297.507 177.994 296.308C177.994 295.545 178.431 294.782 179.197 294.346C240.023 263.608 302.71 234.396 365.286 207.364C366.38 206.928 367.693 207.473 368.131 208.563C368.568 209.653 368.131 210.852 367.037 211.397C304.46 238.32 241.993 267.532 181.166 298.161C180.838 298.379 180.51 298.488 180.182 298.488Z" fill="#111111"/>
<path d="M193.2 317.89C191.997 317.89 191.012 316.909 191.012 315.71C191.012 314.838 191.559 314.075 192.325 313.748C252.933 289.114 311.79 260.556 368.459 227.965C369.444 227.311 370.866 227.638 371.522 228.619C372.179 229.6 371.85 231.017 370.866 231.671L370.756 231.78C313.868 264.371 254.792 293.147 194.075 317.781C193.857 317.781 193.528 317.89 193.2 317.89Z" fill="#111111"/>
<path d="M276.345 306.772C264.42 324.321 265.186 349.5 278.423 366.177C291.661 382.854 316.385 389.176 335.968 380.892C355.55 372.608 368.022 350.154 364.521 329.226C361.895 313.857 348.111 287.915 331.045 284.754C311.024 280.939 287.832 289.986 276.345 306.772Z" fill="white"/>
<path d="M317.698 385.252C302.6 385.252 287.284 378.494 277.767 366.613C264.31 349.718 263.435 324.321 275.688 306.227C287.175 289.441 310.477 279.958 331.263 283.882C349.424 287.261 362.88 314.62 365.396 329.008C369.006 350.045 356.206 373.153 336.405 381.546C330.388 384.053 324.152 385.361 317.698 385.252ZM321.745 284.754C304.241 284.754 286.519 293.365 277.11 307.208C265.404 324.43 266.28 349.5 279.189 365.632C292.207 381.982 316.604 388.304 335.749 380.129C354.894 371.954 367.256 349.718 363.755 329.335C362.333 321.16 358.066 311.023 352.596 302.848C346.032 293.038 338.374 286.934 331.044 285.517C327.872 285.081 324.809 284.754 321.745 284.754Z" fill="#111111"/>
<path d="M291.551 327.264C290.567 335.875 293.302 344.486 298.99 350.917C306.648 359.201 319.776 362.035 330.279 357.784C341 353.315 348.22 343.178 348.986 331.624C349.752 318.326 341.547 303.284 327.216 303.066C320.98 302.957 309.055 302.521 303.585 304.81C296.584 307.862 292.317 320.179 291.551 327.264Z" fill="#111111"/>
<path d="M307.742 338.818C321.308 354.623 350.627 333.368 335.749 318.98C330.826 314.184 315.947 311.895 309.821 314.838C301.725 318.98 302.71 333.041 307.742 338.818Z" fill="#111111"/>
<path d="M337.827 414.028C332.904 408.796 332.248 401.166 330.716 394.299C328.2 381.982 322.73 370.319 314.963 360.4C311.353 355.822 307.195 351.571 305.007 346.121C302.819 340.671 303.038 333.804 307.524 329.989C312.009 326.174 319.12 326.719 323.605 322.904C328.528 318.762 328.419 311.459 327.763 305.137C326.012 289.223 322.84 272.982 325.684 257.177C328.528 241.372 339.25 225.567 355.113 222.733C360.692 221.752 367.037 222.624 371.085 226.657C374.367 229.818 375.68 234.396 376.993 238.865L387.495 276.143C396.356 269.058 410.469 273.527 417.361 282.465C424.253 291.403 426.004 303.175 427.317 314.402C430.052 336.965 432.568 359.528 433.115 382.2C433.334 390.484 433.115 399.095 429.833 406.725C420.643 427.435 403.905 415.772 387.495 416.862C372.835 417.952 349.643 426.454 337.827 414.028Z" fill="white"/>
<path d="M356.754 421.549C349.205 421.549 342.313 419.914 337.28 414.573C333.014 409.995 331.81 403.673 330.607 397.569C330.388 396.479 330.169 395.498 329.951 394.408C327.434 382.2 322.074 370.646 314.416 360.836C313.65 359.855 312.884 358.874 312.009 357.893C309.165 354.405 306.101 350.699 304.351 346.448C302.163 341.216 302.163 333.586 307.086 329.444C309.493 327.373 312.556 326.501 315.51 325.738C318.464 324.975 321.089 324.212 323.168 322.359C327.763 318.435 327.653 311.241 326.997 305.355C326.669 302.194 326.231 299.033 325.903 295.872C324.262 283.119 322.621 269.93 324.918 257.177C328.747 235.922 342.75 224.259 355.003 222.079C361.567 220.88 367.803 222.406 371.632 226.221C375.133 229.6 376.555 234.723 377.649 238.756L387.823 274.944C391.543 272.546 395.919 271.565 400.295 272.219C407.187 273.2 413.423 276.797 417.799 282.247C424.582 290.967 426.441 302.085 427.973 314.62C430.489 335.112 433.224 358.874 433.771 382.527C433.99 390.811 433.881 399.531 430.38 407.379C423.597 422.639 412.766 421.004 401.279 419.151C396.685 418.279 392.09 417.843 387.386 417.952C383.885 418.17 379.837 418.824 375.57 419.587C369.444 420.459 362.989 421.549 356.754 421.549ZM359.379 223.278C358.066 223.278 356.644 223.387 355.331 223.605C339.14 226.439 329.075 243.116 326.559 257.395C324.371 269.93 326.012 283.01 327.544 295.654C327.981 298.815 328.31 301.976 328.638 305.137C329.294 311.459 329.404 319.198 324.262 323.667C321.855 325.629 318.901 326.501 315.947 327.373C312.994 328.245 310.259 329.008 308.18 330.752C303.913 334.458 304.023 341.216 305.883 345.903C307.524 350.045 310.477 353.533 313.322 357.021C314.088 358.002 314.963 358.983 315.729 359.964C323.605 369.992 329.075 381.764 331.592 394.19C331.81 395.28 332.029 396.261 332.248 397.351C333.342 403.237 334.545 409.341 338.484 413.592C347.017 422.748 362.114 420.241 375.352 417.952C379.728 417.189 383.775 416.535 387.386 416.317C392.199 416.208 397.013 416.535 401.717 417.516C412.985 419.26 422.722 420.895 429.067 406.725C432.349 399.204 432.458 390.702 432.349 382.527C431.802 358.874 429.067 335.221 426.551 314.729C425.019 302.412 423.269 291.621 416.705 283.119C412.657 277.996 406.749 274.617 400.295 273.745C395.919 273.091 391.543 274.181 388.042 276.906C387.823 277.124 387.495 277.124 387.276 277.015C387.057 276.906 386.839 276.688 386.729 276.47L376.227 239.192C375.133 235.159 373.82 230.472 370.538 227.42C367.584 224.477 363.536 223.06 359.379 223.278Z" fill="#111111"/>
<path d="M363.755 428.089C380.165 448.799 393.074 472.016 402.045 496.759C403.905 501.773 405.874 507.332 410.469 510.057C416.376 513.654 424.034 511.365 430.38 508.858C449.415 501.555 468.013 493.162 486.283 483.897C493.503 480.191 501.599 475.068 502.255 467.002C502.584 462.315 500.286 457.955 497.989 453.813C482.345 425.364 467.576 395.934 450.728 368.03C446.899 361.708 445.477 361.272 438.475 364.106C432.568 366.504 426.988 369.338 421.518 372.608C410.359 379.039 399.966 386.669 390.558 395.498C387.604 398.223 361.239 424.819 363.755 428.089Z" fill="#0575E6"/>
<path d="M383.885 324.103H383.775C383.447 323.994 383.338 323.776 383.338 323.449C386.729 308.189 387.823 292.493 386.62 276.906C386.62 276.579 386.839 276.361 387.167 276.361C387.495 276.361 387.714 276.579 387.714 276.906C388.917 292.602 387.823 308.298 384.432 323.667C384.432 323.994 384.213 324.212 383.885 324.103Z" fill="white"/>
<path d="M394.934 458.173C394.606 458.173 394.387 457.955 394.387 457.628C394.387 457.519 394.387 457.41 394.497 457.301C412.657 432.231 436.287 411.63 463.637 397.133C463.856 397.024 464.184 397.024 464.403 397.351C464.513 397.569 464.513 397.896 464.184 398.114C464.184 398.114 464.184 398.114 464.075 398.114C436.834 412.611 413.313 433.103 395.262 458.064C395.262 458.064 395.153 458.173 394.934 458.173Z" fill="white"/>
<path d="M486.174 496.759C476.546 501.991 466.044 505.479 455.87 509.73C452.588 511.038 448.759 514.09 450.4 517.251C451.713 519.758 455.323 519.431 458.058 518.668C467.904 516.161 477.75 513.327 487.377 510.166C495.473 507.55 503.678 504.607 510.242 499.266C516.259 494.361 520.635 487.712 522.604 480.191C523.041 478.447 523.37 476.376 522.604 474.741C521.51 472.67 518.775 471.798 516.477 472.234C509.585 473.324 507.178 480.082 502.802 484.66C497.989 489.347 492.409 493.598 486.174 496.759Z" fill="#0575E6"/>
<path d="M418.346 520.739C416.486 521.175 414.188 522.047 414.079 524.009C413.97 526.407 417.142 527.279 419.549 527.388L430.817 527.933C433.333 528.151 435.85 528.042 438.256 527.497C444.164 525.971 446.571 519.758 440.663 516.924C434.756 514.09 424.034 519.322 418.346 520.739Z" fill="#0575E6"/>
</svg>
