<svg width="633" height="634" viewBox="0 0 633 634" fill="none" xmlns="http://www.w3.org/2000/svg">
<path d="M370.811 598.75C370.811 598.75 644.521 518.992 536.024 446.59C427.528 374.187 321.437 354.279 422.844 319.156C524.251 284.032 728.456 182.465 470.699 201.105C470.699 201.105 563.75 235.087 467.281 253.6C370.811 272.113 214.967 312.308 317.26 388.262C419.552 464.215 379.294 495.915 289.787 505.171C200.281 514.428 37.2205 598.75 37.2205 598.75H370.811Z" fill="#0575E6" fill-opacity="0.09"/>
<path d="M222.816 363.409C222.816 363.409 224.462 345.276 228.766 342.614C233.071 339.951 244.971 337.922 244.971 337.922L258.391 355.674L252.82 355.294C252.82 355.294 247.123 343.374 241.173 344.135C235.223 344.896 232.817 344.896 230.412 348.446C228.007 351.997 222.816 363.409 222.816 363.409Z" fill="#A04040"/>
<path d="M186.482 355.674C186.482 355.674 178.253 365.438 177.493 368.1C176.734 370.763 185.216 442.278 188.254 443.42C191.293 444.561 255.859 424.146 255.859 424.146L186.482 355.674Z" fill="#000001"/>
<path d="M256.618 350.856C256.618 350.856 188.634 353.265 186.482 355.801C184.329 358.337 183.696 430.613 195.723 433.656C207.75 436.699 288.901 392.7 288.901 392.7L256.618 350.856Z" fill="#A04040"/>
<path d="M394.992 537.759C394.992 537.759 408.791 552.468 410.944 552.468C413.096 552.468 439.049 520.514 436.517 519.5C433.985 518.485 428.035 527.235 420.312 528.122C412.589 529.01 408.791 518.739 406.892 519.373C404.993 520.007 394.992 537.759 394.992 537.759Z" fill="#000001"/>
<path d="M383.092 554.75C383.092 554.75 420.312 522.162 420.312 506.439C420.312 506.439 368.406 419.201 361.57 413.241C354.733 407.282 285.483 357.576 285.483 357.576L255.732 319.156C242.945 319.79 232.058 373.68 241.3 386.36C250.288 398.659 336.123 455.085 336.123 455.085C343.719 461.806 348.91 471.062 350.555 481.079C353.594 498.324 363.469 482.22 368.026 499.719C372.584 517.217 376.762 514.554 372.457 531.292C368.279 547.015 383.092 554.75 383.092 554.75Z" fill="#000001"/>
<path d="M103.812 462.566C103.812 462.566 74.5673 443.8 68.2373 446.97C61.9073 450.14 38.6129 529.644 37.4735 541.563C36.3341 553.482 41.5247 547.649 51.9059 533.574C62.2871 519.5 75.4535 500.606 91.4051 504.03C107.357 507.454 103.812 462.566 103.812 462.566Z" fill="#000001"/>
<path d="M100.014 450.14L80.2644 524.064C80.2644 524.064 93.4308 541.816 113.94 528.756C134.449 515.696 155.465 527.234 172.303 548.41C189.14 569.586 231.551 568.064 251.301 546.001C271.051 523.938 326.501 369.368 324.982 359.478L239.021 348.446C239.021 348.446 230.285 494.774 225.348 494.52C220.411 494.266 124.068 453.69 100.014 450.14Z" fill="#002F5E"/>
<path d="M391.7 254.361C391.7 254.361 390.434 222.154 395.625 222.534C400.816 222.914 402.588 223.422 403.854 218.984C405.12 214.546 410.69 218.984 410.69 218.984C410.69 218.984 416.514 221.646 415.628 226.211C415.628 226.211 419.299 233.819 415.754 238.764C412.209 243.71 402.208 265.139 402.208 265.139L391.7 254.361Z" fill="#EA8383"/>
<path d="M323.843 309.138C323.843 309.138 358.784 352.504 378.534 344.389C387.523 340.712 406.386 267.041 406.386 267.041C406.386 267.041 394.992 250.81 387.269 250.81L366.634 303.813C366.634 303.813 341.06 230.015 330.426 228.494C319.792 226.972 323.843 309.138 323.843 309.138Z" fill="#0575E6"/>
<path d="M288.901 212.897C288.901 212.897 186.102 253.6 181.924 267.041C177.746 280.482 222.436 344.769 223.955 344.389C235.856 340.838 232.058 339.317 242.312 329.3L218.132 272.366C218.132 272.366 269.405 262.856 278.52 256.516C287.635 250.176 288.901 212.897 288.901 212.897Z" fill="#0575E6"/>
<path d="M301.814 191.848C301.814 191.848 297.51 228.24 297.637 229.001C297.763 229.762 321.564 237.877 321.564 237.877L320.425 205.289C320.425 205.289 341.44 211.122 335.617 187.664C335.617 187.664 346.504 186.396 345.618 185.508C344.732 184.621 331.312 171.053 324.096 165.728C316.88 160.402 288.395 173.843 288.775 178.154C289.154 182.465 292.952 193.877 301.814 191.848Z" fill="#EA8383"/>
<path d="M304.726 188.552C304.726 188.552 298.27 175.618 295.484 176.886C292.699 178.154 291.686 187.664 301.814 191.848L300.928 199.71C292.446 196.794 285.863 189.946 283.457 181.324C279.153 166.488 288.775 156.344 314.854 153.301C314.854 153.301 297.51 142.65 309.537 134.281C321.564 125.912 339.668 148.99 337.642 155.71C335.617 162.431 329.793 166.996 322.577 169.405C315.361 171.814 311.563 172.068 311.816 174.096C312.069 176.125 315.994 185.255 319.918 186.903C323.843 188.552 335.743 187.791 335.743 187.791C335.743 187.791 348.91 198.569 352.834 206.811C356.759 215.053 350.555 212.517 350.555 212.517C350.555 212.517 353.72 215.18 346.757 217.082C339.794 218.984 312.955 207.825 304.726 188.552Z" fill="#A04040"/>
<path d="M314.728 175.872C314.728 175.872 324.982 170.673 329.287 179.549C329.287 179.549 318.652 184.748 314.728 175.872Z" fill="#F2EBEB"/>
<path d="M314.094 175.872C315.36 174.984 316.753 174.477 318.146 174.096C319.665 173.716 321.184 173.589 322.703 173.843C323.463 173.97 324.222 174.223 324.982 174.477C325.742 174.857 326.375 175.238 326.881 175.745C328.02 176.759 328.907 178.027 329.286 179.549C328.527 178.408 327.514 177.266 326.375 176.506C325.235 175.745 323.969 175.238 322.577 175.111C321.184 174.984 319.791 174.984 318.399 175.111C317.006 175.364 315.487 175.618 314.094 175.872Z" fill="#000001"/>
<path d="M324.096 174.857C324.096 174.857 321.311 175.998 323.21 181.07C323.21 181.07 328.147 181.197 329.16 179.549C329.286 179.549 326.375 174.604 324.096 174.857Z" fill="#000001"/>
<path d="M320.678 191.595C321.437 192.482 322.45 193.243 323.59 193.75C324.096 194.004 324.602 194.131 325.235 194.384C325.615 194.511 325.868 194.638 326.248 194.765C326.628 194.892 327.008 195.018 327.388 195.272C327.134 195.526 326.755 195.779 326.375 196.033C325.995 196.16 325.615 196.286 325.235 196.413C324.349 196.54 323.463 196.54 322.703 196.16C321.817 195.779 321.184 195.145 320.678 194.258C320.171 193.243 320.298 192.356 320.678 191.595Z" fill="#000001"/>
<path d="M329.287 132.252C331.565 134.408 333.591 136.817 335.237 139.48C337.009 142.143 338.275 145.186 339.035 148.229C339.415 149.878 339.541 151.526 339.288 153.174C339.161 154.95 338.528 156.471 337.516 157.993C335.49 160.656 332.578 162.304 329.287 162.558C332.072 161.163 334.604 159.388 335.87 156.852C337.009 154.316 337.262 151.399 336.503 148.736C335.87 145.82 334.857 143.03 333.464 140.368C332.198 137.705 330.806 134.915 329.287 132.252Z" fill="#A04040"/>
<path d="M321.944 168.137C320.678 168.01 319.538 168.137 318.399 168.517C317.892 168.644 317.386 169.024 316.753 169.151C316.5 169.278 316.12 169.405 315.74 169.532C315.36 169.658 314.981 169.785 314.601 169.912C314.601 169.532 314.727 169.024 314.854 168.644C314.981 168.264 315.234 167.883 315.36 167.503C315.867 166.742 316.626 166.235 317.386 165.981C318.272 165.601 319.285 165.601 320.171 165.981C321.057 166.488 321.69 167.249 321.944 168.137Z" fill="#000001"/>
<path d="M225.475 370.256C225.475 370.256 282.318 406.394 335.743 370.256C335.743 370.256 346.378 240.92 330.679 228.24C314.981 215.56 292.193 208.713 288.901 212.897C278.393 226.211 225.475 370.256 225.475 370.256Z" fill="#0575E6"/>
<path d="M324.855 291.894L338.781 325.242L336.123 366.832L324.855 291.894Z" fill="#000001"/>
<path d="M296.624 212.897L300.422 204.275L323.083 215.306L327.261 225.704L296.624 212.897Z" fill="#EA8383"/>
<path d="M164.327 343.248C165.339 340.204 166.605 337.161 167.871 334.245C169.137 331.328 170.657 328.412 172.049 325.622C173.442 322.833 175.088 319.916 176.733 317.254C178.379 314.464 180.152 311.801 182.051 309.138C181.038 312.182 179.772 315.225 178.506 318.141C177.24 321.058 175.721 323.974 174.328 326.764C172.809 329.553 171.29 332.47 169.644 335.132C168.125 337.922 166.352 340.712 164.327 343.248Z" fill="#EA8383"/>
<path d="M165.972 319.79C166.605 317.507 167.365 315.352 168.378 313.196C169.264 311.04 170.277 308.885 171.29 306.856C172.302 304.827 173.568 302.798 174.708 300.77C175.974 298.741 177.24 296.839 178.759 295.064C178.126 297.346 177.366 299.628 176.48 301.784C175.594 303.94 174.581 306.095 173.568 308.124C172.556 310.153 171.29 312.182 170.15 314.21C168.884 316.112 167.492 318.014 165.972 319.79Z" fill="#EA8383"/>
<path d="M411.45 327.905C412.463 324.862 413.729 321.818 414.995 318.902C416.261 315.986 417.78 313.069 419.173 310.28C420.565 307.49 422.211 304.574 423.857 301.911C425.503 299.121 427.275 296.458 429.047 293.796C428.035 296.839 426.769 299.882 425.503 302.798C424.237 305.715 422.717 308.631 421.325 311.421C419.932 314.21 418.286 317.127 416.641 319.79C415.121 322.706 413.349 325.369 411.45 327.905Z" fill="#EA8383"/>
<path d="M412.969 304.447C413.602 302.164 414.362 300.009 415.248 297.853C416.134 295.698 417.147 293.542 418.16 291.513C419.173 289.484 420.312 287.456 421.578 285.427C422.844 283.398 424.11 281.496 425.629 279.721C424.996 282.003 424.237 284.159 423.35 286.314C422.464 288.47 421.451 290.626 420.439 292.654C419.426 294.683 418.16 296.712 417.02 298.741C415.881 300.77 414.488 302.672 412.969 304.447Z" fill="#EA8383"/>
<path d="M482.346 126.673C482.346 126.673 481.08 98.3968 482.346 96.4948C483.612 94.5928 513.743 91.8032 513.743 91.8032V96.2412C513.743 96.2412 486.777 97.2556 486.271 99.4112C485.764 101.567 486.018 126.673 486.018 126.673H482.346Z" fill="#000001"/>
<path d="M509.818 137.832C509.818 137.832 511.338 145.566 513.743 145.566C516.148 145.566 539.063 147.849 541.468 145.566C543.874 143.284 545.646 136.437 545.646 136.437L509.818 137.832Z" fill="#000001"/>
<path d="M520.833 144.425L521.845 148.229H530.834C530.834 148.229 532.606 144.298 531.847 144.425C531.087 144.552 520.833 144.425 520.833 144.425Z" fill="#000001"/>
<path d="M491.208 205.416H563.75C563.75 205.416 561.598 200.217 559.445 199.71C557.293 199.203 495.766 198.569 494.626 199.71C493.234 201.485 492.094 203.387 491.208 205.416Z" fill="#000001"/>
<path d="M522.985 202.119V173.716H533.239L530.96 202.119H522.985Z" fill="#000001"/>
<path d="M529.694 176.252V146.454C529.694 146.454 524.63 143.157 524.63 146.454C524.63 149.751 524.63 176.252 524.63 176.252H529.694Z" fill="#000001"/>
<path d="M524.63 203.514C524.63 203.514 521.339 206.811 524.63 209.474C527.922 212.136 532.606 206.557 531.467 203.514C530.327 200.471 524.63 203.514 524.63 203.514Z" fill="#000001"/>
<path d="M495.006 202.753C495.006 202.753 491.588 206.05 495.006 208.713C498.424 211.376 502.982 205.796 501.842 202.753C500.703 199.71 495.006 202.753 495.006 202.753Z" fill="#000001"/>
<path d="M554.255 203.514C554.255 203.514 550.837 206.811 554.255 209.474C557.673 212.136 562.231 206.557 561.091 203.514C559.952 200.471 554.255 203.514 554.255 203.514Z" fill="#000001"/>
<path d="M511.084 122.362C511.084 122.362 508.173 38.4204 514.756 35.2504C521.339 32.0804 569.32 32.8412 569.7 35.2504C570.08 37.6596 566.029 121.855 560.838 122.362C555.647 122.869 533.619 123.25 533.619 124.518C533.619 125.786 537.29 139.226 536.024 139.226C534.758 139.226 478.168 143.284 478.168 139.226C478.168 135.169 473.737 123.757 478.168 123.757C482.599 123.757 511.084 122.362 511.084 122.362Z" fill="#0575E6"/>
<mask id="mask0_142_5" style="mask-type:luminance" maskUnits="userSpaceOnUse" x="476" y="33" width="94" height="109">
<path d="M511.084 122.362C511.084 122.362 508.173 38.4204 514.756 35.2504C521.339 32.0804 569.32 32.8412 569.7 35.2504C570.08 37.6596 566.029 121.855 560.838 122.362C555.647 122.869 533.619 123.25 533.619 124.518C533.619 125.786 537.29 139.226 536.024 139.226C534.758 139.226 478.168 143.284 478.168 139.226C478.168 135.169 473.737 123.757 478.168 123.757C482.599 123.757 511.084 122.362 511.084 122.362Z" fill="white"/>
</mask>
<g mask="url(#mask0_142_5)">
<path d="M478.675 -51.4808L479.308 -9.76364L479.687 32.0804L480.447 115.642L480.827 199.203L481.08 241.047V282.764L480.447 241.047L480.067 199.203L479.181 115.642L478.801 32.0804L478.675 -9.76364V-51.4808Z" fill="white"/>
<path d="M496.778 -51.354L498.298 -9.63681L499.69 32.2072L502.349 115.768L504.628 199.33L505.767 241.047L506.78 282.764L505.134 241.047L503.868 199.33L501.083 115.768L498.804 32.2072L497.665 -9.51001L496.778 -51.354Z" fill="white"/>
<path d="M516.148 -51.2273L517.921 -9.5101L519.566 32.2071L522.985 115.768L525.896 199.329L527.289 241.173L528.555 282.891L526.656 241.173L525.01 199.329L521.719 115.895L518.807 32.3339L517.288 -9.5101L516.148 -51.2273Z" fill="white"/>
<path d="M542.354 282.891L540.329 241.173L538.43 199.329L534.758 115.895L531.593 32.3339L529.948 -9.5101L528.555 -51.2273L530.581 -9.5101L532.353 32.2071L536.024 115.768L539.316 199.329L540.962 241.173L542.354 282.891Z" fill="white"/>
<path d="M544.253 -51.2273L545.773 -9.5101L547.165 32.2071L549.824 115.768L552.103 199.329L553.242 241.173L554.255 282.891L552.609 241.173L551.343 199.329L548.558 115.768L546.279 32.3339L545.14 -9.5101L544.253 -51.2273Z" fill="white"/>
<path d="M398.284 120.967L457.532 120.714L516.655 120.587L635.026 120.333L753.397 120.587L812.519 120.714L871.768 120.967L812.519 121.348L753.397 121.474L635.026 121.601L516.655 121.474L457.532 121.348L398.284 120.967Z" fill="white"/>
<path d="M399.043 100.552L457.406 100.806L515.895 101.186L632.62 102.074L749.472 103.215L807.835 103.849L866.324 104.737L807.835 104.483L749.472 104.103L632.62 103.342L515.895 102.074L457.406 101.44L399.043 100.552Z" fill="white"/>
<path d="M399.043 78.2356L444.239 77.982L489.436 77.8552L579.828 77.6016L670.347 77.8552L715.543 77.982L760.739 78.2356L715.543 78.616L670.347 78.7428L579.828 78.8696L489.436 78.7428L444.239 78.616L399.043 78.2356Z" fill="white"/>
<path d="M398.917 56.4259L444.113 55.7919L489.309 55.4115L579.828 54.6507L670.221 54.1435L715.543 54.0167H760.74L715.543 54.6507L670.347 55.0311L579.828 55.7919L489.309 56.2991L444.113 56.4259H398.917Z" fill="white"/>
<path d="M399.043 38.04L444.239 36.5184L489.436 35.1236L579.828 32.334L670.347 30.0516L715.543 28.7836L760.739 27.896L715.543 29.4176L670.347 30.8124L579.955 33.602L489.436 35.8844L444.239 37.1524L399.043 38.04Z" fill="white"/>
<path d="M375.116 146.327L437.909 145.059L500.576 143.791L626.164 141.509L751.624 139.607L814.418 138.592L877.211 137.832L814.418 139.226L751.751 140.368L626.164 142.777L500.703 144.679L437.909 145.566L375.116 146.327Z" fill="white"/>
</g>
<path d="M569.7 138.339C569.7 138.339 538.936 138.973 535.898 139.226C532.859 139.48 529.568 122.996 531.467 122.362C533.366 121.728 561.471 121.982 561.851 120.84C562.231 119.699 562.737 33.7288 564.889 34.1092C567.042 34.4896 572.106 33.8556 574.384 38.4204C574.384 38.4204 572.738 113.359 571.726 122.489C570.713 131.618 572.865 138.339 569.7 138.339Z" fill="#000001"/>
<path d="M539.316 132.379C539.316 132.379 538.05 101.186 539.316 99.1576C540.582 97.1288 570.966 91.6764 570.966 91.6764V95.3536C570.966 95.3536 545.013 99.0308 544 101.06C542.988 103.088 542.734 130.858 542.734 130.858L539.316 132.379Z" fill="#000001"/>
<path d="M486.777 36.1379C488.043 36.8987 489.182 37.9131 490.322 38.9275C491.335 39.9419 492.348 41.0831 493.36 42.2243C494.247 43.3655 495.133 44.6335 495.892 45.9015C496.652 47.1695 497.411 48.5643 497.918 49.9591C496.652 49.0715 495.512 48.1839 494.373 47.0427C493.36 46.0283 492.348 44.8871 491.335 43.7459C490.449 42.6047 489.562 41.3367 488.803 40.0687C487.917 38.9275 487.283 37.5327 486.777 36.1379Z" fill="#002F5E"/>
<path d="M470.825 54.0168C472.851 53.89 474.75 54.0168 476.776 54.2704C478.675 54.524 480.574 54.7776 482.473 55.2848C484.372 55.792 486.271 56.1724 488.17 56.8064C490.069 57.3136 491.841 58.0744 493.613 58.962C491.588 59.0888 489.689 58.962 487.663 58.7084C485.764 58.4548 483.865 58.2012 481.966 57.694C480.067 57.3136 478.168 56.8064 476.269 56.1724C474.37 55.6652 472.598 54.9044 470.825 54.0168Z" fill="#002F5E"/>
<path d="M491.588 71.2616C490.828 71.8956 489.942 72.276 489.056 72.6564C487.41 73.2904 485.511 73.544 483.739 73.4172C482.726 73.4172 481.84 73.1636 480.953 72.7832C481.713 72.1492 482.599 71.7688 483.485 71.3884C484.372 71.1348 485.258 70.8812 486.144 70.7544C487.03 70.6276 487.916 70.6276 488.803 70.6276C489.815 70.7544 490.702 71.008 491.588 71.2616Z" fill="#002F5E"/>
<path d="M555.394 387.881C555.394 387.881 537.037 366.325 542.607 336.908L511.464 336.781C511.464 336.781 492.98 367.086 514.249 390.164L555.394 387.881Z" fill="#F2EBEB"/>
<path d="M397.651 74.9388C397.651 74.9388 386.51 91.0424 365.747 92.564L371.065 113.613C371.065 113.613 394.612 120.714 406.386 102.201L397.651 74.9388Z" fill="#F2EBEB"/>
<path d="M212.814 132.76C212.814 132.76 191.166 134.662 184.203 155.964L155.465 139.86C160.402 125.405 172.429 114.627 187.368 111.457L212.814 132.76Z" fill="#F2EBEB"/>
<path d="M109.889 330.314C109.889 330.314 114.7 301.657 89.5061 285.173L120.143 253.473C120.143 253.473 147.489 269.704 146.096 304.574L109.889 330.314Z" fill="#F2EBEB"/>
<path d="M534.885 551.2C534.885 551.2 543.874 542.07 551.976 540.168C560.078 538.266 567.421 540.422 567.421 537.759C567.421 535.096 553.495 529.644 544.253 534.462C535.012 539.28 534.885 551.2 534.885 551.2Z" fill="#000001"/>
<path d="M526.403 551.2C525.39 551.2 491.841 536.618 474.117 530.785C456.393 524.952 449.304 516.076 460.444 510.624C471.585 505.171 490.449 504.157 502.349 508.468C514.249 512.779 526.403 551.2 526.403 551.2Z" fill="#000001"/>
<path d="M530.581 562.485C530.581 562.485 506.78 523.177 490.069 504.41C473.357 485.644 468.8 472.076 481.207 470.808C493.613 469.54 514.123 488.307 521.465 508.595C528.808 528.883 530.581 562.485 530.581 562.485Z" fill="#002F5E"/>
<path d="M531.973 563.753C536.531 550.058 544 537.632 553.875 527.234C570.586 509.482 588.057 484.756 574.384 479.05C560.712 473.344 543.241 483.996 535.138 508.214C527.036 532.433 531.973 563.753 531.973 563.753Z" fill="#002F5E"/>
<path d="M490.702 485.01C495.892 490.589 500.83 496.295 505.387 502.382C510.071 508.341 514.502 514.681 518.427 521.148C520.453 524.445 522.098 527.868 523.618 531.419C525.01 534.969 526.276 538.52 527.416 542.197C529.568 549.551 531.087 557.032 531.973 564.514C531.087 560.836 530.074 557.159 528.935 553.609C527.795 550.058 526.783 546.381 525.517 542.831C523.111 535.73 520.073 528.883 516.148 522.416C512.35 515.949 508.046 509.736 503.741 503.523L490.702 485.01Z" fill="#000001"/>
<path d="M563.497 489.321L553.242 506.693C549.824 512.526 546.406 518.232 543.494 524.191C542.101 527.108 540.835 530.278 539.823 533.321C538.683 536.491 537.924 539.661 537.037 542.958C535.392 549.424 533.872 556.018 532.48 562.612C532.86 555.891 533.746 549.171 535.138 542.577C536.404 535.857 538.43 529.39 541.342 523.177C544.38 517.09 547.925 511.258 551.723 505.678C555.268 499.972 559.319 494.52 563.497 489.321Z" fill="#000001"/>
<path d="M519.44 601.159C519.44 601.159 515.262 562.612 516.148 562.485C517.034 562.358 548.558 561.217 549.317 562.485C550.077 563.753 542.734 601.159 542.734 601.159H519.44Z" fill="#F3CB5C"/>
</svg>
