<svg width="664" height="664" viewBox="0 0 664 664" fill="none" xmlns="http://www.w3.org/2000/svg">
<path opacity="0.18" d="M640.428 334.984C639.764 336.681 639.06 338.352 638.33 340.022C626.139 367.868 605.595 391.087 588.636 416.334C588.185 416.997 587.733 417.66 587.282 418.336C586.02 420.232 584.798 422.168 583.616 424.117C569.672 446.885 560.363 471.853 549.208 495.721C546.299 501.953 543.258 508.106 539.965 514.126C532.409 528.009 523.538 541.19 511.971 552.912C496.539 568.545 477.934 580.943 457.377 590.583C456.819 590.849 456.248 591.127 455.677 591.379C449.143 594.389 442.423 597.121 435.531 599.574C424.96 603.379 414.017 606.548 402.862 609.174C390.074 612.21 376.966 614.504 363.792 616.135C351.429 617.673 338.999 618.681 326.648 619.159C318.694 619.49 310.779 619.596 302.957 619.517C291.377 619.411 279.996 618.893 268.933 618.032C262.333 617.528 255.866 616.878 249.545 616.135C243.728 615.446 238.004 614.663 232.453 613.802C231.112 613.589 229.771 613.377 228.429 613.139C163.132 601.403 89.9854 573.916 43.1335 524.787C20.5177 501.065 16.6399 455.331 14.0371 423.454C10.8897 384.815 14.3558 345.578 25.2985 308.344C44.9263 241.593 89.1753 181.645 149.347 146.585C168.537 135.407 189.107 126.775 209.798 118.673C275.799 92.8294 345.028 71.799 415.916 71.6797C493.126 71.5604 579.978 98.0804 620.07 167.682C649.073 218.07 661.61 281.148 640.388 334.984H640.428Z" fill="#0575E6"/>
<path d="M394.509 105.625L232.294 138.046C223.157 139.942 217.978 149.595 220.727 159.62L318.746 525.914C321.349 535.965 330.898 542.701 340.074 540.964L502.289 508.544C511.439 506.647 516.618 496.968 513.869 486.93L415.85 120.662C413.234 110.611 403.672 103.888 394.509 105.639V105.625Z" fill="#0575E6"/>
<path d="M394.509 105.625L232.294 138.046C223.157 139.942 217.978 149.595 220.727 159.62L318.746 525.914C321.349 535.965 330.898 542.701 340.074 540.964L502.289 508.544C511.439 506.647 516.618 496.968 513.869 486.93L415.85 120.662C413.234 110.611 403.672 103.888 394.509 105.639V105.625Z" fill="url(#paint0_linear_1_5343)"/>
<path d="M410.498 102.43L248.283 134.85C239.146 136.746 233.967 146.4 236.716 156.424L334.735 522.719C337.338 532.77 346.887 539.506 356.063 537.769L518.278 505.348C527.428 503.452 532.607 493.772 529.858 483.734L431.839 117.466C429.223 107.415 419.661 100.693 410.498 102.443V102.43Z" fill="#0575E6"/>
<path d="M425.358 133.405L516.632 474.465C519.208 484.105 514.719 493.215 506.592 494.846L361.375 523.872C353.235 525.503 344.563 519.019 341.986 509.379L250.713 168.305C245.454 148.667 251.789 146.387 259.929 144.769L288.999 138.961C290.686 138.629 292.638 140.446 293.329 143.058L293.634 144.185C295.267 150.298 298.322 149.715 302.08 148.959L369.29 135.527C373.075 134.771 376.09 134.161 374.456 128.035L374.151 126.908C373.447 124.295 374.257 121.922 375.97 121.577L405.053 115.769C413.207 114.138 420.538 115.424 425.345 133.418L425.358 133.405Z" fill="#0575E6"/>
<path d="M425.358 133.405L516.632 474.465C519.208 484.105 514.719 493.215 506.592 494.846L361.375 523.872C353.235 525.503 344.563 519.019 341.986 509.379L250.713 168.305C245.454 148.667 251.789 146.387 259.929 144.769L288.999 138.961C290.686 138.629 292.638 140.446 293.329 143.058L293.634 144.185C295.267 150.298 298.322 149.715 302.08 148.959L369.29 135.527C373.075 134.771 376.09 134.161 374.456 128.035L374.151 126.908C373.447 124.295 374.257 121.922 375.97 121.577L405.053 115.769C413.207 114.138 420.538 115.424 425.345 133.418L425.358 133.405Z" fill="url(#paint1_linear_1_5343)"/>
<path opacity="0.37" d="M315.028 171.594L413.964 151.73L447.456 276.069L349.609 296.384L315.028 171.594Z" fill="#0575E6"/>
<path d="M431.812 426.544L405.12 432.59L402.928 425.112L429.621 419.065L431.812 426.544Z" fill="#0575E6"/>
<path d="M484.986 412.634L439.873 422.857L438.784 419.118L483.897 408.895L484.986 412.634Z" fill="#0575E6"/>
<path d="M424.097 442.827L409.117 446.222L406.926 438.743L421.906 435.348L424.097 442.827Z" fill="#0575E6"/>
<path d="M484.733 427.233L443.871 436.489L442.782 432.75L483.631 423.494L484.733 427.233Z" fill="#0575E6"/>
<path d="M432.583 455.437L413.114 459.853L410.923 452.361L430.391 447.959L432.583 455.437Z" fill="#0575E6"/>
<path d="M480.776 442.668L447.868 450.12L446.766 446.381L479.673 438.915L480.776 442.668Z" fill="#0575E6"/>
<path d="M378.161 427.22L390.273 468.538L354.549 476.627L342.438 435.309L378.161 427.22Z" fill="#0575E6"/>
<path d="M368.223 454.847C371.96 453.109 373.308 448.095 371.233 443.647C369.159 439.199 364.448 437.002 360.711 438.739C356.975 440.476 355.627 445.491 357.702 449.939C359.776 454.387 364.487 456.584 368.223 454.847Z" fill="white"/>
<path d="M383.473 466.708C383.792 467.796 384.004 468.883 384.084 469.944L360.061 475.394C359.556 474.426 359.144 473.391 358.825 472.304C356.515 464.441 360.167 456.816 366.966 455.265C373.765 453.727 381.162 458.845 383.46 466.708H383.473Z" fill="white"/>
<path d="M407.005 330.767L380.313 336.813L378.121 329.335L404.814 323.275L407.005 330.767Z" fill="#0575E6"/>
<path d="M460.178 316.857L415.066 327.081L413.964 323.341L459.076 313.118L460.178 316.857Z" fill="#0575E6"/>
<path d="M399.29 347.05L384.31 350.445L382.119 342.953L397.098 339.558L399.29 347.05Z" fill="#0575E6"/>
<path d="M459.926 331.456L419.063 340.712L417.961 336.972L458.824 327.704L459.926 331.456Z" fill="#0575E6"/>
<path d="M407.775 359.66L388.307 364.063L386.116 356.584L405.584 352.168L407.775 359.66Z" fill="#0575E6"/>
<path d="M455.955 346.878L423.061 354.343L421.958 350.604L454.866 343.138L455.955 346.878Z" fill="#0575E6"/>
<path d="M353.354 331.43L365.465 372.748L329.742 380.85L317.631 339.532L353.354 331.43Z" fill="#0575E6"/>
<path d="M343.422 359.066C347.159 357.328 348.507 352.314 346.432 347.866C344.358 343.418 339.647 341.221 335.91 342.958C332.174 344.696 330.826 349.71 332.901 354.158C334.975 358.606 339.686 360.803 343.422 359.066Z" fill="white"/>
<path d="M358.653 370.931C358.972 372.019 359.184 373.106 359.264 374.167L335.24 379.617C334.736 378.649 334.324 377.614 334.005 376.527C331.694 368.664 335.346 361.039 342.146 359.488C348.945 357.95 356.342 363.068 358.64 370.931H358.653Z" fill="white"/>
<path d="M300.141 396.298C351.57 396.298 393.261 354.67 393.261 303.319C393.261 251.968 351.57 210.339 300.141 210.339C248.713 210.339 207.022 251.968 207.022 303.319C207.022 354.67 248.713 396.298 300.141 396.298Z" fill="white"/>
<path d="M232.639 369.048C237.101 372.748 237.712 379.351 233.994 383.807L202.082 422.168C198.377 426.623 191.763 427.233 187.301 423.534C182.839 419.834 182.228 413.231 185.947 408.775L217.858 370.414C221.563 365.959 228.177 365.349 232.639 369.048Z" fill="#0575E6"/>
<path d="M395.531 358.029C423.087 305.44 402.703 240.493 350.034 212.978C297.366 185.464 232.307 205.791 204.751 258.38C183.158 299.659 191.006 348.482 220.807 380.916C227.208 387.904 234.644 394.136 243.064 399.334C245.361 400.793 247.778 402.185 250.235 403.485C302.943 430.986 367.949 410.645 395.545 358.043L395.531 358.029ZM259.372 385.968C216.371 363.506 199.731 310.452 222.227 267.517C244.764 224.567 297.857 207.966 340.898 230.415C383.912 252.917 400.538 305.931 378.055 348.906C355.519 391.856 302.425 408.457 259.372 385.968Z" fill="#0575E6"/>
<path d="M350.034 212.965C297.366 185.45 232.307 205.778 204.751 258.367C184.645 296.768 190.063 341.733 214.937 373.928L185.947 408.775C184.313 410.738 183.516 413.111 183.516 415.472C183.516 418.482 184.805 421.465 187.301 423.534C191.763 427.233 198.377 426.61 202.082 422.168L229.425 389.296C233.635 392.956 238.177 396.311 243.051 399.321C245.348 400.78 247.765 402.172 250.222 403.471C302.93 430.973 367.949 410.618 395.532 358.016C423.088 305.427 402.703 240.479 350.034 212.965ZM378.055 348.906C355.519 391.856 302.425 408.457 259.372 385.968C216.384 363.506 199.731 310.439 222.228 267.517C244.764 224.567 297.87 207.966 340.898 230.415C383.912 252.917 400.538 305.931 378.055 348.906Z" fill="url(#paint2_linear_1_5343)"/>
<path d="M203.875 391.697L213.635 399.798C217.938 403.365 218.522 409.743 214.95 414.04L129.719 519.801C126.147 524.098 119.759 524.681 115.456 521.114L105.696 513.012C101.393 509.445 100.809 503.067 104.381 498.771L189.612 393.009C193.184 388.713 199.572 388.13 203.875 391.697Z" fill="#231F20"/>
<path d="M289.982 273.086C289.982 273.086 292.027 261.112 293.913 260.754C295.799 260.396 326.648 264.162 328.348 266.124C330.048 268.087 328.733 278.536 328.733 278.536C328.733 278.536 326.422 278.841 326.196 277.859C325.971 276.878 327.883 268.233 325.918 267.265C323.952 266.297 296.303 261.934 295.188 262.663C294.072 263.393 292.625 272.927 292.412 273.351C292.2 273.775 289.995 273.073 289.995 273.073L289.982 273.086Z" fill="black"/>
<path d="M248.442 299.447C248.442 299.447 242.4 339.664 244.604 340.367C246.809 341.07 345.413 359.461 347.073 356.544C348.733 353.627 354.855 316.3 354.855 316.3L248.442 299.447Z" fill="#0575E6"/>
<path d="M248.442 299.447C248.442 299.447 242.4 339.664 244.604 340.367C246.809 341.07 345.413 359.461 347.073 356.544C348.733 353.627 354.855 316.3 354.855 316.3L248.442 299.447Z" fill="url(#paint3_linear_1_5343)"/>
<path d="M254.445 261.391C254.445 261.391 363.42 276.613 363.367 278.602C363.314 280.591 359.543 319.854 356.502 321.856C353.46 323.858 246.676 307.761 245.388 305.52C244.1 303.279 254.431 261.391 254.431 261.391H254.445Z" fill="#0575E6"/>
<path d="M293.262 323.62C293.262 323.62 309.769 326.219 310.221 325.37C310.672 324.521 311.562 317.003 311.562 317.003L292.97 314.271C292.97 314.271 291.257 323.408 293.262 323.62Z" fill="black"/>
<path d="M291.045 313.966C291.045 313.966 291.629 306.965 292.213 307.018C292.797 307.071 314.085 309.06 314.245 310.466C314.404 311.871 313.222 317.242 313.222 317.242L291.031 313.966H291.045Z" fill="url(#paint4_linear_1_5343)"/>
<path d="M127.926 287.34L150.13 334.944C151.379 337.622 150.223 340.791 147.541 342.038L70.0254 378.092C67.3428 379.338 64.1689 378.185 62.9206 375.506L40.7164 327.903C39.986 326.351 40.079 324.641 40.8094 323.222C41.3273 322.188 42.1772 321.326 43.306 320.809L120.821 284.755C122.229 284.105 123.796 284.118 125.124 284.662C126.333 285.152 127.355 286.081 127.939 287.34H127.926Z" fill="#0575E6"/>
<path d="M127.926 287.34L150.13 334.944C151.379 337.622 150.223 340.791 147.541 342.038L70.0254 378.092C67.3428 379.338 64.1689 378.185 62.9206 375.506L40.7164 327.903C39.986 326.351 40.079 324.641 40.8094 323.222C41.3273 322.188 42.1772 321.326 43.306 320.809L120.821 284.755C122.229 284.105 123.796 284.118 125.124 284.662C126.333 285.152 127.355 286.081 127.939 287.34H127.926Z" fill="url(#paint5_linear_1_5343)"/>
<path d="M127.621 286.797L100.782 342.939L40.0392 326.325C39.5479 325.277 39.8533 323.421 40.9821 322.89L123.783 284.635C124.859 284.131 127.01 285.391 127.634 286.81L127.621 286.797Z" fill="url(#paint6_linear_1_5343)"/>
<path d="M92.4421 324.309L70.0122 378.092L145.071 343.191L92.4421 324.309Z" fill="url(#paint7_linear_1_5343)"/>
<path d="M125.111 284.662L98.8564 338.802L40.783 323.209C41.3009 322.174 42.1508 321.312 43.2796 320.795L120.795 284.741C122.203 284.092 123.77 284.105 125.098 284.649L125.111 284.662Z" fill="#0575E6"/>
<path d="M125.111 284.662L98.8564 338.802L40.783 323.209C41.3009 322.174 42.1508 321.312 43.2796 320.795L120.795 284.741C122.203 284.092 123.77 284.105 125.098 284.649L125.111 284.662Z" fill="url(#paint8_linear_1_5343)"/>
<path d="M520.589 241.474C520.589 241.474 551.718 202.264 536.897 174.405L580.628 207.939C580.628 207.939 584.333 275.698 545.423 280.14C545.423 280.14 553.949 253.872 520.589 241.474Z" fill="white"/>
<path d="M523.059 348.734C523.059 348.734 541.346 366.145 569.513 348.734L550.655 383.131C550.655 383.131 517.522 383.78 514.6 369.393L523.059 348.734Z" fill="white"/>
<defs>
<linearGradient id="paint0_linear_1_5343" x1="542.382" y1="273.528" x2="-174.993" y2="477.75" gradientUnits="userSpaceOnUse">
<stop stop-color="#231F20"/>
<stop offset="0.15" stop-color="#231F20" stop-opacity="0.69"/>
<stop offset="0.18" stop-color="#231F20" stop-opacity="0.58"/>
<stop offset="0.31" stop-color="#231F20" stop-opacity="0.25"/>
<stop offset="0.49" stop-color="#231F20" stop-opacity="0.05"/>
<stop offset="1" stop-color="#231F20" stop-opacity="0"/>
</linearGradient>
<linearGradient id="paint1_linear_1_5343" x1="231.916" y1="156.746" x2="685.135" y2="795.986" gradientUnits="userSpaceOnUse">
<stop stop-color="white"/>
<stop offset="1" stop-color="white" stop-opacity="0"/>
</linearGradient>
<linearGradient id="paint2_linear_1_5343" x1="204.246" y1="156.65" x2="289.651" y2="338.809" gradientUnits="userSpaceOnUse">
<stop stop-color="white"/>
<stop offset="1" stop-color="white" stop-opacity="0"/>
</linearGradient>
<linearGradient id="paint3_linear_1_5343" x1="305.706" y1="290.045" x2="281.063" y2="410.938" gradientUnits="userSpaceOnUse">
<stop stop-color="#231F20"/>
<stop offset="0.15" stop-color="#231F20" stop-opacity="0.69"/>
<stop offset="0.18" stop-color="#231F20" stop-opacity="0.58"/>
<stop offset="0.31" stop-color="#231F20" stop-opacity="0.25"/>
<stop offset="0.49" stop-color="#231F20" stop-opacity="0.05"/>
<stop offset="1" stop-color="#231F20" stop-opacity="0"/>
</linearGradient>
<linearGradient id="paint4_linear_1_5343" x1="303.528" y1="282.474" x2="301.065" y2="366.834" gradientUnits="userSpaceOnUse">
<stop stop-color="#231F20"/>
<stop offset="0.15" stop-color="#231F20" stop-opacity="0.69"/>
<stop offset="0.18" stop-color="#231F20" stop-opacity="0.58"/>
<stop offset="0.31" stop-color="#231F20" stop-opacity="0.25"/>
<stop offset="0.49" stop-color="#231F20" stop-opacity="0.05"/>
<stop offset="1" stop-color="#231F20" stop-opacity="0"/>
</linearGradient>
<linearGradient id="paint5_linear_1_5343" x1="68.5863" y1="276.532" x2="118.649" y2="379.519" gradientUnits="userSpaceOnUse">
<stop stop-color="white"/>
<stop offset="1" stop-color="white" stop-opacity="0"/>
</linearGradient>
<linearGradient id="paint6_linear_1_5343" x1="44.7671" y1="231.175" x2="185.092" y2="503.205" gradientUnits="userSpaceOnUse">
<stop/>
<stop offset="0.08" stop-opacity="0.69"/>
<stop offset="0.21" stop-opacity="0.32"/>
<stop offset="1" stop-opacity="0"/>
</linearGradient>
<linearGradient id="paint7_linear_1_5343" x1="83.2376" y1="301.885" x2="108.44" y2="363.094" gradientUnits="userSpaceOnUse">
<stop stop-color="white"/>
<stop offset="1" stop-color="white" stop-opacity="0"/>
</linearGradient>
<linearGradient id="paint8_linear_1_5343" x1="104.135" y1="322.476" x2="56.4733" y2="280.981" gradientUnits="userSpaceOnUse">
<stop stop-color="white"/>
<stop offset="1" stop-color="white" stop-opacity="0"/>
</linearGradient>
</defs>
</svg>
