<svg width="90" height="90" viewBox="0 0 50 50" fill="none" xmlns="http://www.w3.org/2000/svg">
<path fill-rule="evenodd" clip-rule="evenodd" d="M17.0777 7.63678C17.0777 5.37408 18.912 3.53979 21.1747 3.53979H29.3687C31.6314 3.53979 33.4656 5.37408 33.4656 7.63678C33.4656 9.89949 31.6314 11.7338 29.3686 11.7338H21.1747C18.912 11.7338 17.0777 9.89949 17.0777 7.63678ZM14.005 7.63692H11.2053C8.79178 7.63692 6.83521 9.59348 6.83521 12.007V40.1397C6.83521 42.5533 8.79177 44.5098 11.2053 44.5098H39.338C41.7515 44.5098 43.7081 42.5533 43.7081 40.1397V12.007C43.7081 9.59349 41.7515 7.63692 39.338 7.63692H36.5384C36.5384 11.5966 33.3284 14.8066 29.3687 14.8066H21.1747C17.215 14.8066 14.005 11.5966 14.005 7.63692ZM20.6626 26.0732C20.6626 23.5277 22.7262 21.4641 25.2717 21.4641C27.8172 21.4641 29.8808 23.5277 29.8808 26.0732C29.8808 28.6188 27.8172 30.6823 25.2717 30.6823C22.7262 30.6823 20.6626 28.6188 20.6626 26.0732ZM25.2717 18.3914C21.0291 18.3914 17.5898 21.8307 17.5898 26.0732C17.5898 30.3158 21.0291 33.7551 25.2717 33.7551C26.8374 33.7551 28.2937 33.2867 29.5081 32.4824L31.355 34.3293C31.955 34.9293 32.9278 34.9293 33.5278 34.3293C34.1278 33.7293 34.1278 32.7566 33.5278 32.1566L31.6808 30.3096C32.4851 29.0952 32.9535 27.6389 32.9535 26.0732C32.9535 21.8307 29.5143 18.3914 25.2717 18.3914Z" fill="white"/>
</svg>
