<svg width="42" height="43" viewBox="0 0 42 43" fill="none" xmlns="http://www.w3.org/2000/svg">
<path fill-rule="evenodd" clip-rule="evenodd" d="M33.6571 0.909912H8.83206C4.26189 0.909912 0.557037 4.61477 0.557037 9.18493V34.01C0.557037 37.8667 3.19536 41.1071 6.76559 42.0249C7.42612 42.1947 8.11854 42.285 8.83206 42.285H33.6571C34.3706 42.285 35.0631 42.1947 35.7236 42.0249C39.2938 41.1071 41.9321 37.8667 41.9321 34.01V9.18493C41.9321 4.61477 38.2273 0.909912 33.6571 0.909912ZM27.4509 15.3912C27.4509 11.9636 24.6722 9.18493 21.2446 9.18493C17.817 9.18493 15.0383 11.9636 15.0383 15.3912C15.0383 18.8188 17.817 21.5975 21.2446 21.5975C24.6722 21.5975 27.4509 18.8188 27.4509 15.3912ZM11.2164 31.9733C12.3507 28.388 16.4104 25.735 21.2446 25.735C26.0788 25.735 30.1385 28.388 31.2727 31.9733C31.6174 33.0627 30.6622 34.01 29.5196 34.01H12.9696C11.827 34.01 10.8718 33.0627 11.2164 31.9733Z" fill="white"/>
</svg>
